<?xml version="1.0" encoding="utf-8" standalone="no"?>
<!DOCTYPE svg PUBLIC "-//W3C//DTD SVG 1.1//EN"
  "http://www.w3.org/Graphics/SVG/1.1/DTD/svg11.dtd">
<!-- Created with matplotlib (https://matplotlib.org/) -->
<svg height="576pt" version="1.1" viewBox="0 0 1152 576" width="1152pt" xmlns="http://www.w3.org/2000/svg" xmlns:xlink="http://www.w3.org/1999/xlink">
 <defs>
  <style type="text/css">
*{stroke-linecap:butt;stroke-linejoin:round;}
  </style>
 </defs>
 <g id="figure_1">
  <g id="patch_1">
   <path d="M 0 576 
L 1152 576 
L 1152 0 
L 0 0 
z
" style="fill:#ffffff;"/>
  </g>
  <g id="axes_1">
   <g id="patch_2">
    <path d="M 40.91 482.49 
L 1139.04 482.49 
L 1139.04 14.98021 
L 40.91 14.98021 
z
" style="fill:#eaeaf2;"/>
   </g>
   <g id="matplotlib.axis_1">
    <g id="xtick_1">
     <g id="line2d_1">
      <path clip-path="url(#p2a7bcd0509)" d="M 52.115408 482.49 
L 52.115408 14.98021 
" style="fill:none;stroke:#ffffff;stroke-linecap:round;"/>
     </g>
     <g id="text_1">
      <!-- 2020-02-02 -->
      <defs>
       <path d="M 50.34375 8.453125 
L 50.34375 0 
L 3.03125 0 
Q 2.9375 3.171875 4.046875 6.109375 
Q 5.859375 10.9375 9.828125 15.625 
Q 13.8125 20.3125 21.34375 26.46875 
Q 33.015625 36.03125 37.109375 41.625 
Q 41.21875 47.21875 41.21875 52.203125 
Q 41.21875 57.421875 37.46875 61 
Q 33.734375 64.59375 27.734375 64.59375 
Q 21.390625 64.59375 17.578125 60.78125 
Q 13.765625 56.984375 13.71875 50.25 
L 4.6875 51.171875 
Q 5.609375 61.28125 11.65625 66.578125 
Q 17.71875 71.875 27.9375 71.875 
Q 38.234375 71.875 44.234375 66.15625 
Q 50.25 60.453125 50.25 52 
Q 50.25 47.703125 48.484375 43.546875 
Q 46.734375 39.40625 42.65625 34.8125 
Q 38.578125 30.21875 29.109375 22.21875 
Q 21.1875 15.578125 18.9375 13.203125 
Q 16.703125 10.84375 15.234375 8.453125 
z
" id="ArialMT-50"/>
       <path d="M 4.15625 35.296875 
Q 4.15625 48 6.765625 55.734375 
Q 9.375 63.484375 14.515625 67.671875 
Q 19.671875 71.875 27.484375 71.875 
Q 33.25 71.875 37.59375 69.546875 
Q 41.9375 67.234375 44.765625 62.859375 
Q 47.609375 58.5 49.21875 52.21875 
Q 50.828125 45.953125 50.828125 35.296875 
Q 50.828125 22.703125 48.234375 14.96875 
Q 45.65625 7.234375 40.5 3 
Q 35.359375 -1.21875 27.484375 -1.21875 
Q 17.140625 -1.21875 11.234375 6.203125 
Q 4.15625 15.140625 4.15625 35.296875 
z
M 13.1875 35.296875 
Q 13.1875 17.671875 17.3125 11.828125 
Q 21.4375 6 27.484375 6 
Q 33.546875 6 37.671875 11.859375 
Q 41.796875 17.71875 41.796875 35.296875 
Q 41.796875 52.984375 37.671875 58.78125 
Q 33.546875 64.59375 27.390625 64.59375 
Q 21.34375 64.59375 17.71875 59.46875 
Q 13.1875 52.9375 13.1875 35.296875 
z
" id="ArialMT-48"/>
       <path d="M 3.171875 21.484375 
L 3.171875 30.328125 
L 30.171875 30.328125 
L 30.171875 21.484375 
z
" id="ArialMT-45"/>
      </defs>
      <g style="fill:#262626;" transform="translate(54.95908 548.251562)rotate(-90)scale(0.11 -0.11)">
       <use xlink:href="#ArialMT-50"/>
       <use x="55.615234" xlink:href="#ArialMT-48"/>
       <use x="111.230469" xlink:href="#ArialMT-50"/>
       <use x="166.845703" xlink:href="#ArialMT-48"/>
       <use x="222.460938" xlink:href="#ArialMT-45"/>
       <use x="255.761719" xlink:href="#ArialMT-48"/>
       <use x="311.376953" xlink:href="#ArialMT-50"/>
       <use x="366.992188" xlink:href="#ArialMT-45"/>
       <use x="400.292969" xlink:href="#ArialMT-48"/>
       <use x="455.908203" xlink:href="#ArialMT-50"/>
      </g>
     </g>
    </g>
    <g id="xtick_2">
     <g id="line2d_2">
      <path clip-path="url(#p2a7bcd0509)" d="M 74.526224 482.49 
L 74.526224 14.98021 
" style="fill:none;stroke:#ffffff;stroke-linecap:round;"/>
     </g>
     <g id="text_2">
      <!-- 2020-02-03 -->
      <defs>
       <path d="M 4.203125 18.890625 
L 12.984375 20.0625 
Q 14.5 12.59375 18.140625 9.296875 
Q 21.78125 6 27 6 
Q 33.203125 6 37.46875 10.296875 
Q 41.75 14.59375 41.75 20.953125 
Q 41.75 27 37.796875 30.921875 
Q 33.84375 34.859375 27.734375 34.859375 
Q 25.25 34.859375 21.53125 33.890625 
L 22.515625 41.609375 
Q 23.390625 41.5 23.921875 41.5 
Q 29.546875 41.5 34.03125 44.421875 
Q 38.53125 47.359375 38.53125 53.46875 
Q 38.53125 58.296875 35.25 61.46875 
Q 31.984375 64.65625 26.8125 64.65625 
Q 21.6875 64.65625 18.265625 61.421875 
Q 14.84375 58.203125 13.875 51.765625 
L 5.078125 53.328125 
Q 6.6875 62.15625 12.390625 67.015625 
Q 18.109375 71.875 26.609375 71.875 
Q 32.46875 71.875 37.390625 69.359375 
Q 42.328125 66.84375 44.9375 62.5 
Q 47.5625 58.15625 47.5625 53.265625 
Q 47.5625 48.640625 45.0625 44.828125 
Q 42.578125 41.015625 37.703125 38.765625 
Q 44.046875 37.3125 47.5625 32.6875 
Q 51.078125 28.078125 51.078125 21.140625 
Q 51.078125 11.765625 44.234375 5.25 
Q 37.40625 -1.265625 26.953125 -1.265625 
Q 17.53125 -1.265625 11.296875 4.34375 
Q 5.078125 9.96875 4.203125 18.890625 
z
" id="ArialMT-51"/>
      </defs>
      <g style="fill:#262626;" transform="translate(77.369896 548.251562)rotate(-90)scale(0.11 -0.11)">
       <use xlink:href="#ArialMT-50"/>
       <use x="55.615234" xlink:href="#ArialMT-48"/>
       <use x="111.230469" xlink:href="#ArialMT-50"/>
       <use x="166.845703" xlink:href="#ArialMT-48"/>
       <use x="222.460938" xlink:href="#ArialMT-45"/>
       <use x="255.761719" xlink:href="#ArialMT-48"/>
       <use x="311.376953" xlink:href="#ArialMT-50"/>
       <use x="366.992188" xlink:href="#ArialMT-45"/>
       <use x="400.292969" xlink:href="#ArialMT-48"/>
       <use x="455.908203" xlink:href="#ArialMT-51"/>
      </g>
     </g>
    </g>
    <g id="xtick_3">
     <g id="line2d_3">
      <path clip-path="url(#p2a7bcd0509)" d="M 96.937041 482.49 
L 96.937041 14.98021 
" style="fill:none;stroke:#ffffff;stroke-linecap:round;"/>
     </g>
     <g id="text_3">
      <!-- 2020-02-04 -->
      <defs>
       <path d="M 32.328125 0 
L 32.328125 17.140625 
L 1.265625 17.140625 
L 1.265625 25.203125 
L 33.9375 71.578125 
L 41.109375 71.578125 
L 41.109375 25.203125 
L 50.78125 25.203125 
L 50.78125 17.140625 
L 41.109375 17.140625 
L 41.109375 0 
z
M 32.328125 25.203125 
L 32.328125 57.46875 
L 9.90625 25.203125 
z
" id="ArialMT-52"/>
      </defs>
      <g style="fill:#262626;" transform="translate(99.780713 548.251562)rotate(-90)scale(0.11 -0.11)">
       <use xlink:href="#ArialMT-50"/>
       <use x="55.615234" xlink:href="#ArialMT-48"/>
       <use x="111.230469" xlink:href="#ArialMT-50"/>
       <use x="166.845703" xlink:href="#ArialMT-48"/>
       <use x="222.460938" xlink:href="#ArialMT-45"/>
       <use x="255.761719" xlink:href="#ArialMT-48"/>
       <use x="311.376953" xlink:href="#ArialMT-50"/>
       <use x="366.992188" xlink:href="#ArialMT-45"/>
       <use x="400.292969" xlink:href="#ArialMT-48"/>
       <use x="455.908203" xlink:href="#ArialMT-52"/>
      </g>
     </g>
    </g>
    <g id="xtick_4">
     <g id="line2d_4">
      <path clip-path="url(#p2a7bcd0509)" d="M 119.347857 482.49 
L 119.347857 14.98021 
" style="fill:none;stroke:#ffffff;stroke-linecap:round;"/>
     </g>
     <g id="text_4">
      <!-- 2020-02-05 -->
      <defs>
       <path d="M 4.15625 18.75 
L 13.375 19.53125 
Q 14.40625 12.796875 18.140625 9.390625 
Q 21.875 6 27.15625 6 
Q 33.5 6 37.890625 10.78125 
Q 42.28125 15.578125 42.28125 23.484375 
Q 42.28125 31 38.0625 35.34375 
Q 33.84375 39.703125 27 39.703125 
Q 22.75 39.703125 19.328125 37.765625 
Q 15.921875 35.84375 13.96875 32.765625 
L 5.71875 33.84375 
L 12.640625 70.609375 
L 48.25 70.609375 
L 48.25 62.203125 
L 19.671875 62.203125 
L 15.828125 42.96875 
Q 22.265625 47.46875 29.34375 47.46875 
Q 38.71875 47.46875 45.15625 40.96875 
Q 51.609375 34.46875 51.609375 24.265625 
Q 51.609375 14.546875 45.953125 7.46875 
Q 39.0625 -1.21875 27.15625 -1.21875 
Q 17.390625 -1.21875 11.203125 4.25 
Q 5.03125 9.71875 4.15625 18.75 
z
" id="ArialMT-53"/>
      </defs>
      <g style="fill:#262626;" transform="translate(122.191529 548.251562)rotate(-90)scale(0.11 -0.11)">
       <use xlink:href="#ArialMT-50"/>
       <use x="55.615234" xlink:href="#ArialMT-48"/>
       <use x="111.230469" xlink:href="#ArialMT-50"/>
       <use x="166.845703" xlink:href="#ArialMT-48"/>
       <use x="222.460938" xlink:href="#ArialMT-45"/>
       <use x="255.761719" xlink:href="#ArialMT-48"/>
       <use x="311.376953" xlink:href="#ArialMT-50"/>
       <use x="366.992188" xlink:href="#ArialMT-45"/>
       <use x="400.292969" xlink:href="#ArialMT-48"/>
       <use x="455.908203" xlink:href="#ArialMT-53"/>
      </g>
     </g>
    </g>
    <g id="xtick_5">
     <g id="line2d_5">
      <path clip-path="url(#p2a7bcd0509)" d="M 141.758673 482.49 
L 141.758673 14.98021 
" style="fill:none;stroke:#ffffff;stroke-linecap:round;"/>
     </g>
     <g id="text_5">
      <!-- 2020-02-06 -->
      <defs>
       <path d="M 49.75 54.046875 
L 41.015625 53.375 
Q 39.84375 58.546875 37.703125 60.890625 
Q 34.125 64.65625 28.90625 64.65625 
Q 24.703125 64.65625 21.53125 62.3125 
Q 17.390625 59.28125 14.984375 53.46875 
Q 12.59375 47.65625 12.5 36.921875 
Q 15.671875 41.75 20.265625 44.09375 
Q 24.859375 46.4375 29.890625 46.4375 
Q 38.671875 46.4375 44.84375 39.96875 
Q 51.03125 33.5 51.03125 23.25 
Q 51.03125 16.5 48.125 10.71875 
Q 45.21875 4.9375 40.140625 1.859375 
Q 35.0625 -1.21875 28.609375 -1.21875 
Q 17.625 -1.21875 10.6875 6.859375 
Q 3.765625 14.9375 3.765625 33.5 
Q 3.765625 54.25 11.421875 63.671875 
Q 18.109375 71.875 29.4375 71.875 
Q 37.890625 71.875 43.28125 67.140625 
Q 48.6875 62.40625 49.75 54.046875 
z
M 13.875 23.1875 
Q 13.875 18.65625 15.796875 14.5 
Q 17.71875 10.359375 21.1875 8.171875 
Q 24.65625 6 28.46875 6 
Q 34.03125 6 38.03125 10.484375 
Q 42.046875 14.984375 42.046875 22.703125 
Q 42.046875 30.125 38.078125 34.390625 
Q 34.125 38.671875 28.125 38.671875 
Q 22.171875 38.671875 18.015625 34.390625 
Q 13.875 30.125 13.875 23.1875 
z
" id="ArialMT-54"/>
      </defs>
      <g style="fill:#262626;" transform="translate(144.602345 548.251562)rotate(-90)scale(0.11 -0.11)">
       <use xlink:href="#ArialMT-50"/>
       <use x="55.615234" xlink:href="#ArialMT-48"/>
       <use x="111.230469" xlink:href="#ArialMT-50"/>
       <use x="166.845703" xlink:href="#ArialMT-48"/>
       <use x="222.460938" xlink:href="#ArialMT-45"/>
       <use x="255.761719" xlink:href="#ArialMT-48"/>
       <use x="311.376953" xlink:href="#ArialMT-50"/>
       <use x="366.992188" xlink:href="#ArialMT-45"/>
       <use x="400.292969" xlink:href="#ArialMT-48"/>
       <use x="455.908203" xlink:href="#ArialMT-54"/>
      </g>
     </g>
    </g>
    <g id="xtick_6">
     <g id="line2d_6">
      <path clip-path="url(#p2a7bcd0509)" d="M 164.16949 482.49 
L 164.16949 14.98021 
" style="fill:none;stroke:#ffffff;stroke-linecap:round;"/>
     </g>
     <g id="text_6">
      <!-- 2020-02-07 -->
      <defs>
       <path d="M 4.734375 62.203125 
L 4.734375 70.65625 
L 51.078125 70.65625 
L 51.078125 63.8125 
Q 44.234375 56.546875 37.515625 44.484375 
Q 30.8125 32.421875 27.15625 19.671875 
Q 24.515625 10.6875 23.78125 0 
L 14.75 0 
Q 14.890625 8.453125 18.0625 20.40625 
Q 21.234375 32.375 27.171875 43.484375 
Q 33.109375 54.59375 39.796875 62.203125 
z
" id="ArialMT-55"/>
      </defs>
      <g style="fill:#262626;" transform="translate(167.013162 548.251562)rotate(-90)scale(0.11 -0.11)">
       <use xlink:href="#ArialMT-50"/>
       <use x="55.615234" xlink:href="#ArialMT-48"/>
       <use x="111.230469" xlink:href="#ArialMT-50"/>
       <use x="166.845703" xlink:href="#ArialMT-48"/>
       <use x="222.460938" xlink:href="#ArialMT-45"/>
       <use x="255.761719" xlink:href="#ArialMT-48"/>
       <use x="311.376953" xlink:href="#ArialMT-50"/>
       <use x="366.992188" xlink:href="#ArialMT-45"/>
       <use x="400.292969" xlink:href="#ArialMT-48"/>
       <use x="455.908203" xlink:href="#ArialMT-55"/>
      </g>
     </g>
    </g>
    <g id="xtick_7">
     <g id="line2d_7">
      <path clip-path="url(#p2a7bcd0509)" d="M 186.580306 482.49 
L 186.580306 14.98021 
" style="fill:none;stroke:#ffffff;stroke-linecap:round;"/>
     </g>
     <g id="text_7">
      <!-- 2020-02-08 -->
      <defs>
       <path d="M 17.671875 38.8125 
Q 12.203125 40.828125 9.5625 44.53125 
Q 6.9375 48.25 6.9375 53.421875 
Q 6.9375 61.234375 12.546875 66.546875 
Q 18.171875 71.875 27.484375 71.875 
Q 36.859375 71.875 42.578125 66.421875 
Q 48.296875 60.984375 48.296875 53.171875 
Q 48.296875 48.1875 45.671875 44.5 
Q 43.0625 40.828125 37.75 38.8125 
Q 44.34375 36.671875 47.78125 31.875 
Q 51.21875 27.09375 51.21875 20.453125 
Q 51.21875 11.28125 44.71875 5.03125 
Q 38.234375 -1.21875 27.640625 -1.21875 
Q 17.046875 -1.21875 10.546875 5.046875 
Q 4.046875 11.328125 4.046875 20.703125 
Q 4.046875 27.6875 7.59375 32.390625 
Q 11.140625 37.109375 17.671875 38.8125 
z
M 15.921875 53.71875 
Q 15.921875 48.640625 19.1875 45.40625 
Q 22.46875 42.1875 27.6875 42.1875 
Q 32.765625 42.1875 36.015625 45.375 
Q 39.265625 48.578125 39.265625 53.21875 
Q 39.265625 58.0625 35.90625 61.359375 
Q 32.5625 64.65625 27.59375 64.65625 
Q 22.5625 64.65625 19.234375 61.421875 
Q 15.921875 58.203125 15.921875 53.71875 
z
M 13.09375 20.65625 
Q 13.09375 16.890625 14.875 13.375 
Q 16.65625 9.859375 20.171875 7.921875 
Q 23.6875 6 27.734375 6 
Q 34.03125 6 38.125 10.046875 
Q 42.234375 14.109375 42.234375 20.359375 
Q 42.234375 26.703125 38.015625 30.859375 
Q 33.796875 35.015625 27.4375 35.015625 
Q 21.234375 35.015625 17.15625 30.90625 
Q 13.09375 26.8125 13.09375 20.65625 
z
" id="ArialMT-56"/>
      </defs>
      <g style="fill:#262626;" transform="translate(189.423978 548.251562)rotate(-90)scale(0.11 -0.11)">
       <use xlink:href="#ArialMT-50"/>
       <use x="55.615234" xlink:href="#ArialMT-48"/>
       <use x="111.230469" xlink:href="#ArialMT-50"/>
       <use x="166.845703" xlink:href="#ArialMT-48"/>
       <use x="222.460938" xlink:href="#ArialMT-45"/>
       <use x="255.761719" xlink:href="#ArialMT-48"/>
       <use x="311.376953" xlink:href="#ArialMT-50"/>
       <use x="366.992188" xlink:href="#ArialMT-45"/>
       <use x="400.292969" xlink:href="#ArialMT-48"/>
       <use x="455.908203" xlink:href="#ArialMT-56"/>
      </g>
     </g>
    </g>
    <g id="xtick_8">
     <g id="line2d_8">
      <path clip-path="url(#p2a7bcd0509)" d="M 208.991122 482.49 
L 208.991122 14.98021 
" style="fill:none;stroke:#ffffff;stroke-linecap:round;"/>
     </g>
     <g id="text_8">
      <!-- 2020-02-09 -->
      <defs>
       <path d="M 5.46875 16.546875 
L 13.921875 17.328125 
Q 14.984375 11.375 18.015625 8.6875 
Q 21.046875 6 25.78125 6 
Q 29.828125 6 32.875 7.859375 
Q 35.9375 9.71875 37.890625 12.8125 
Q 39.84375 15.921875 41.15625 21.1875 
Q 42.484375 26.46875 42.484375 31.9375 
Q 42.484375 32.515625 42.4375 33.6875 
Q 39.796875 29.5 35.234375 26.875 
Q 30.671875 24.265625 25.34375 24.265625 
Q 16.453125 24.265625 10.296875 30.703125 
Q 4.15625 37.15625 4.15625 47.703125 
Q 4.15625 58.59375 10.578125 65.234375 
Q 17 71.875 26.65625 71.875 
Q 33.640625 71.875 39.421875 68.109375 
Q 45.21875 64.359375 48.21875 57.390625 
Q 51.21875 50.4375 51.21875 37.25 
Q 51.21875 23.53125 48.234375 15.40625 
Q 45.265625 7.28125 39.375 3.03125 
Q 33.5 -1.21875 25.59375 -1.21875 
Q 17.1875 -1.21875 11.859375 3.4375 
Q 6.546875 8.109375 5.46875 16.546875 
z
M 41.453125 48.140625 
Q 41.453125 55.71875 37.421875 60.15625 
Q 33.40625 64.59375 27.734375 64.59375 
Q 21.875 64.59375 17.53125 59.8125 
Q 13.1875 55.03125 13.1875 47.40625 
Q 13.1875 40.578125 17.3125 36.296875 
Q 21.4375 32.03125 27.484375 32.03125 
Q 33.59375 32.03125 37.515625 36.296875 
Q 41.453125 40.578125 41.453125 48.140625 
z
" id="ArialMT-57"/>
      </defs>
      <g style="fill:#262626;" transform="translate(211.834794 548.251562)rotate(-90)scale(0.11 -0.11)">
       <use xlink:href="#ArialMT-50"/>
       <use x="55.615234" xlink:href="#ArialMT-48"/>
       <use x="111.230469" xlink:href="#ArialMT-50"/>
       <use x="166.845703" xlink:href="#ArialMT-48"/>
       <use x="222.460938" xlink:href="#ArialMT-45"/>
       <use x="255.761719" xlink:href="#ArialMT-48"/>
       <use x="311.376953" xlink:href="#ArialMT-50"/>
       <use x="366.992188" xlink:href="#ArialMT-45"/>
       <use x="400.292969" xlink:href="#ArialMT-48"/>
       <use x="455.908203" xlink:href="#ArialMT-57"/>
      </g>
     </g>
    </g>
    <g id="xtick_9">
     <g id="line2d_9">
      <path clip-path="url(#p2a7bcd0509)" d="M 231.401939 482.49 
L 231.401939 14.98021 
" style="fill:none;stroke:#ffffff;stroke-linecap:round;"/>
     </g>
     <g id="text_9">
      <!-- 2020-02-10 -->
      <defs>
       <path d="M 37.25 0 
L 28.46875 0 
L 28.46875 56 
Q 25.296875 52.984375 20.140625 49.953125 
Q 14.984375 46.921875 10.890625 45.40625 
L 10.890625 53.90625 
Q 18.265625 57.375 23.78125 62.296875 
Q 29.296875 67.234375 31.59375 71.875 
L 37.25 71.875 
z
" id="ArialMT-49"/>
      </defs>
      <g style="fill:#262626;" transform="translate(234.245611 548.251562)rotate(-90)scale(0.11 -0.11)">
       <use xlink:href="#ArialMT-50"/>
       <use x="55.615234" xlink:href="#ArialMT-48"/>
       <use x="111.230469" xlink:href="#ArialMT-50"/>
       <use x="166.845703" xlink:href="#ArialMT-48"/>
       <use x="222.460938" xlink:href="#ArialMT-45"/>
       <use x="255.761719" xlink:href="#ArialMT-48"/>
       <use x="311.376953" xlink:href="#ArialMT-50"/>
       <use x="366.992188" xlink:href="#ArialMT-45"/>
       <use x="400.292969" xlink:href="#ArialMT-49"/>
       <use x="455.908203" xlink:href="#ArialMT-48"/>
      </g>
     </g>
    </g>
    <g id="xtick_10">
     <g id="line2d_10">
      <path clip-path="url(#p2a7bcd0509)" d="M 253.812755 482.49 
L 253.812755 14.98021 
" style="fill:none;stroke:#ffffff;stroke-linecap:round;"/>
     </g>
     <g id="text_10">
      <!-- 2020-02-11 -->
      <g style="fill:#262626;" transform="translate(256.656427 548.239531)rotate(-90)scale(0.11 -0.11)">
       <use xlink:href="#ArialMT-50"/>
       <use x="55.615234" xlink:href="#ArialMT-48"/>
       <use x="111.230469" xlink:href="#ArialMT-50"/>
       <use x="166.845703" xlink:href="#ArialMT-48"/>
       <use x="222.460938" xlink:href="#ArialMT-45"/>
       <use x="255.761719" xlink:href="#ArialMT-48"/>
       <use x="311.376953" xlink:href="#ArialMT-50"/>
       <use x="366.992188" xlink:href="#ArialMT-45"/>
       <use x="400.292969" xlink:href="#ArialMT-49"/>
       <use x="455.798828" xlink:href="#ArialMT-49"/>
      </g>
     </g>
    </g>
    <g id="xtick_11">
     <g id="line2d_11">
      <path clip-path="url(#p2a7bcd0509)" d="M 276.223571 482.49 
L 276.223571 14.98021 
" style="fill:none;stroke:#ffffff;stroke-linecap:round;"/>
     </g>
     <g id="text_11">
      <!-- 2020-02-12 -->
      <g style="fill:#262626;" transform="translate(279.067243 548.251562)rotate(-90)scale(0.11 -0.11)">
       <use xlink:href="#ArialMT-50"/>
       <use x="55.615234" xlink:href="#ArialMT-48"/>
       <use x="111.230469" xlink:href="#ArialMT-50"/>
       <use x="166.845703" xlink:href="#ArialMT-48"/>
       <use x="222.460938" xlink:href="#ArialMT-45"/>
       <use x="255.761719" xlink:href="#ArialMT-48"/>
       <use x="311.376953" xlink:href="#ArialMT-50"/>
       <use x="366.992188" xlink:href="#ArialMT-45"/>
       <use x="400.292969" xlink:href="#ArialMT-49"/>
       <use x="455.908203" xlink:href="#ArialMT-50"/>
      </g>
     </g>
    </g>
    <g id="xtick_12">
     <g id="line2d_12">
      <path clip-path="url(#p2a7bcd0509)" d="M 298.634388 482.49 
L 298.634388 14.98021 
" style="fill:none;stroke:#ffffff;stroke-linecap:round;"/>
     </g>
     <g id="text_12">
      <!-- 2020-02-13 -->
      <g style="fill:#262626;" transform="translate(301.47806 548.251562)rotate(-90)scale(0.11 -0.11)">
       <use xlink:href="#ArialMT-50"/>
       <use x="55.615234" xlink:href="#ArialMT-48"/>
       <use x="111.230469" xlink:href="#ArialMT-50"/>
       <use x="166.845703" xlink:href="#ArialMT-48"/>
       <use x="222.460938" xlink:href="#ArialMT-45"/>
       <use x="255.761719" xlink:href="#ArialMT-48"/>
       <use x="311.376953" xlink:href="#ArialMT-50"/>
       <use x="366.992188" xlink:href="#ArialMT-45"/>
       <use x="400.292969" xlink:href="#ArialMT-49"/>
       <use x="455.908203" xlink:href="#ArialMT-51"/>
      </g>
     </g>
    </g>
    <g id="xtick_13">
     <g id="line2d_13">
      <path clip-path="url(#p2a7bcd0509)" d="M 321.045204 482.49 
L 321.045204 14.98021 
" style="fill:none;stroke:#ffffff;stroke-linecap:round;"/>
     </g>
     <g id="text_13">
      <!-- 2020-02-14 -->
      <g style="fill:#262626;" transform="translate(323.888876 548.251562)rotate(-90)scale(0.11 -0.11)">
       <use xlink:href="#ArialMT-50"/>
       <use x="55.615234" xlink:href="#ArialMT-48"/>
       <use x="111.230469" xlink:href="#ArialMT-50"/>
       <use x="166.845703" xlink:href="#ArialMT-48"/>
       <use x="222.460938" xlink:href="#ArialMT-45"/>
       <use x="255.761719" xlink:href="#ArialMT-48"/>
       <use x="311.376953" xlink:href="#ArialMT-50"/>
       <use x="366.992188" xlink:href="#ArialMT-45"/>
       <use x="400.292969" xlink:href="#ArialMT-49"/>
       <use x="455.908203" xlink:href="#ArialMT-52"/>
      </g>
     </g>
    </g>
    <g id="xtick_14">
     <g id="line2d_14">
      <path clip-path="url(#p2a7bcd0509)" d="M 343.45602 482.49 
L 343.45602 14.98021 
" style="fill:none;stroke:#ffffff;stroke-linecap:round;"/>
     </g>
     <g id="text_14">
      <!-- 2020-02-15 -->
      <g style="fill:#262626;" transform="translate(346.299692 548.251562)rotate(-90)scale(0.11 -0.11)">
       <use xlink:href="#ArialMT-50"/>
       <use x="55.615234" xlink:href="#ArialMT-48"/>
       <use x="111.230469" xlink:href="#ArialMT-50"/>
       <use x="166.845703" xlink:href="#ArialMT-48"/>
       <use x="222.460938" xlink:href="#ArialMT-45"/>
       <use x="255.761719" xlink:href="#ArialMT-48"/>
       <use x="311.376953" xlink:href="#ArialMT-50"/>
       <use x="366.992188" xlink:href="#ArialMT-45"/>
       <use x="400.292969" xlink:href="#ArialMT-49"/>
       <use x="455.908203" xlink:href="#ArialMT-53"/>
      </g>
     </g>
    </g>
    <g id="xtick_15">
     <g id="line2d_15">
      <path clip-path="url(#p2a7bcd0509)" d="M 365.866837 482.49 
L 365.866837 14.98021 
" style="fill:none;stroke:#ffffff;stroke-linecap:round;"/>
     </g>
     <g id="text_15">
      <!-- 2020-02-16 -->
      <g style="fill:#262626;" transform="translate(368.710509 548.251562)rotate(-90)scale(0.11 -0.11)">
       <use xlink:href="#ArialMT-50"/>
       <use x="55.615234" xlink:href="#ArialMT-48"/>
       <use x="111.230469" xlink:href="#ArialMT-50"/>
       <use x="166.845703" xlink:href="#ArialMT-48"/>
       <use x="222.460938" xlink:href="#ArialMT-45"/>
       <use x="255.761719" xlink:href="#ArialMT-48"/>
       <use x="311.376953" xlink:href="#ArialMT-50"/>
       <use x="366.992188" xlink:href="#ArialMT-45"/>
       <use x="400.292969" xlink:href="#ArialMT-49"/>
       <use x="455.908203" xlink:href="#ArialMT-54"/>
      </g>
     </g>
    </g>
    <g id="xtick_16">
     <g id="line2d_16">
      <path clip-path="url(#p2a7bcd0509)" d="M 388.277653 482.49 
L 388.277653 14.98021 
" style="fill:none;stroke:#ffffff;stroke-linecap:round;"/>
     </g>
     <g id="text_16">
      <!-- 2020-02-17 -->
      <g style="fill:#262626;" transform="translate(391.121325 548.251562)rotate(-90)scale(0.11 -0.11)">
       <use xlink:href="#ArialMT-50"/>
       <use x="55.615234" xlink:href="#ArialMT-48"/>
       <use x="111.230469" xlink:href="#ArialMT-50"/>
       <use x="166.845703" xlink:href="#ArialMT-48"/>
       <use x="222.460938" xlink:href="#ArialMT-45"/>
       <use x="255.761719" xlink:href="#ArialMT-48"/>
       <use x="311.376953" xlink:href="#ArialMT-50"/>
       <use x="366.992188" xlink:href="#ArialMT-45"/>
       <use x="400.292969" xlink:href="#ArialMT-49"/>
       <use x="455.908203" xlink:href="#ArialMT-55"/>
      </g>
     </g>
    </g>
    <g id="xtick_17">
     <g id="line2d_17">
      <path clip-path="url(#p2a7bcd0509)" d="M 410.688469 482.49 
L 410.688469 14.98021 
" style="fill:none;stroke:#ffffff;stroke-linecap:round;"/>
     </g>
     <g id="text_17">
      <!-- 2020-02-18 -->
      <g style="fill:#262626;" transform="translate(413.532141 548.251562)rotate(-90)scale(0.11 -0.11)">
       <use xlink:href="#ArialMT-50"/>
       <use x="55.615234" xlink:href="#ArialMT-48"/>
       <use x="111.230469" xlink:href="#ArialMT-50"/>
       <use x="166.845703" xlink:href="#ArialMT-48"/>
       <use x="222.460938" xlink:href="#ArialMT-45"/>
       <use x="255.761719" xlink:href="#ArialMT-48"/>
       <use x="311.376953" xlink:href="#ArialMT-50"/>
       <use x="366.992188" xlink:href="#ArialMT-45"/>
       <use x="400.292969" xlink:href="#ArialMT-49"/>
       <use x="455.908203" xlink:href="#ArialMT-56"/>
      </g>
     </g>
    </g>
    <g id="xtick_18">
     <g id="line2d_18">
      <path clip-path="url(#p2a7bcd0509)" d="M 433.099286 482.49 
L 433.099286 14.98021 
" style="fill:none;stroke:#ffffff;stroke-linecap:round;"/>
     </g>
     <g id="text_18">
      <!-- 2020-02-19 -->
      <g style="fill:#262626;" transform="translate(435.942958 548.251562)rotate(-90)scale(0.11 -0.11)">
       <use xlink:href="#ArialMT-50"/>
       <use x="55.615234" xlink:href="#ArialMT-48"/>
       <use x="111.230469" xlink:href="#ArialMT-50"/>
       <use x="166.845703" xlink:href="#ArialMT-48"/>
       <use x="222.460938" xlink:href="#ArialMT-45"/>
       <use x="255.761719" xlink:href="#ArialMT-48"/>
       <use x="311.376953" xlink:href="#ArialMT-50"/>
       <use x="366.992188" xlink:href="#ArialMT-45"/>
       <use x="400.292969" xlink:href="#ArialMT-49"/>
       <use x="455.908203" xlink:href="#ArialMT-57"/>
      </g>
     </g>
    </g>
    <g id="xtick_19">
     <g id="line2d_19">
      <path clip-path="url(#p2a7bcd0509)" d="M 455.510102 482.49 
L 455.510102 14.98021 
" style="fill:none;stroke:#ffffff;stroke-linecap:round;"/>
     </g>
     <g id="text_19">
      <!-- 2020-02-20 -->
      <g style="fill:#262626;" transform="translate(458.353774 548.251562)rotate(-90)scale(0.11 -0.11)">
       <use xlink:href="#ArialMT-50"/>
       <use x="55.615234" xlink:href="#ArialMT-48"/>
       <use x="111.230469" xlink:href="#ArialMT-50"/>
       <use x="166.845703" xlink:href="#ArialMT-48"/>
       <use x="222.460938" xlink:href="#ArialMT-45"/>
       <use x="255.761719" xlink:href="#ArialMT-48"/>
       <use x="311.376953" xlink:href="#ArialMT-50"/>
       <use x="366.992188" xlink:href="#ArialMT-45"/>
       <use x="400.292969" xlink:href="#ArialMT-50"/>
       <use x="455.908203" xlink:href="#ArialMT-48"/>
      </g>
     </g>
    </g>
    <g id="xtick_20">
     <g id="line2d_20">
      <path clip-path="url(#p2a7bcd0509)" d="M 477.920918 482.49 
L 477.920918 14.98021 
" style="fill:none;stroke:#ffffff;stroke-linecap:round;"/>
     </g>
     <g id="text_20">
      <!-- 2020-02-21 -->
      <g style="fill:#262626;" transform="translate(480.76459 548.251562)rotate(-90)scale(0.11 -0.11)">
       <use xlink:href="#ArialMT-50"/>
       <use x="55.615234" xlink:href="#ArialMT-48"/>
       <use x="111.230469" xlink:href="#ArialMT-50"/>
       <use x="166.845703" xlink:href="#ArialMT-48"/>
       <use x="222.460938" xlink:href="#ArialMT-45"/>
       <use x="255.761719" xlink:href="#ArialMT-48"/>
       <use x="311.376953" xlink:href="#ArialMT-50"/>
       <use x="366.992188" xlink:href="#ArialMT-45"/>
       <use x="400.292969" xlink:href="#ArialMT-50"/>
       <use x="455.908203" xlink:href="#ArialMT-49"/>
      </g>
     </g>
    </g>
    <g id="xtick_21">
     <g id="line2d_21">
      <path clip-path="url(#p2a7bcd0509)" d="M 500.331735 482.49 
L 500.331735 14.98021 
" style="fill:none;stroke:#ffffff;stroke-linecap:round;"/>
     </g>
     <g id="text_21">
      <!-- 2020-02-22 -->
      <g style="fill:#262626;" transform="translate(503.175407 548.251562)rotate(-90)scale(0.11 -0.11)">
       <use xlink:href="#ArialMT-50"/>
       <use x="55.615234" xlink:href="#ArialMT-48"/>
       <use x="111.230469" xlink:href="#ArialMT-50"/>
       <use x="166.845703" xlink:href="#ArialMT-48"/>
       <use x="222.460938" xlink:href="#ArialMT-45"/>
       <use x="255.761719" xlink:href="#ArialMT-48"/>
       <use x="311.376953" xlink:href="#ArialMT-50"/>
       <use x="366.992188" xlink:href="#ArialMT-45"/>
       <use x="400.292969" xlink:href="#ArialMT-50"/>
       <use x="455.908203" xlink:href="#ArialMT-50"/>
      </g>
     </g>
    </g>
    <g id="xtick_22">
     <g id="line2d_22">
      <path clip-path="url(#p2a7bcd0509)" d="M 522.742551 482.49 
L 522.742551 14.98021 
" style="fill:none;stroke:#ffffff;stroke-linecap:round;"/>
     </g>
     <g id="text_22">
      <!-- 2020-02-23 -->
      <g style="fill:#262626;" transform="translate(525.586223 548.251562)rotate(-90)scale(0.11 -0.11)">
       <use xlink:href="#ArialMT-50"/>
       <use x="55.615234" xlink:href="#ArialMT-48"/>
       <use x="111.230469" xlink:href="#ArialMT-50"/>
       <use x="166.845703" xlink:href="#ArialMT-48"/>
       <use x="222.460938" xlink:href="#ArialMT-45"/>
       <use x="255.761719" xlink:href="#ArialMT-48"/>
       <use x="311.376953" xlink:href="#ArialMT-50"/>
       <use x="366.992188" xlink:href="#ArialMT-45"/>
       <use x="400.292969" xlink:href="#ArialMT-50"/>
       <use x="455.908203" xlink:href="#ArialMT-51"/>
      </g>
     </g>
    </g>
    <g id="xtick_23">
     <g id="line2d_23">
      <path clip-path="url(#p2a7bcd0509)" d="M 545.153367 482.49 
L 545.153367 14.98021 
" style="fill:none;stroke:#ffffff;stroke-linecap:round;"/>
     </g>
     <g id="text_23">
      <!-- 2020-02-24 -->
      <g style="fill:#262626;" transform="translate(547.997039 548.251562)rotate(-90)scale(0.11 -0.11)">
       <use xlink:href="#ArialMT-50"/>
       <use x="55.615234" xlink:href="#ArialMT-48"/>
       <use x="111.230469" xlink:href="#ArialMT-50"/>
       <use x="166.845703" xlink:href="#ArialMT-48"/>
       <use x="222.460938" xlink:href="#ArialMT-45"/>
       <use x="255.761719" xlink:href="#ArialMT-48"/>
       <use x="311.376953" xlink:href="#ArialMT-50"/>
       <use x="366.992188" xlink:href="#ArialMT-45"/>
       <use x="400.292969" xlink:href="#ArialMT-50"/>
       <use x="455.908203" xlink:href="#ArialMT-52"/>
      </g>
     </g>
    </g>
    <g id="xtick_24">
     <g id="line2d_24">
      <path clip-path="url(#p2a7bcd0509)" d="M 567.564184 482.49 
L 567.564184 14.98021 
" style="fill:none;stroke:#ffffff;stroke-linecap:round;"/>
     </g>
     <g id="text_24">
      <!-- 2020-02-25 -->
      <g style="fill:#262626;" transform="translate(570.407856 548.251562)rotate(-90)scale(0.11 -0.11)">
       <use xlink:href="#ArialMT-50"/>
       <use x="55.615234" xlink:href="#ArialMT-48"/>
       <use x="111.230469" xlink:href="#ArialMT-50"/>
       <use x="166.845703" xlink:href="#ArialMT-48"/>
       <use x="222.460938" xlink:href="#ArialMT-45"/>
       <use x="255.761719" xlink:href="#ArialMT-48"/>
       <use x="311.376953" xlink:href="#ArialMT-50"/>
       <use x="366.992188" xlink:href="#ArialMT-45"/>
       <use x="400.292969" xlink:href="#ArialMT-50"/>
       <use x="455.908203" xlink:href="#ArialMT-53"/>
      </g>
     </g>
    </g>
    <g id="xtick_25">
     <g id="line2d_25">
      <path clip-path="url(#p2a7bcd0509)" d="M 589.975 482.49 
L 589.975 14.98021 
" style="fill:none;stroke:#ffffff;stroke-linecap:round;"/>
     </g>
     <g id="text_25">
      <!-- 2020-02-26 -->
      <g style="fill:#262626;" transform="translate(592.818672 548.251562)rotate(-90)scale(0.11 -0.11)">
       <use xlink:href="#ArialMT-50"/>
       <use x="55.615234" xlink:href="#ArialMT-48"/>
       <use x="111.230469" xlink:href="#ArialMT-50"/>
       <use x="166.845703" xlink:href="#ArialMT-48"/>
       <use x="222.460938" xlink:href="#ArialMT-45"/>
       <use x="255.761719" xlink:href="#ArialMT-48"/>
       <use x="311.376953" xlink:href="#ArialMT-50"/>
       <use x="366.992188" xlink:href="#ArialMT-45"/>
       <use x="400.292969" xlink:href="#ArialMT-50"/>
       <use x="455.908203" xlink:href="#ArialMT-54"/>
      </g>
     </g>
    </g>
    <g id="xtick_26">
     <g id="line2d_26">
      <path clip-path="url(#p2a7bcd0509)" d="M 612.385816 482.49 
L 612.385816 14.98021 
" style="fill:none;stroke:#ffffff;stroke-linecap:round;"/>
     </g>
     <g id="text_26">
      <!-- 2020-02-27 -->
      <g style="fill:#262626;" transform="translate(615.229488 548.251562)rotate(-90)scale(0.11 -0.11)">
       <use xlink:href="#ArialMT-50"/>
       <use x="55.615234" xlink:href="#ArialMT-48"/>
       <use x="111.230469" xlink:href="#ArialMT-50"/>
       <use x="166.845703" xlink:href="#ArialMT-48"/>
       <use x="222.460938" xlink:href="#ArialMT-45"/>
       <use x="255.761719" xlink:href="#ArialMT-48"/>
       <use x="311.376953" xlink:href="#ArialMT-50"/>
       <use x="366.992188" xlink:href="#ArialMT-45"/>
       <use x="400.292969" xlink:href="#ArialMT-50"/>
       <use x="455.908203" xlink:href="#ArialMT-55"/>
      </g>
     </g>
    </g>
    <g id="xtick_27">
     <g id="line2d_27">
      <path clip-path="url(#p2a7bcd0509)" d="M 634.796633 482.49 
L 634.796633 14.98021 
" style="fill:none;stroke:#ffffff;stroke-linecap:round;"/>
     </g>
     <g id="text_27">
      <!-- 2020-02-28 -->
      <g style="fill:#262626;" transform="translate(637.640305 548.251562)rotate(-90)scale(0.11 -0.11)">
       <use xlink:href="#ArialMT-50"/>
       <use x="55.615234" xlink:href="#ArialMT-48"/>
       <use x="111.230469" xlink:href="#ArialMT-50"/>
       <use x="166.845703" xlink:href="#ArialMT-48"/>
       <use x="222.460938" xlink:href="#ArialMT-45"/>
       <use x="255.761719" xlink:href="#ArialMT-48"/>
       <use x="311.376953" xlink:href="#ArialMT-50"/>
       <use x="366.992188" xlink:href="#ArialMT-45"/>
       <use x="400.292969" xlink:href="#ArialMT-50"/>
       <use x="455.908203" xlink:href="#ArialMT-56"/>
      </g>
     </g>
    </g>
    <g id="xtick_28">
     <g id="line2d_28">
      <path clip-path="url(#p2a7bcd0509)" d="M 657.207449 482.49 
L 657.207449 14.98021 
" style="fill:none;stroke:#ffffff;stroke-linecap:round;"/>
     </g>
     <g id="text_28">
      <!-- 2020-02-29 -->
      <g style="fill:#262626;" transform="translate(660.051121 548.251562)rotate(-90)scale(0.11 -0.11)">
       <use xlink:href="#ArialMT-50"/>
       <use x="55.615234" xlink:href="#ArialMT-48"/>
       <use x="111.230469" xlink:href="#ArialMT-50"/>
       <use x="166.845703" xlink:href="#ArialMT-48"/>
       <use x="222.460938" xlink:href="#ArialMT-45"/>
       <use x="255.761719" xlink:href="#ArialMT-48"/>
       <use x="311.376953" xlink:href="#ArialMT-50"/>
       <use x="366.992188" xlink:href="#ArialMT-45"/>
       <use x="400.292969" xlink:href="#ArialMT-50"/>
       <use x="455.908203" xlink:href="#ArialMT-57"/>
      </g>
     </g>
    </g>
    <g id="xtick_29">
     <g id="line2d_29">
      <path clip-path="url(#p2a7bcd0509)" d="M 679.618265 482.49 
L 679.618265 14.98021 
" style="fill:none;stroke:#ffffff;stroke-linecap:round;"/>
     </g>
     <g id="text_29">
      <!-- 2020-03-01 -->
      <g style="fill:#262626;" transform="translate(682.461937 548.251562)rotate(-90)scale(0.11 -0.11)">
       <use xlink:href="#ArialMT-50"/>
       <use x="55.615234" xlink:href="#ArialMT-48"/>
       <use x="111.230469" xlink:href="#ArialMT-50"/>
       <use x="166.845703" xlink:href="#ArialMT-48"/>
       <use x="222.460938" xlink:href="#ArialMT-45"/>
       <use x="255.761719" xlink:href="#ArialMT-48"/>
       <use x="311.376953" xlink:href="#ArialMT-51"/>
       <use x="366.992188" xlink:href="#ArialMT-45"/>
       <use x="400.292969" xlink:href="#ArialMT-48"/>
       <use x="455.908203" xlink:href="#ArialMT-49"/>
      </g>
     </g>
    </g>
    <g id="xtick_30">
     <g id="line2d_30">
      <path clip-path="url(#p2a7bcd0509)" d="M 702.029082 482.49 
L 702.029082 14.98021 
" style="fill:none;stroke:#ffffff;stroke-linecap:round;"/>
     </g>
     <g id="text_30">
      <!-- 2020-03-02 -->
      <g style="fill:#262626;" transform="translate(704.872754 548.251562)rotate(-90)scale(0.11 -0.11)">
       <use xlink:href="#ArialMT-50"/>
       <use x="55.615234" xlink:href="#ArialMT-48"/>
       <use x="111.230469" xlink:href="#ArialMT-50"/>
       <use x="166.845703" xlink:href="#ArialMT-48"/>
       <use x="222.460938" xlink:href="#ArialMT-45"/>
       <use x="255.761719" xlink:href="#ArialMT-48"/>
       <use x="311.376953" xlink:href="#ArialMT-51"/>
       <use x="366.992188" xlink:href="#ArialMT-45"/>
       <use x="400.292969" xlink:href="#ArialMT-48"/>
       <use x="455.908203" xlink:href="#ArialMT-50"/>
      </g>
     </g>
    </g>
    <g id="xtick_31">
     <g id="line2d_31">
      <path clip-path="url(#p2a7bcd0509)" d="M 724.439898 482.49 
L 724.439898 14.98021 
" style="fill:none;stroke:#ffffff;stroke-linecap:round;"/>
     </g>
     <g id="text_31">
      <!-- 2020-03-03 -->
      <g style="fill:#262626;" transform="translate(727.28357 548.251562)rotate(-90)scale(0.11 -0.11)">
       <use xlink:href="#ArialMT-50"/>
       <use x="55.615234" xlink:href="#ArialMT-48"/>
       <use x="111.230469" xlink:href="#ArialMT-50"/>
       <use x="166.845703" xlink:href="#ArialMT-48"/>
       <use x="222.460938" xlink:href="#ArialMT-45"/>
       <use x="255.761719" xlink:href="#ArialMT-48"/>
       <use x="311.376953" xlink:href="#ArialMT-51"/>
       <use x="366.992188" xlink:href="#ArialMT-45"/>
       <use x="400.292969" xlink:href="#ArialMT-48"/>
       <use x="455.908203" xlink:href="#ArialMT-51"/>
      </g>
     </g>
    </g>
    <g id="xtick_32">
     <g id="line2d_32">
      <path clip-path="url(#p2a7bcd0509)" d="M 746.850714 482.49 
L 746.850714 14.98021 
" style="fill:none;stroke:#ffffff;stroke-linecap:round;"/>
     </g>
     <g id="text_32">
      <!-- 2020-03-04 -->
      <g style="fill:#262626;" transform="translate(749.694386 548.251562)rotate(-90)scale(0.11 -0.11)">
       <use xlink:href="#ArialMT-50"/>
       <use x="55.615234" xlink:href="#ArialMT-48"/>
       <use x="111.230469" xlink:href="#ArialMT-50"/>
       <use x="166.845703" xlink:href="#ArialMT-48"/>
       <use x="222.460938" xlink:href="#ArialMT-45"/>
       <use x="255.761719" xlink:href="#ArialMT-48"/>
       <use x="311.376953" xlink:href="#ArialMT-51"/>
       <use x="366.992188" xlink:href="#ArialMT-45"/>
       <use x="400.292969" xlink:href="#ArialMT-48"/>
       <use x="455.908203" xlink:href="#ArialMT-52"/>
      </g>
     </g>
    </g>
    <g id="xtick_33">
     <g id="line2d_33">
      <path clip-path="url(#p2a7bcd0509)" d="M 769.261531 482.49 
L 769.261531 14.98021 
" style="fill:none;stroke:#ffffff;stroke-linecap:round;"/>
     </g>
     <g id="text_33">
      <!-- 2020-03-05 -->
      <g style="fill:#262626;" transform="translate(772.105202 548.251562)rotate(-90)scale(0.11 -0.11)">
       <use xlink:href="#ArialMT-50"/>
       <use x="55.615234" xlink:href="#ArialMT-48"/>
       <use x="111.230469" xlink:href="#ArialMT-50"/>
       <use x="166.845703" xlink:href="#ArialMT-48"/>
       <use x="222.460938" xlink:href="#ArialMT-45"/>
       <use x="255.761719" xlink:href="#ArialMT-48"/>
       <use x="311.376953" xlink:href="#ArialMT-51"/>
       <use x="366.992188" xlink:href="#ArialMT-45"/>
       <use x="400.292969" xlink:href="#ArialMT-48"/>
       <use x="455.908203" xlink:href="#ArialMT-53"/>
      </g>
     </g>
    </g>
    <g id="xtick_34">
     <g id="line2d_34">
      <path clip-path="url(#p2a7bcd0509)" d="M 791.672347 482.49 
L 791.672347 14.98021 
" style="fill:none;stroke:#ffffff;stroke-linecap:round;"/>
     </g>
     <g id="text_34">
      <!-- 2020-03-06 -->
      <g style="fill:#262626;" transform="translate(794.516019 548.251562)rotate(-90)scale(0.11 -0.11)">
       <use xlink:href="#ArialMT-50"/>
       <use x="55.615234" xlink:href="#ArialMT-48"/>
       <use x="111.230469" xlink:href="#ArialMT-50"/>
       <use x="166.845703" xlink:href="#ArialMT-48"/>
       <use x="222.460938" xlink:href="#ArialMT-45"/>
       <use x="255.761719" xlink:href="#ArialMT-48"/>
       <use x="311.376953" xlink:href="#ArialMT-51"/>
       <use x="366.992188" xlink:href="#ArialMT-45"/>
       <use x="400.292969" xlink:href="#ArialMT-48"/>
       <use x="455.908203" xlink:href="#ArialMT-54"/>
      </g>
     </g>
    </g>
    <g id="xtick_35">
     <g id="line2d_35">
      <path clip-path="url(#p2a7bcd0509)" d="M 814.083163 482.49 
L 814.083163 14.98021 
" style="fill:none;stroke:#ffffff;stroke-linecap:round;"/>
     </g>
     <g id="text_35">
      <!-- 2020-03-07 -->
      <g style="fill:#262626;" transform="translate(816.926835 548.251562)rotate(-90)scale(0.11 -0.11)">
       <use xlink:href="#ArialMT-50"/>
       <use x="55.615234" xlink:href="#ArialMT-48"/>
       <use x="111.230469" xlink:href="#ArialMT-50"/>
       <use x="166.845703" xlink:href="#ArialMT-48"/>
       <use x="222.460938" xlink:href="#ArialMT-45"/>
       <use x="255.761719" xlink:href="#ArialMT-48"/>
       <use x="311.376953" xlink:href="#ArialMT-51"/>
       <use x="366.992188" xlink:href="#ArialMT-45"/>
       <use x="400.292969" xlink:href="#ArialMT-48"/>
       <use x="455.908203" xlink:href="#ArialMT-55"/>
      </g>
     </g>
    </g>
    <g id="xtick_36">
     <g id="line2d_36">
      <path clip-path="url(#p2a7bcd0509)" d="M 836.49398 482.49 
L 836.49398 14.98021 
" style="fill:none;stroke:#ffffff;stroke-linecap:round;"/>
     </g>
     <g id="text_36">
      <!-- 2020-03-08 -->
      <g style="fill:#262626;" transform="translate(839.337651 548.251562)rotate(-90)scale(0.11 -0.11)">
       <use xlink:href="#ArialMT-50"/>
       <use x="55.615234" xlink:href="#ArialMT-48"/>
       <use x="111.230469" xlink:href="#ArialMT-50"/>
       <use x="166.845703" xlink:href="#ArialMT-48"/>
       <use x="222.460938" xlink:href="#ArialMT-45"/>
       <use x="255.761719" xlink:href="#ArialMT-48"/>
       <use x="311.376953" xlink:href="#ArialMT-51"/>
       <use x="366.992188" xlink:href="#ArialMT-45"/>
       <use x="400.292969" xlink:href="#ArialMT-48"/>
       <use x="455.908203" xlink:href="#ArialMT-56"/>
      </g>
     </g>
    </g>
    <g id="xtick_37">
     <g id="line2d_37">
      <path clip-path="url(#p2a7bcd0509)" d="M 858.904796 482.49 
L 858.904796 14.98021 
" style="fill:none;stroke:#ffffff;stroke-linecap:round;"/>
     </g>
     <g id="text_37">
      <!-- 2020-03-09 -->
      <g style="fill:#262626;" transform="translate(861.748468 548.251562)rotate(-90)scale(0.11 -0.11)">
       <use xlink:href="#ArialMT-50"/>
       <use x="55.615234" xlink:href="#ArialMT-48"/>
       <use x="111.230469" xlink:href="#ArialMT-50"/>
       <use x="166.845703" xlink:href="#ArialMT-48"/>
       <use x="222.460938" xlink:href="#ArialMT-45"/>
       <use x="255.761719" xlink:href="#ArialMT-48"/>
       <use x="311.376953" xlink:href="#ArialMT-51"/>
       <use x="366.992188" xlink:href="#ArialMT-45"/>
       <use x="400.292969" xlink:href="#ArialMT-48"/>
       <use x="455.908203" xlink:href="#ArialMT-57"/>
      </g>
     </g>
    </g>
    <g id="xtick_38">
     <g id="line2d_38">
      <path clip-path="url(#p2a7bcd0509)" d="M 881.315612 482.49 
L 881.315612 14.98021 
" style="fill:none;stroke:#ffffff;stroke-linecap:round;"/>
     </g>
     <g id="text_38">
      <!-- 2020-03-10 -->
      <g style="fill:#262626;" transform="translate(884.159284 548.251562)rotate(-90)scale(0.11 -0.11)">
       <use xlink:href="#ArialMT-50"/>
       <use x="55.615234" xlink:href="#ArialMT-48"/>
       <use x="111.230469" xlink:href="#ArialMT-50"/>
       <use x="166.845703" xlink:href="#ArialMT-48"/>
       <use x="222.460938" xlink:href="#ArialMT-45"/>
       <use x="255.761719" xlink:href="#ArialMT-48"/>
       <use x="311.376953" xlink:href="#ArialMT-51"/>
       <use x="366.992188" xlink:href="#ArialMT-45"/>
       <use x="400.292969" xlink:href="#ArialMT-49"/>
       <use x="455.908203" xlink:href="#ArialMT-48"/>
      </g>
     </g>
    </g>
    <g id="xtick_39">
     <g id="line2d_39">
      <path clip-path="url(#p2a7bcd0509)" d="M 903.726429 482.49 
L 903.726429 14.98021 
" style="fill:none;stroke:#ffffff;stroke-linecap:round;"/>
     </g>
     <g id="text_39">
      <!-- 2020-03-11 -->
      <g style="fill:#262626;" transform="translate(906.5701 548.239531)rotate(-90)scale(0.11 -0.11)">
       <use xlink:href="#ArialMT-50"/>
       <use x="55.615234" xlink:href="#ArialMT-48"/>
       <use x="111.230469" xlink:href="#ArialMT-50"/>
       <use x="166.845703" xlink:href="#ArialMT-48"/>
       <use x="222.460938" xlink:href="#ArialMT-45"/>
       <use x="255.761719" xlink:href="#ArialMT-48"/>
       <use x="311.376953" xlink:href="#ArialMT-51"/>
       <use x="366.992188" xlink:href="#ArialMT-45"/>
       <use x="400.292969" xlink:href="#ArialMT-49"/>
       <use x="455.798828" xlink:href="#ArialMT-49"/>
      </g>
     </g>
    </g>
    <g id="xtick_40">
     <g id="line2d_40">
      <path clip-path="url(#p2a7bcd0509)" d="M 926.137245 482.49 
L 926.137245 14.98021 
" style="fill:none;stroke:#ffffff;stroke-linecap:round;"/>
     </g>
     <g id="text_40">
      <!-- 2020-03-12 -->
      <g style="fill:#262626;" transform="translate(928.980917 548.251562)rotate(-90)scale(0.11 -0.11)">
       <use xlink:href="#ArialMT-50"/>
       <use x="55.615234" xlink:href="#ArialMT-48"/>
       <use x="111.230469" xlink:href="#ArialMT-50"/>
       <use x="166.845703" xlink:href="#ArialMT-48"/>
       <use x="222.460938" xlink:href="#ArialMT-45"/>
       <use x="255.761719" xlink:href="#ArialMT-48"/>
       <use x="311.376953" xlink:href="#ArialMT-51"/>
       <use x="366.992188" xlink:href="#ArialMT-45"/>
       <use x="400.292969" xlink:href="#ArialMT-49"/>
       <use x="455.908203" xlink:href="#ArialMT-50"/>
      </g>
     </g>
    </g>
    <g id="xtick_41">
     <g id="line2d_41">
      <path clip-path="url(#p2a7bcd0509)" d="M 948.548061 482.49 
L 948.548061 14.98021 
" style="fill:none;stroke:#ffffff;stroke-linecap:round;"/>
     </g>
     <g id="text_41">
      <!-- 2020-03-13 -->
      <g style="fill:#262626;" transform="translate(951.391733 548.251562)rotate(-90)scale(0.11 -0.11)">
       <use xlink:href="#ArialMT-50"/>
       <use x="55.615234" xlink:href="#ArialMT-48"/>
       <use x="111.230469" xlink:href="#ArialMT-50"/>
       <use x="166.845703" xlink:href="#ArialMT-48"/>
       <use x="222.460938" xlink:href="#ArialMT-45"/>
       <use x="255.761719" xlink:href="#ArialMT-48"/>
       <use x="311.376953" xlink:href="#ArialMT-51"/>
       <use x="366.992188" xlink:href="#ArialMT-45"/>
       <use x="400.292969" xlink:href="#ArialMT-49"/>
       <use x="455.908203" xlink:href="#ArialMT-51"/>
      </g>
     </g>
    </g>
    <g id="xtick_42">
     <g id="line2d_42">
      <path clip-path="url(#p2a7bcd0509)" d="M 970.958878 482.49 
L 970.958878 14.98021 
" style="fill:none;stroke:#ffffff;stroke-linecap:round;"/>
     </g>
     <g id="text_42">
      <!-- 2020-03-14 -->
      <g style="fill:#262626;" transform="translate(973.802549 548.251562)rotate(-90)scale(0.11 -0.11)">
       <use xlink:href="#ArialMT-50"/>
       <use x="55.615234" xlink:href="#ArialMT-48"/>
       <use x="111.230469" xlink:href="#ArialMT-50"/>
       <use x="166.845703" xlink:href="#ArialMT-48"/>
       <use x="222.460938" xlink:href="#ArialMT-45"/>
       <use x="255.761719" xlink:href="#ArialMT-48"/>
       <use x="311.376953" xlink:href="#ArialMT-51"/>
       <use x="366.992188" xlink:href="#ArialMT-45"/>
       <use x="400.292969" xlink:href="#ArialMT-49"/>
       <use x="455.908203" xlink:href="#ArialMT-52"/>
      </g>
     </g>
    </g>
    <g id="xtick_43">
     <g id="line2d_43">
      <path clip-path="url(#p2a7bcd0509)" d="M 993.369694 482.49 
L 993.369694 14.98021 
" style="fill:none;stroke:#ffffff;stroke-linecap:round;"/>
     </g>
     <g id="text_43">
      <!-- 2020-03-15 -->
      <g style="fill:#262626;" transform="translate(996.213366 548.251562)rotate(-90)scale(0.11 -0.11)">
       <use xlink:href="#ArialMT-50"/>
       <use x="55.615234" xlink:href="#ArialMT-48"/>
       <use x="111.230469" xlink:href="#ArialMT-50"/>
       <use x="166.845703" xlink:href="#ArialMT-48"/>
       <use x="222.460938" xlink:href="#ArialMT-45"/>
       <use x="255.761719" xlink:href="#ArialMT-48"/>
       <use x="311.376953" xlink:href="#ArialMT-51"/>
       <use x="366.992188" xlink:href="#ArialMT-45"/>
       <use x="400.292969" xlink:href="#ArialMT-49"/>
       <use x="455.908203" xlink:href="#ArialMT-53"/>
      </g>
     </g>
    </g>
    <g id="xtick_44">
     <g id="line2d_44">
      <path clip-path="url(#p2a7bcd0509)" d="M 1015.78051 482.49 
L 1015.78051 14.98021 
" style="fill:none;stroke:#ffffff;stroke-linecap:round;"/>
     </g>
     <g id="text_44">
      <!-- 2020-03-16 -->
      <g style="fill:#262626;" transform="translate(1018.624182 548.251562)rotate(-90)scale(0.11 -0.11)">
       <use xlink:href="#ArialMT-50"/>
       <use x="55.615234" xlink:href="#ArialMT-48"/>
       <use x="111.230469" xlink:href="#ArialMT-50"/>
       <use x="166.845703" xlink:href="#ArialMT-48"/>
       <use x="222.460938" xlink:href="#ArialMT-45"/>
       <use x="255.761719" xlink:href="#ArialMT-48"/>
       <use x="311.376953" xlink:href="#ArialMT-51"/>
       <use x="366.992188" xlink:href="#ArialMT-45"/>
       <use x="400.292969" xlink:href="#ArialMT-49"/>
       <use x="455.908203" xlink:href="#ArialMT-54"/>
      </g>
     </g>
    </g>
    <g id="xtick_45">
     <g id="line2d_45">
      <path clip-path="url(#p2a7bcd0509)" d="M 1038.191327 482.49 
L 1038.191327 14.98021 
" style="fill:none;stroke:#ffffff;stroke-linecap:round;"/>
     </g>
     <g id="text_45">
      <!-- 2020-03-17 -->
      <g style="fill:#262626;" transform="translate(1041.034998 548.251562)rotate(-90)scale(0.11 -0.11)">
       <use xlink:href="#ArialMT-50"/>
       <use x="55.615234" xlink:href="#ArialMT-48"/>
       <use x="111.230469" xlink:href="#ArialMT-50"/>
       <use x="166.845703" xlink:href="#ArialMT-48"/>
       <use x="222.460938" xlink:href="#ArialMT-45"/>
       <use x="255.761719" xlink:href="#ArialMT-48"/>
       <use x="311.376953" xlink:href="#ArialMT-51"/>
       <use x="366.992188" xlink:href="#ArialMT-45"/>
       <use x="400.292969" xlink:href="#ArialMT-49"/>
       <use x="455.908203" xlink:href="#ArialMT-55"/>
      </g>
     </g>
    </g>
    <g id="xtick_46">
     <g id="line2d_46">
      <path clip-path="url(#p2a7bcd0509)" d="M 1060.602143 482.49 
L 1060.602143 14.98021 
" style="fill:none;stroke:#ffffff;stroke-linecap:round;"/>
     </g>
     <g id="text_46">
      <!-- 2020-03-18 -->
      <g style="fill:#262626;" transform="translate(1063.445815 548.251562)rotate(-90)scale(0.11 -0.11)">
       <use xlink:href="#ArialMT-50"/>
       <use x="55.615234" xlink:href="#ArialMT-48"/>
       <use x="111.230469" xlink:href="#ArialMT-50"/>
       <use x="166.845703" xlink:href="#ArialMT-48"/>
       <use x="222.460938" xlink:href="#ArialMT-45"/>
       <use x="255.761719" xlink:href="#ArialMT-48"/>
       <use x="311.376953" xlink:href="#ArialMT-51"/>
       <use x="366.992188" xlink:href="#ArialMT-45"/>
       <use x="400.292969" xlink:href="#ArialMT-49"/>
       <use x="455.908203" xlink:href="#ArialMT-56"/>
      </g>
     </g>
    </g>
    <g id="xtick_47">
     <g id="line2d_47">
      <path clip-path="url(#p2a7bcd0509)" d="M 1083.012959 482.49 
L 1083.012959 14.98021 
" style="fill:none;stroke:#ffffff;stroke-linecap:round;"/>
     </g>
     <g id="text_47">
      <!-- 2020-03-19 -->
      <g style="fill:#262626;" transform="translate(1085.856631 548.251562)rotate(-90)scale(0.11 -0.11)">
       <use xlink:href="#ArialMT-50"/>
       <use x="55.615234" xlink:href="#ArialMT-48"/>
       <use x="111.230469" xlink:href="#ArialMT-50"/>
       <use x="166.845703" xlink:href="#ArialMT-48"/>
       <use x="222.460938" xlink:href="#ArialMT-45"/>
       <use x="255.761719" xlink:href="#ArialMT-48"/>
       <use x="311.376953" xlink:href="#ArialMT-51"/>
       <use x="366.992188" xlink:href="#ArialMT-45"/>
       <use x="400.292969" xlink:href="#ArialMT-49"/>
       <use x="455.908203" xlink:href="#ArialMT-57"/>
      </g>
     </g>
    </g>
    <g id="xtick_48">
     <g id="line2d_48">
      <path clip-path="url(#p2a7bcd0509)" d="M 1105.423776 482.49 
L 1105.423776 14.98021 
" style="fill:none;stroke:#ffffff;stroke-linecap:round;"/>
     </g>
     <g id="text_48">
      <!-- 2020-03-20 -->
      <g style="fill:#262626;" transform="translate(1108.267447 548.251562)rotate(-90)scale(0.11 -0.11)">
       <use xlink:href="#ArialMT-50"/>
       <use x="55.615234" xlink:href="#ArialMT-48"/>
       <use x="111.230469" xlink:href="#ArialMT-50"/>
       <use x="166.845703" xlink:href="#ArialMT-48"/>
       <use x="222.460938" xlink:href="#ArialMT-45"/>
       <use x="255.761719" xlink:href="#ArialMT-48"/>
       <use x="311.376953" xlink:href="#ArialMT-51"/>
       <use x="366.992188" xlink:href="#ArialMT-45"/>
       <use x="400.292969" xlink:href="#ArialMT-50"/>
       <use x="455.908203" xlink:href="#ArialMT-48"/>
      </g>
     </g>
    </g>
    <g id="xtick_49">
     <g id="line2d_49">
      <path clip-path="url(#p2a7bcd0509)" d="M 1127.834592 482.49 
L 1127.834592 14.98021 
" style="fill:none;stroke:#ffffff;stroke-linecap:round;"/>
     </g>
     <g id="text_49">
      <!-- 2020-03-21 -->
      <g style="fill:#262626;" transform="translate(1130.678264 548.251562)rotate(-90)scale(0.11 -0.11)">
       <use xlink:href="#ArialMT-50"/>
       <use x="55.615234" xlink:href="#ArialMT-48"/>
       <use x="111.230469" xlink:href="#ArialMT-50"/>
       <use x="166.845703" xlink:href="#ArialMT-48"/>
       <use x="222.460938" xlink:href="#ArialMT-45"/>
       <use x="255.761719" xlink:href="#ArialMT-48"/>
       <use x="311.376953" xlink:href="#ArialMT-51"/>
       <use x="366.992188" xlink:href="#ArialMT-45"/>
       <use x="400.292969" xlink:href="#ArialMT-50"/>
       <use x="455.908203" xlink:href="#ArialMT-49"/>
      </g>
     </g>
    </g>
    <g id="text_50">
     <!-- Date -->
     <defs>
      <path d="M 7.71875 0 
L 7.71875 71.578125 
L 32.375 71.578125 
Q 40.71875 71.578125 45.125 70.5625 
Q 51.265625 69.140625 55.609375 65.4375 
Q 61.28125 60.640625 64.078125 53.1875 
Q 66.890625 45.75 66.890625 36.1875 
Q 66.890625 28.03125 64.984375 21.734375 
Q 63.09375 15.4375 60.109375 11.296875 
Q 57.125 7.171875 53.578125 4.796875 
Q 50.046875 2.4375 45.046875 1.21875 
Q 40.046875 0 33.546875 0 
z
M 17.1875 8.453125 
L 32.46875 8.453125 
Q 39.546875 8.453125 43.578125 9.765625 
Q 47.609375 11.078125 50 13.484375 
Q 53.375 16.84375 55.25 22.53125 
Q 57.125 28.21875 57.125 36.328125 
Q 57.125 47.5625 53.4375 53.59375 
Q 49.75 59.625 44.484375 61.671875 
Q 40.671875 63.140625 32.234375 63.140625 
L 17.1875 63.140625 
z
" id="ArialMT-68"/>
      <path d="M 40.4375 6.390625 
Q 35.546875 2.25 31.03125 0.53125 
Q 26.515625 -1.171875 21.34375 -1.171875 
Q 12.796875 -1.171875 8.203125 3 
Q 3.609375 7.171875 3.609375 13.671875 
Q 3.609375 17.484375 5.34375 20.625 
Q 7.078125 23.78125 9.890625 25.6875 
Q 12.703125 27.59375 16.21875 28.5625 
Q 18.796875 29.25 24.03125 29.890625 
Q 34.671875 31.15625 39.703125 32.90625 
Q 39.75 34.71875 39.75 35.203125 
Q 39.75 40.578125 37.25 42.78125 
Q 33.890625 45.75 27.25 45.75 
Q 21.046875 45.75 18.09375 43.578125 
Q 15.140625 41.40625 13.71875 35.890625 
L 5.125 37.0625 
Q 6.296875 42.578125 8.984375 45.96875 
Q 11.671875 49.359375 16.75 51.1875 
Q 21.828125 53.03125 28.515625 53.03125 
Q 35.15625 53.03125 39.296875 51.46875 
Q 43.453125 49.90625 45.40625 47.53125 
Q 47.359375 45.171875 48.140625 41.546875 
Q 48.578125 39.3125 48.578125 33.453125 
L 48.578125 21.734375 
Q 48.578125 9.46875 49.140625 6.21875 
Q 49.703125 2.984375 51.375 0 
L 42.1875 0 
Q 40.828125 2.734375 40.4375 6.390625 
z
M 39.703125 26.03125 
Q 34.90625 24.078125 25.34375 22.703125 
Q 19.921875 21.921875 17.671875 20.9375 
Q 15.4375 19.96875 14.203125 18.09375 
Q 12.984375 16.21875 12.984375 13.921875 
Q 12.984375 10.40625 15.640625 8.0625 
Q 18.3125 5.71875 23.4375 5.71875 
Q 28.515625 5.71875 32.46875 7.9375 
Q 36.421875 10.15625 38.28125 14.015625 
Q 39.703125 17 39.703125 22.796875 
z
" id="ArialMT-97"/>
      <path d="M 25.78125 7.859375 
L 27.046875 0.09375 
Q 23.34375 -0.6875 20.40625 -0.6875 
Q 15.625 -0.6875 12.984375 0.828125 
Q 10.359375 2.34375 9.28125 4.8125 
Q 8.203125 7.28125 8.203125 15.1875 
L 8.203125 45.015625 
L 1.765625 45.015625 
L 1.765625 51.859375 
L 8.203125 51.859375 
L 8.203125 64.703125 
L 16.9375 69.96875 
L 16.9375 51.859375 
L 25.78125 51.859375 
L 25.78125 45.015625 
L 16.9375 45.015625 
L 16.9375 14.703125 
Q 16.9375 10.9375 17.40625 9.859375 
Q 17.875 8.796875 18.921875 8.15625 
Q 19.96875 7.515625 21.921875 7.515625 
Q 23.390625 7.515625 25.78125 7.859375 
z
" id="ArialMT-116"/>
      <path d="M 42.09375 16.703125 
L 51.171875 15.578125 
Q 49.03125 7.625 43.21875 3.21875 
Q 37.40625 -1.171875 28.375 -1.171875 
Q 17 -1.171875 10.328125 5.828125 
Q 3.65625 12.84375 3.65625 25.484375 
Q 3.65625 38.578125 10.390625 45.796875 
Q 17.140625 53.03125 27.875 53.03125 
Q 38.28125 53.03125 44.875 45.953125 
Q 51.46875 38.875 51.46875 26.03125 
Q 51.46875 25.25 51.421875 23.6875 
L 12.75 23.6875 
Q 13.234375 15.140625 17.578125 10.59375 
Q 21.921875 6.0625 28.421875 6.0625 
Q 33.25 6.0625 36.671875 8.59375 
Q 40.09375 11.140625 42.09375 16.703125 
z
M 13.234375 30.90625 
L 42.1875 30.90625 
Q 41.609375 37.453125 38.875 40.71875 
Q 34.671875 45.796875 27.984375 45.796875 
Q 21.921875 45.796875 17.796875 41.75 
Q 13.671875 37.703125 13.234375 30.90625 
z
" id="ArialMT-101"/>
     </defs>
     <g style="fill:#262626;" transform="translate(577.301875 560.840937)scale(0.12 -0.12)">
      <use xlink:href="#ArialMT-68"/>
      <use x="72.216797" xlink:href="#ArialMT-97"/>
      <use x="127.832031" xlink:href="#ArialMT-116"/>
      <use x="155.615234" xlink:href="#ArialMT-101"/>
     </g>
    </g>
   </g>
   <g id="matplotlib.axis_2">
    <g id="ytick_1">
     <g id="line2d_50">
      <path clip-path="url(#p2a7bcd0509)" d="M 40.91 482.49 
L 1139.04 482.49 
" style="fill:none;stroke:#ffffff;stroke-linecap:round;"/>
     </g>
     <g id="text_51">
      <!-- 0 -->
      <g style="fill:#262626;" transform="translate(25.292969 486.426797)scale(0.11 -0.11)">
       <use xlink:href="#ArialMT-48"/>
      </g>
     </g>
    </g>
    <g id="ytick_2">
     <g id="line2d_51">
      <path clip-path="url(#p2a7bcd0509)" d="M 40.91 424.306865 
L 1139.04 424.306865 
" style="fill:none;stroke:#ffffff;stroke-linecap:round;"/>
     </g>
     <g id="text_52">
      <!-- 100 -->
      <g style="fill:#262626;" transform="translate(13.058906 428.243662)scale(0.11 -0.11)">
       <use xlink:href="#ArialMT-49"/>
       <use x="55.615234" xlink:href="#ArialMT-48"/>
       <use x="111.230469" xlink:href="#ArialMT-48"/>
      </g>
     </g>
    </g>
    <g id="ytick_3">
     <g id="line2d_52">
      <path clip-path="url(#p2a7bcd0509)" d="M 40.91 366.123731 
L 1139.04 366.123731 
" style="fill:none;stroke:#ffffff;stroke-linecap:round;"/>
     </g>
     <g id="text_53">
      <!-- 200 -->
      <g style="fill:#262626;" transform="translate(13.058906 370.060527)scale(0.11 -0.11)">
       <use xlink:href="#ArialMT-50"/>
       <use x="55.615234" xlink:href="#ArialMT-48"/>
       <use x="111.230469" xlink:href="#ArialMT-48"/>
      </g>
     </g>
    </g>
    <g id="ytick_4">
     <g id="line2d_53">
      <path clip-path="url(#p2a7bcd0509)" d="M 40.91 307.940596 
L 1139.04 307.940596 
" style="fill:none;stroke:#ffffff;stroke-linecap:round;"/>
     </g>
     <g id="text_54">
      <!-- 300 -->
      <g style="fill:#262626;" transform="translate(13.058906 311.877393)scale(0.11 -0.11)">
       <use xlink:href="#ArialMT-51"/>
       <use x="55.615234" xlink:href="#ArialMT-48"/>
       <use x="111.230469" xlink:href="#ArialMT-48"/>
      </g>
     </g>
    </g>
    <g id="ytick_5">
     <g id="line2d_54">
      <path clip-path="url(#p2a7bcd0509)" d="M 40.91 249.757461 
L 1139.04 249.757461 
" style="fill:none;stroke:#ffffff;stroke-linecap:round;"/>
     </g>
     <g id="text_55">
      <!-- 400 -->
      <g style="fill:#262626;" transform="translate(13.058906 253.694258)scale(0.11 -0.11)">
       <use xlink:href="#ArialMT-52"/>
       <use x="55.615234" xlink:href="#ArialMT-48"/>
       <use x="111.230469" xlink:href="#ArialMT-48"/>
      </g>
     </g>
    </g>
    <g id="ytick_6">
     <g id="line2d_55">
      <path clip-path="url(#p2a7bcd0509)" d="M 40.91 191.574326 
L 1139.04 191.574326 
" style="fill:none;stroke:#ffffff;stroke-linecap:round;"/>
     </g>
     <g id="text_56">
      <!-- 500 -->
      <g style="fill:#262626;" transform="translate(13.058906 195.511123)scale(0.11 -0.11)">
       <use xlink:href="#ArialMT-53"/>
       <use x="55.615234" xlink:href="#ArialMT-48"/>
       <use x="111.230469" xlink:href="#ArialMT-48"/>
      </g>
     </g>
    </g>
    <g id="ytick_7">
     <g id="line2d_56">
      <path clip-path="url(#p2a7bcd0509)" d="M 40.91 133.391192 
L 1139.04 133.391192 
" style="fill:none;stroke:#ffffff;stroke-linecap:round;"/>
     </g>
     <g id="text_57">
      <!-- 600 -->
      <g style="fill:#262626;" transform="translate(13.058906 137.327989)scale(0.11 -0.11)">
       <use xlink:href="#ArialMT-54"/>
       <use x="55.615234" xlink:href="#ArialMT-48"/>
       <use x="111.230469" xlink:href="#ArialMT-48"/>
      </g>
     </g>
    </g>
    <g id="ytick_8">
     <g id="line2d_57">
      <path clip-path="url(#p2a7bcd0509)" d="M 40.91 75.208057 
L 1139.04 75.208057 
" style="fill:none;stroke:#ffffff;stroke-linecap:round;"/>
     </g>
     <g id="text_58">
      <!-- 700 -->
      <g style="fill:#262626;" transform="translate(13.058906 79.144854)scale(0.11 -0.11)">
       <use xlink:href="#ArialMT-55"/>
       <use x="55.615234" xlink:href="#ArialMT-48"/>
       <use x="111.230469" xlink:href="#ArialMT-48"/>
      </g>
     </g>
    </g>
    <g id="ytick_9">
     <g id="line2d_58">
      <path clip-path="url(#p2a7bcd0509)" d="M 40.91 17.024922 
L 1139.04 17.024922 
" style="fill:none;stroke:#ffffff;stroke-linecap:round;"/>
     </g>
     <g id="text_59">
      <!-- 800 -->
      <g style="fill:#262626;" transform="translate(13.058906 20.961719)scale(0.11 -0.11)">
       <use xlink:href="#ArialMT-56"/>
       <use x="55.615234" xlink:href="#ArialMT-48"/>
       <use x="111.230469" xlink:href="#ArialMT-48"/>
      </g>
     </g>
    </g>
   </g>
   <g id="patch_3">
    <path clip-path="url(#p2a7bcd0509)" d="M 46.512704 482.49 
L 52.115408 482.49 
L 52.115408 476.089855 
L 46.512704 476.089855 
z
" style="fill:#4c72b0;stroke:#ffffff;stroke-linejoin:miter;"/>
   </g>
   <g id="patch_4">
    <path clip-path="url(#p2a7bcd0509)" d="M 68.92352 482.49 
L 74.526224 482.49 
L 74.526224 476.089855 
L 68.92352 476.089855 
z
" style="fill:#4c72b0;stroke:#ffffff;stroke-linejoin:miter;"/>
   </g>
   <g id="patch_5">
    <path clip-path="url(#p2a7bcd0509)" d="M 91.334337 482.49 
L 96.937041 482.49 
L 96.937041 476.089855 
L 91.334337 476.089855 
z
" style="fill:#4c72b0;stroke:#ffffff;stroke-linejoin:miter;"/>
   </g>
   <g id="patch_6">
    <path clip-path="url(#p2a7bcd0509)" d="M 113.745153 482.49 
L 119.347857 482.49 
L 119.347857 475.508024 
L 113.745153 475.508024 
z
" style="fill:#4c72b0;stroke:#ffffff;stroke-linejoin:miter;"/>
   </g>
   <g id="patch_7">
    <path clip-path="url(#p2a7bcd0509)" d="M 136.155969 482.49 
L 141.758673 482.49 
L 141.758673 474.926192 
L 136.155969 474.926192 
z
" style="fill:#4c72b0;stroke:#ffffff;stroke-linejoin:miter;"/>
   </g>
   <g id="patch_8">
    <path clip-path="url(#p2a7bcd0509)" d="M 158.566786 482.49 
L 164.16949 482.49 
L 164.16949 474.344361 
L 158.566786 474.344361 
z
" style="fill:#4c72b0;stroke:#ffffff;stroke-linejoin:miter;"/>
   </g>
   <g id="patch_9">
    <path clip-path="url(#p2a7bcd0509)" d="M 180.977602 482.49 
L 186.580306 482.49 
L 186.580306 474.344361 
L 180.977602 474.344361 
z
" style="fill:#4c72b0;stroke:#ffffff;stroke-linejoin:miter;"/>
   </g>
   <g id="patch_10">
    <path clip-path="url(#p2a7bcd0509)" d="M 203.388418 482.49 
L 208.991122 482.49 
L 208.991122 474.344361 
L 203.388418 474.344361 
z
" style="fill:#4c72b0;stroke:#ffffff;stroke-linejoin:miter;"/>
   </g>
   <g id="patch_11">
    <path clip-path="url(#p2a7bcd0509)" d="M 225.799235 482.49 
L 231.401939 482.49 
L 231.401939 474.344361 
L 225.799235 474.344361 
z
" style="fill:#4c72b0;stroke:#ffffff;stroke-linejoin:miter;"/>
   </g>
   <g id="patch_12">
    <path clip-path="url(#p2a7bcd0509)" d="M 248.210051 482.49 
L 253.812755 482.49 
L 253.812755 474.344361 
L 248.210051 474.344361 
z
" style="fill:#4c72b0;stroke:#ffffff;stroke-linejoin:miter;"/>
   </g>
   <g id="patch_13">
    <path clip-path="url(#p2a7bcd0509)" d="M 270.620867 482.49 
L 276.223571 482.49 
L 276.223571 474.344361 
L 270.620867 474.344361 
z
" style="fill:#4c72b0;stroke:#ffffff;stroke-linejoin:miter;"/>
   </g>
   <g id="patch_14">
    <path clip-path="url(#p2a7bcd0509)" d="M 293.031684 482.49 
L 298.634388 482.49 
L 298.634388 474.344361 
L 293.031684 474.344361 
z
" style="fill:#4c72b0;stroke:#ffffff;stroke-linejoin:miter;"/>
   </g>
   <g id="patch_15">
    <path clip-path="url(#p2a7bcd0509)" d="M 315.4425 482.49 
L 321.045204 482.49 
L 321.045204 473.76253 
L 315.4425 473.76253 
z
" style="fill:#4c72b0;stroke:#ffffff;stroke-linejoin:miter;"/>
   </g>
   <g id="patch_16">
    <path clip-path="url(#p2a7bcd0509)" d="M 337.853316 482.49 
L 343.45602 482.49 
L 343.45602 473.76253 
L 337.853316 473.76253 
z
" style="fill:#4c72b0;stroke:#ffffff;stroke-linejoin:miter;"/>
   </g>
   <g id="patch_17">
    <path clip-path="url(#p2a7bcd0509)" d="M 360.264133 482.49 
L 365.866837 482.49 
L 365.866837 473.76253 
L 360.264133 473.76253 
z
" style="fill:#4c72b0;stroke:#ffffff;stroke-linejoin:miter;"/>
   </g>
   <g id="patch_18">
    <path clip-path="url(#p2a7bcd0509)" d="M 382.674949 482.49 
L 388.277653 482.49 
L 388.277653 473.76253 
L 382.674949 473.76253 
z
" style="fill:#4c72b0;stroke:#ffffff;stroke-linejoin:miter;"/>
   </g>
   <g id="patch_19">
    <path clip-path="url(#p2a7bcd0509)" d="M 405.085765 482.49 
L 410.688469 482.49 
L 410.688469 473.76253 
L 405.085765 473.76253 
z
" style="fill:#4c72b0;stroke:#ffffff;stroke-linejoin:miter;"/>
   </g>
   <g id="patch_20">
    <path clip-path="url(#p2a7bcd0509)" d="M 427.496582 482.49 
L 433.099286 482.49 
L 433.099286 473.76253 
L 427.496582 473.76253 
z
" style="fill:#4c72b0;stroke:#ffffff;stroke-linejoin:miter;"/>
   </g>
   <g id="patch_21">
    <path clip-path="url(#p2a7bcd0509)" d="M 449.907398 482.49 
L 455.510102 482.49 
L 455.510102 473.76253 
L 449.907398 473.76253 
z
" style="fill:#4c72b0;stroke:#ffffff;stroke-linejoin:miter;"/>
   </g>
   <g id="patch_22">
    <path clip-path="url(#p2a7bcd0509)" d="M 472.318214 482.49 
L 477.920918 482.49 
L 477.920918 472.598867 
L 472.318214 472.598867 
z
" style="fill:#4c72b0;stroke:#ffffff;stroke-linejoin:miter;"/>
   </g>
   <g id="patch_23">
    <path clip-path="url(#p2a7bcd0509)" d="M 494.729031 482.49 
L 500.331735 482.49 
L 500.331735 470.271542 
L 494.729031 470.271542 
z
" style="fill:#4c72b0;stroke:#ffffff;stroke-linejoin:miter;"/>
   </g>
   <g id="patch_24">
    <path clip-path="url(#p2a7bcd0509)" d="M 517.139847 482.49 
L 522.742551 482.49 
L 522.742551 469.68971 
L 517.139847 469.68971 
z
" style="fill:#4c72b0;stroke:#ffffff;stroke-linejoin:miter;"/>
   </g>
   <g id="patch_25">
    <path clip-path="url(#p2a7bcd0509)" d="M 539.550663 482.49 
L 545.153367 482.49 
L 545.153367 469.68971 
L 539.550663 469.68971 
z
" style="fill:#4c72b0;stroke:#ffffff;stroke-linejoin:miter;"/>
   </g>
   <g id="patch_26">
    <path clip-path="url(#p2a7bcd0509)" d="M 561.96148 482.49 
L 567.564184 482.49 
L 567.564184 469.68971 
L 561.96148 469.68971 
z
" style="fill:#4c72b0;stroke:#ffffff;stroke-linejoin:miter;"/>
   </g>
   <g id="patch_27">
    <path clip-path="url(#p2a7bcd0509)" d="M 584.372296 482.49 
L 589.975 482.49 
L 589.975 469.68971 
L 584.372296 469.68971 
z
" style="fill:#4c72b0;stroke:#ffffff;stroke-linejoin:miter;"/>
   </g>
   <g id="patch_28">
    <path clip-path="url(#p2a7bcd0509)" d="M 606.783112 482.49 
L 612.385816 482.49 
L 612.385816 469.107879 
L 606.783112 469.107879 
z
" style="fill:#4c72b0;stroke:#ffffff;stroke-linejoin:miter;"/>
   </g>
   <g id="patch_29">
    <path clip-path="url(#p2a7bcd0509)" d="M 629.193929 482.49 
L 634.796633 482.49 
L 634.796633 469.107879 
L 629.193929 469.107879 
z
" style="fill:#4c72b0;stroke:#ffffff;stroke-linejoin:miter;"/>
   </g>
   <g id="patch_30">
    <path clip-path="url(#p2a7bcd0509)" d="M 651.604745 482.49 
L 657.207449 482.49 
L 657.207449 467.944216 
L 651.604745 467.944216 
z
" style="fill:#4c72b0;stroke:#ffffff;stroke-linejoin:miter;"/>
   </g>
   <g id="patch_31">
    <path clip-path="url(#p2a7bcd0509)" d="M 674.015561 482.49 
L 679.618265 482.49 
L 679.618265 467.362385 
L 674.015561 467.362385 
z
" style="fill:#4c72b0;stroke:#ffffff;stroke-linejoin:miter;"/>
   </g>
   <g id="patch_32">
    <path clip-path="url(#p2a7bcd0509)" d="M 696.426378 482.49 
L 702.029082 482.49 
L 702.029082 465.616891 
L 696.426378 465.616891 
z
" style="fill:#4c72b0;stroke:#ffffff;stroke-linejoin:miter;"/>
   </g>
   <g id="patch_33">
    <path clip-path="url(#p2a7bcd0509)" d="M 718.837194 482.49 
L 724.439898 482.49 
L 724.439898 463.289566 
L 718.837194 463.289566 
z
" style="fill:#4c72b0;stroke:#ffffff;stroke-linejoin:miter;"/>
   </g>
   <g id="patch_34">
    <path clip-path="url(#p2a7bcd0509)" d="M 741.24801 482.49 
L 746.850714 482.49 
L 746.850714 458.634915 
L 741.24801 458.634915 
z
" style="fill:#4c72b0;stroke:#ffffff;stroke-linejoin:miter;"/>
   </g>
   <g id="patch_35">
    <path clip-path="url(#p2a7bcd0509)" d="M 763.658827 482.49 
L 769.261531 482.49 
L 769.261531 452.23477 
L 763.658827 452.23477 
z
" style="fill:#4c72b0;stroke:#ffffff;stroke-linejoin:miter;"/>
   </g>
   <g id="patch_36">
    <path clip-path="url(#p2a7bcd0509)" d="M 786.069643 482.49 
L 791.672347 482.49 
L 791.672347 448.161951 
L 786.069643 448.161951 
z
" style="fill:#4c72b0;stroke:#ffffff;stroke-linejoin:miter;"/>
   </g>
   <g id="patch_37">
    <path clip-path="url(#p2a7bcd0509)" d="M 808.480459 482.49 
L 814.083163 482.49 
L 814.083163 445.834625 
L 808.480459 445.834625 
z
" style="fill:#4c72b0;stroke:#ffffff;stroke-linejoin:miter;"/>
   </g>
   <g id="patch_38">
    <path clip-path="url(#p2a7bcd0509)" d="M 830.891276 482.49 
L 836.49398 482.49 
L 836.49398 439.43448 
L 830.891276 439.43448 
z
" style="fill:#4c72b0;stroke:#ffffff;stroke-linejoin:miter;"/>
   </g>
   <g id="patch_39">
    <path clip-path="url(#p2a7bcd0509)" d="M 853.302092 482.49 
L 858.904796 482.49 
L 858.904796 435.943492 
L 853.302092 435.943492 
z
" style="fill:#4c72b0;stroke:#ffffff;stroke-linejoin:miter;"/>
   </g>
   <g id="patch_40">
    <path clip-path="url(#p2a7bcd0509)" d="M 875.712908 482.49 
L 881.315612 482.49 
L 881.315612 424.306865 
L 875.712908 424.306865 
z
" style="fill:#4c72b0;stroke:#ffffff;stroke-linejoin:miter;"/>
   </g>
   <g id="patch_41">
    <path clip-path="url(#p2a7bcd0509)" d="M 898.123724 482.49 
L 903.726429 482.49 
L 903.726429 417.324889 
L 898.123724 417.324889 
z
" style="fill:#4c72b0;stroke:#ffffff;stroke-linejoin:miter;"/>
   </g>
   <g id="patch_42">
    <path clip-path="url(#p2a7bcd0509)" d="M 920.534541 482.49 
L 926.137245 482.49 
L 926.137245 409.17925 
L 920.534541 409.17925 
z
" style="fill:#4c72b0;stroke:#ffffff;stroke-linejoin:miter;"/>
   </g>
   <g id="patch_43">
    <path clip-path="url(#p2a7bcd0509)" d="M 942.945357 482.49 
L 948.548061 482.49 
L 948.548061 391.72431 
L 942.945357 391.72431 
z
" style="fill:#4c72b0;stroke:#ffffff;stroke-linejoin:miter;"/>
   </g>
   <g id="patch_44">
    <path clip-path="url(#p2a7bcd0509)" d="M 965.356173 482.49 
L 970.958878 482.49 
L 970.958878 367.869225 
L 965.356173 367.869225 
z
" style="fill:#4c72b0;stroke:#ffffff;stroke-linejoin:miter;"/>
   </g>
   <g id="patch_45">
    <path clip-path="url(#p2a7bcd0509)" d="M 987.76699 482.49 
L 993.369694 482.49 
L 993.369694 337.613995 
L 987.76699 337.613995 
z
" style="fill:#4c72b0;stroke:#ffffff;stroke-linejoin:miter;"/>
   </g>
   <g id="patch_46">
    <path clip-path="url(#p2a7bcd0509)" d="M 1010.177806 482.49 
L 1015.78051 482.49 
L 1015.78051 309.104259 
L 1010.177806 309.104259 
z
" style="fill:#4c72b0;stroke:#ffffff;stroke-linejoin:miter;"/>
   </g>
   <g id="patch_47">
    <path clip-path="url(#p2a7bcd0509)" d="M 1032.588622 482.49 
L 1038.191327 482.49 
L 1038.191327 264.303245 
L 1032.588622 264.303245 
z
" style="fill:#4c72b0;stroke:#ffffff;stroke-linejoin:miter;"/>
   </g>
   <g id="patch_48">
    <path clip-path="url(#p2a7bcd0509)" d="M 1054.999439 482.49 
L 1060.602143 482.49 
L 1060.602143 218.338568 
L 1054.999439 218.338568 
z
" style="fill:#4c72b0;stroke:#ffffff;stroke-linejoin:miter;"/>
   </g>
   <g id="patch_49">
    <path clip-path="url(#p2a7bcd0509)" d="M 1077.410255 482.49 
L 1083.012959 482.49 
L 1083.012959 482.49 
L 1077.410255 482.49 
z
" style="fill:#4c72b0;stroke:#ffffff;stroke-linejoin:miter;"/>
   </g>
   <g id="patch_50">
    <path clip-path="url(#p2a7bcd0509)" d="M 1099.821071 482.49 
L 1105.423776 482.49 
L 1105.423776 482.49 
L 1099.821071 482.49 
z
" style="fill:#4c72b0;stroke:#ffffff;stroke-linejoin:miter;"/>
   </g>
   <g id="patch_51">
    <path clip-path="url(#p2a7bcd0509)" d="M 1122.231888 482.49 
L 1127.834592 482.49 
L 1127.834592 482.49 
L 1122.231888 482.49 
z
" style="fill:#4c72b0;stroke:#ffffff;stroke-linejoin:miter;"/>
   </g>
   <g id="patch_52">
    <path clip-path="url(#p2a7bcd0509)" d="M 52.115408 482.49 
L 57.718112 482.49 
L 57.718112 482.49 
L 52.115408 482.49 
z
" style="fill:#dd8452;stroke:#ffffff;stroke-linejoin:miter;"/>
   </g>
   <g id="patch_53">
    <path clip-path="url(#p2a7bcd0509)" d="M 74.526224 482.49 
L 80.128929 482.49 
L 80.128929 482.49 
L 74.526224 482.49 
z
" style="fill:#dd8452;stroke:#ffffff;stroke-linejoin:miter;"/>
   </g>
   <g id="patch_54">
    <path clip-path="url(#p2a7bcd0509)" d="M 96.937041 482.49 
L 102.539745 482.49 
L 102.539745 482.49 
L 96.937041 482.49 
z
" style="fill:#dd8452;stroke:#ffffff;stroke-linejoin:miter;"/>
   </g>
   <g id="patch_55">
    <path clip-path="url(#p2a7bcd0509)" d="M 119.347857 482.49 
L 124.950561 482.49 
L 124.950561 482.49 
L 119.347857 482.49 
z
" style="fill:#dd8452;stroke:#ffffff;stroke-linejoin:miter;"/>
   </g>
   <g id="patch_56">
    <path clip-path="url(#p2a7bcd0509)" d="M 141.758673 482.49 
L 147.361378 482.49 
L 147.361378 482.49 
L 141.758673 482.49 
z
" style="fill:#dd8452;stroke:#ffffff;stroke-linejoin:miter;"/>
   </g>
   <g id="patch_57">
    <path clip-path="url(#p2a7bcd0509)" d="M 164.16949 482.49 
L 169.772194 482.49 
L 169.772194 482.49 
L 164.16949 482.49 
z
" style="fill:#dd8452;stroke:#ffffff;stroke-linejoin:miter;"/>
   </g>
   <g id="patch_58">
    <path clip-path="url(#p2a7bcd0509)" d="M 186.580306 482.49 
L 192.18301 482.49 
L 192.18301 482.49 
L 186.580306 482.49 
z
" style="fill:#dd8452;stroke:#ffffff;stroke-linejoin:miter;"/>
   </g>
   <g id="patch_59">
    <path clip-path="url(#p2a7bcd0509)" d="M 208.991122 482.49 
L 214.593827 482.49 
L 214.593827 482.49 
L 208.991122 482.49 
z
" style="fill:#dd8452;stroke:#ffffff;stroke-linejoin:miter;"/>
   </g>
   <g id="patch_60">
    <path clip-path="url(#p2a7bcd0509)" d="M 231.401939 482.49 
L 237.004643 482.49 
L 237.004643 482.49 
L 231.401939 482.49 
z
" style="fill:#dd8452;stroke:#ffffff;stroke-linejoin:miter;"/>
   </g>
   <g id="patch_61">
    <path clip-path="url(#p2a7bcd0509)" d="M 253.812755 482.49 
L 259.415459 482.49 
L 259.415459 482.49 
L 253.812755 482.49 
z
" style="fill:#dd8452;stroke:#ffffff;stroke-linejoin:miter;"/>
   </g>
   <g id="patch_62">
    <path clip-path="url(#p2a7bcd0509)" d="M 276.223571 482.49 
L 281.826276 482.49 
L 281.826276 482.49 
L 276.223571 482.49 
z
" style="fill:#dd8452;stroke:#ffffff;stroke-linejoin:miter;"/>
   </g>
   <g id="patch_63">
    <path clip-path="url(#p2a7bcd0509)" d="M 298.634388 482.49 
L 304.237092 482.49 
L 304.237092 482.49 
L 298.634388 482.49 
z
" style="fill:#dd8452;stroke:#ffffff;stroke-linejoin:miter;"/>
   </g>
   <g id="patch_64">
    <path clip-path="url(#p2a7bcd0509)" d="M 321.045204 482.49 
L 326.647908 482.49 
L 326.647908 482.49 
L 321.045204 482.49 
z
" style="fill:#dd8452;stroke:#ffffff;stroke-linejoin:miter;"/>
   </g>
   <g id="patch_65">
    <path clip-path="url(#p2a7bcd0509)" d="M 343.45602 482.49 
L 349.058724 482.49 
L 349.058724 482.49 
L 343.45602 482.49 
z
" style="fill:#dd8452;stroke:#ffffff;stroke-linejoin:miter;"/>
   </g>
   <g id="patch_66">
    <path clip-path="url(#p2a7bcd0509)" d="M 365.866837 482.49 
L 371.469541 482.49 
L 371.469541 482.49 
L 365.866837 482.49 
z
" style="fill:#dd8452;stroke:#ffffff;stroke-linejoin:miter;"/>
   </g>
   <g id="patch_67">
    <path clip-path="url(#p2a7bcd0509)" d="M 388.277653 482.49 
L 393.880357 482.49 
L 393.880357 482.49 
L 388.277653 482.49 
z
" style="fill:#dd8452;stroke:#ffffff;stroke-linejoin:miter;"/>
   </g>
   <g id="patch_68">
    <path clip-path="url(#p2a7bcd0509)" d="M 410.688469 482.49 
L 416.291173 482.49 
L 416.291173 482.49 
L 410.688469 482.49 
z
" style="fill:#dd8452;stroke:#ffffff;stroke-linejoin:miter;"/>
   </g>
   <g id="patch_69">
    <path clip-path="url(#p2a7bcd0509)" d="M 433.099286 482.49 
L 438.70199 482.49 
L 438.70199 482.49 
L 433.099286 482.49 
z
" style="fill:#dd8452;stroke:#ffffff;stroke-linejoin:miter;"/>
   </g>
   <g id="patch_70">
    <path clip-path="url(#p2a7bcd0509)" d="M 455.510102 482.49 
L 461.112806 482.49 
L 461.112806 482.49 
L 455.510102 482.49 
z
" style="fill:#dd8452;stroke:#ffffff;stroke-linejoin:miter;"/>
   </g>
   <g id="patch_71">
    <path clip-path="url(#p2a7bcd0509)" d="M 477.920918 482.49 
L 483.523622 482.49 
L 483.523622 482.49 
L 477.920918 482.49 
z
" style="fill:#dd8452;stroke:#ffffff;stroke-linejoin:miter;"/>
   </g>
   <g id="patch_72">
    <path clip-path="url(#p2a7bcd0509)" d="M 500.331735 482.49 
L 505.934439 482.49 
L 505.934439 482.49 
L 500.331735 482.49 
z
" style="fill:#dd8452;stroke:#ffffff;stroke-linejoin:miter;"/>
   </g>
   <g id="patch_73">
    <path clip-path="url(#p2a7bcd0509)" d="M 522.742551 482.49 
L 528.345255 482.49 
L 528.345255 482.49 
L 522.742551 482.49 
z
" style="fill:#dd8452;stroke:#ffffff;stroke-linejoin:miter;"/>
   </g>
   <g id="patch_74">
    <path clip-path="url(#p2a7bcd0509)" d="M 545.153367 482.49 
L 550.756071 482.49 
L 550.756071 482.49 
L 545.153367 482.49 
z
" style="fill:#dd8452;stroke:#ffffff;stroke-linejoin:miter;"/>
   </g>
   <g id="patch_75">
    <path clip-path="url(#p2a7bcd0509)" d="M 567.564184 482.49 
L 573.166888 482.49 
L 573.166888 482.49 
L 567.564184 482.49 
z
" style="fill:#dd8452;stroke:#ffffff;stroke-linejoin:miter;"/>
   </g>
   <g id="patch_76">
    <path clip-path="url(#p2a7bcd0509)" d="M 589.975 482.49 
L 595.577704 482.49 
L 595.577704 482.49 
L 589.975 482.49 
z
" style="fill:#dd8452;stroke:#ffffff;stroke-linejoin:miter;"/>
   </g>
   <g id="patch_77">
    <path clip-path="url(#p2a7bcd0509)" d="M 612.385816 482.49 
L 617.98852 482.49 
L 617.98852 482.49 
L 612.385816 482.49 
z
" style="fill:#dd8452;stroke:#ffffff;stroke-linejoin:miter;"/>
   </g>
   <g id="patch_78">
    <path clip-path="url(#p2a7bcd0509)" d="M 634.796633 482.49 
L 640.399337 482.49 
L 640.399337 482.49 
L 634.796633 482.49 
z
" style="fill:#dd8452;stroke:#ffffff;stroke-linejoin:miter;"/>
   </g>
   <g id="patch_79">
    <path clip-path="url(#p2a7bcd0509)" d="M 657.207449 482.49 
L 662.810153 482.49 
L 662.810153 482.49 
L 657.207449 482.49 
z
" style="fill:#dd8452;stroke:#ffffff;stroke-linejoin:miter;"/>
   </g>
   <g id="patch_80">
    <path clip-path="url(#p2a7bcd0509)" d="M 679.618265 482.49 
L 685.220969 482.49 
L 685.220969 482.49 
L 679.618265 482.49 
z
" style="fill:#dd8452;stroke:#ffffff;stroke-linejoin:miter;"/>
   </g>
   <g id="patch_81">
    <path clip-path="url(#p2a7bcd0509)" d="M 702.029082 482.49 
L 707.631786 482.49 
L 707.631786 482.49 
L 702.029082 482.49 
z
" style="fill:#dd8452;stroke:#ffffff;stroke-linejoin:miter;"/>
   </g>
   <g id="patch_82">
    <path clip-path="url(#p2a7bcd0509)" d="M 724.439898 482.49 
L 730.042602 482.49 
L 730.042602 482.49 
L 724.439898 482.49 
z
" style="fill:#dd8452;stroke:#ffffff;stroke-linejoin:miter;"/>
   </g>
   <g id="patch_83">
    <path clip-path="url(#p2a7bcd0509)" d="M 746.850714 482.49 
L 752.453418 482.49 
L 752.453418 482.49 
L 746.850714 482.49 
z
" style="fill:#dd8452;stroke:#ffffff;stroke-linejoin:miter;"/>
   </g>
   <g id="patch_84">
    <path clip-path="url(#p2a7bcd0509)" d="M 769.261531 482.49 
L 774.864235 482.49 
L 774.864235 482.49 
L 769.261531 482.49 
z
" style="fill:#dd8452;stroke:#ffffff;stroke-linejoin:miter;"/>
   </g>
   <g id="patch_85">
    <path clip-path="url(#p2a7bcd0509)" d="M 791.672347 482.49 
L 797.275051 482.49 
L 797.275051 482.49 
L 791.672347 482.49 
z
" style="fill:#dd8452;stroke:#ffffff;stroke-linejoin:miter;"/>
   </g>
   <g id="patch_86">
    <path clip-path="url(#p2a7bcd0509)" d="M 814.083163 482.49 
L 819.685867 482.49 
L 819.685867 482.49 
L 814.083163 482.49 
z
" style="fill:#dd8452;stroke:#ffffff;stroke-linejoin:miter;"/>
   </g>
   <g id="patch_87">
    <path clip-path="url(#p2a7bcd0509)" d="M 836.49398 482.49 
L 842.096684 482.49 
L 842.096684 482.49 
L 836.49398 482.49 
z
" style="fill:#dd8452;stroke:#ffffff;stroke-linejoin:miter;"/>
   </g>
   <g id="patch_88">
    <path clip-path="url(#p2a7bcd0509)" d="M 858.904796 482.49 
L 864.5075 482.49 
L 864.5075 482.49 
L 858.904796 482.49 
z
" style="fill:#dd8452;stroke:#ffffff;stroke-linejoin:miter;"/>
   </g>
   <g id="patch_89">
    <path clip-path="url(#p2a7bcd0509)" d="M 881.315612 482.49 
L 886.918316 482.49 
L 886.918316 482.49 
L 881.315612 482.49 
z
" style="fill:#dd8452;stroke:#ffffff;stroke-linejoin:miter;"/>
   </g>
   <g id="patch_90">
    <path clip-path="url(#p2a7bcd0509)" d="M 903.726429 482.49 
L 909.329133 482.49 
L 909.329133 482.49 
L 903.726429 482.49 
z
" style="fill:#dd8452;stroke:#ffffff;stroke-linejoin:miter;"/>
   </g>
   <g id="patch_91">
    <path clip-path="url(#p2a7bcd0509)" d="M 926.137245 482.49 
L 931.739949 482.49 
L 931.739949 482.49 
L 926.137245 482.49 
z
" style="fill:#dd8452;stroke:#ffffff;stroke-linejoin:miter;"/>
   </g>
   <g id="patch_92">
    <path clip-path="url(#p2a7bcd0509)" d="M 948.548061 482.49 
L 954.150765 482.49 
L 954.150765 482.49 
L 948.548061 482.49 
z
" style="fill:#dd8452;stroke:#ffffff;stroke-linejoin:miter;"/>
   </g>
   <g id="patch_93">
    <path clip-path="url(#p2a7bcd0509)" d="M 970.958878 482.49 
L 976.561582 482.49 
L 976.561582 482.49 
L 970.958878 482.49 
z
" style="fill:#dd8452;stroke:#ffffff;stroke-linejoin:miter;"/>
   </g>
   <g id="patch_94">
    <path clip-path="url(#p2a7bcd0509)" d="M 993.369694 482.49 
L 998.972398 482.49 
L 998.972398 482.49 
L 993.369694 482.49 
z
" style="fill:#dd8452;stroke:#ffffff;stroke-linejoin:miter;"/>
   </g>
   <g id="patch_95">
    <path clip-path="url(#p2a7bcd0509)" d="M 1015.78051 482.49 
L 1021.383214 482.49 
L 1021.383214 482.49 
L 1015.78051 482.49 
z
" style="fill:#dd8452;stroke:#ffffff;stroke-linejoin:miter;"/>
   </g>
   <g id="patch_96">
    <path clip-path="url(#p2a7bcd0509)" d="M 1038.191327 482.49 
L 1043.794031 482.49 
L 1043.794031 482.49 
L 1038.191327 482.49 
z
" style="fill:#dd8452;stroke:#ffffff;stroke-linejoin:miter;"/>
   </g>
   <g id="patch_97">
    <path clip-path="url(#p2a7bcd0509)" d="M 1060.602143 482.49 
L 1066.204847 482.49 
L 1066.204847 482.49 
L 1060.602143 482.49 
z
" style="fill:#dd8452;stroke:#ffffff;stroke-linejoin:miter;"/>
   </g>
   <g id="patch_98">
    <path clip-path="url(#p2a7bcd0509)" d="M 1083.012959 482.49 
L 1088.615663 482.49 
L 1088.615663 174.561124 
L 1083.012959 174.561124 
z
" style="fill:#dd8452;stroke:#ffffff;stroke-linejoin:miter;"/>
   </g>
   <g id="patch_99">
    <path clip-path="url(#p2a7bcd0509)" d="M 1105.423776 482.49 
L 1111.02648 482.49 
L 1111.02648 112.196512 
L 1105.423776 112.196512 
z
" style="fill:#dd8452;stroke:#ffffff;stroke-linejoin:miter;"/>
   </g>
   <g id="patch_100">
    <path clip-path="url(#p2a7bcd0509)" d="M 1127.834592 482.49 
L 1133.437296 482.49 
L 1133.437296 37.242581 
L 1127.834592 37.242581 
z
" style="fill:#dd8452;stroke:#ffffff;stroke-linejoin:miter;"/>
   </g>
   <g id="line2d_59">
    <path clip-path="url(#p2a7bcd0509)" d="M 52.115408 482.432442 
L 74.526224 482.420485 
L 96.937041 482.406052 
L 119.347857 482.388632 
L 141.758673 482.367609 
L 164.16949 482.342239 
L 186.580306 482.311629 
L 208.991122 482.274697 
L 231.401939 482.230143 
L 253.812755 482.176399 
L 276.223571 482.111575 
L 298.634388 482.033395 
L 321.045204 481.939116 
L 343.45602 481.825432 
L 365.866837 481.688365 
L 388.277653 481.523118 
L 410.688469 481.323917 
L 433.099286 481.083809 
L 455.510102 480.79442 
L 477.920918 480.445669 
L 500.331735 480.025418 
L 522.742551 479.519056 
L 545.153367 478.908996 
L 567.564184 478.174071 
L 589.975 477.288806 
L 612.385816 476.222549 
L 634.796633 474.938415 
L 657.207449 473.39203 
L 679.618265 471.53001 
L 702.029082 469.28814 
L 724.439898 466.589186 
L 746.850714 463.340256 
L 769.261531 459.429649 
L 791.672347 454.723047 
L 814.083163 449.058957 
L 836.49398 442.243228 
L 858.904796 434.042474 
L 881.315612 424.176164 
L 903.726429 412.307136 
L 926.137245 398.030197 
L 948.548061 380.85845 
L 970.958878 360.206863 
L 993.369694 335.372563 
L 1015.78051 305.511177 
L 1038.191327 269.608437 
L 1060.602143 226.446111 
L 1083.012959 174.561124 
L 1105.423776 112.196512 
L 1127.834592 37.242581 
" style="fill:none;stroke:#ff0000;stroke-linecap:round;stroke-width:1.5;"/>
   </g>
   <g id="patch_101">
    <path d="M 40.91 482.49 
L 40.91 14.98021 
" style="fill:none;stroke:#ffffff;stroke-linecap:square;stroke-linejoin:miter;stroke-width:1.25;"/>
   </g>
   <g id="patch_102">
    <path d="M 1139.04 482.49 
L 1139.04 14.98021 
" style="fill:none;stroke:#ffffff;stroke-linecap:square;stroke-linejoin:miter;stroke-width:1.25;"/>
   </g>
   <g id="patch_103">
    <path d="M 40.91 482.49 
L 1139.04 482.49 
" style="fill:none;stroke:#ffffff;stroke-linecap:square;stroke-linejoin:miter;stroke-width:1.25;"/>
   </g>
   <g id="patch_104">
    <path d="M 40.91 14.98021 
L 1139.04 14.98021 
" style="fill:none;stroke:#ffffff;stroke-linecap:square;stroke-linejoin:miter;stroke-width:1.25;"/>
   </g>
   <g id="legend_1">
    <g id="patch_105">
     <path d="M 48.61 70.588648 
L 134.5475 70.588648 
Q 136.7475 70.588648 136.7475 68.388648 
L 136.7475 22.68021 
Q 136.7475 20.48021 134.5475 20.48021 
L 48.61 20.48021 
Q 46.41 20.48021 46.41 22.68021 
L 46.41 68.388648 
Q 46.41 70.588648 48.61 70.588648 
z
" style="fill:#eaeaf2;opacity:0.8;stroke:#cccccc;stroke-linejoin:miter;"/>
    </g>
    <g id="line2d_60">
     <path d="M 50.81 28.903804 
L 72.81 28.903804 
" style="fill:none;stroke:#ff0000;stroke-linecap:round;stroke-width:1.5;"/>
    </g>
    <g id="line2d_61"/>
    <g id="text_60">
     <!-- Estimate -->
     <defs>
      <path d="M 7.90625 0 
L 7.90625 71.578125 
L 59.671875 71.578125 
L 59.671875 63.140625 
L 17.390625 63.140625 
L 17.390625 41.21875 
L 56.984375 41.21875 
L 56.984375 32.8125 
L 17.390625 32.8125 
L 17.390625 8.453125 
L 61.328125 8.453125 
L 61.328125 0 
z
" id="ArialMT-69"/>
      <path d="M 3.078125 15.484375 
L 11.765625 16.84375 
Q 12.5 11.625 15.84375 8.84375 
Q 19.1875 6.0625 25.203125 6.0625 
Q 31.25 6.0625 34.171875 8.515625 
Q 37.109375 10.984375 37.109375 14.3125 
Q 37.109375 17.28125 34.515625 19 
Q 32.71875 20.171875 25.53125 21.96875 
Q 15.875 24.421875 12.140625 26.203125 
Q 8.40625 27.984375 6.46875 31.125 
Q 4.546875 34.28125 4.546875 38.09375 
Q 4.546875 41.546875 6.125 44.5 
Q 7.71875 47.46875 10.453125 49.421875 
Q 12.5 50.921875 16.03125 51.96875 
Q 19.578125 53.03125 23.640625 53.03125 
Q 29.734375 53.03125 34.34375 51.265625 
Q 38.96875 49.515625 41.15625 46.5 
Q 43.359375 43.5 44.1875 38.484375 
L 35.59375 37.3125 
Q 35.015625 41.3125 32.203125 43.546875 
Q 29.390625 45.796875 24.265625 45.796875 
Q 18.21875 45.796875 15.625 43.796875 
Q 13.03125 41.796875 13.03125 39.109375 
Q 13.03125 37.40625 14.109375 36.03125 
Q 15.1875 34.625 17.484375 33.6875 
Q 18.796875 33.203125 25.25 31.453125 
Q 34.578125 28.953125 38.25 27.359375 
Q 41.9375 25.78125 44.03125 22.75 
Q 46.140625 19.734375 46.140625 15.234375 
Q 46.140625 10.84375 43.578125 6.953125 
Q 41.015625 3.078125 36.171875 0.953125 
Q 31.34375 -1.171875 25.25 -1.171875 
Q 15.140625 -1.171875 9.84375 3.03125 
Q 4.546875 7.234375 3.078125 15.484375 
z
" id="ArialMT-115"/>
      <path d="M 6.640625 61.46875 
L 6.640625 71.578125 
L 15.4375 71.578125 
L 15.4375 61.46875 
z
M 6.640625 0 
L 6.640625 51.859375 
L 15.4375 51.859375 
L 15.4375 0 
z
" id="ArialMT-105"/>
      <path d="M 6.59375 0 
L 6.59375 51.859375 
L 14.453125 51.859375 
L 14.453125 44.578125 
Q 16.890625 48.390625 20.9375 50.703125 
Q 25 53.03125 30.171875 53.03125 
Q 35.9375 53.03125 39.625 50.640625 
Q 43.3125 48.25 44.828125 43.953125 
Q 50.984375 53.03125 60.84375 53.03125 
Q 68.5625 53.03125 72.703125 48.75 
Q 76.859375 44.484375 76.859375 35.59375 
L 76.859375 0 
L 68.109375 0 
L 68.109375 32.671875 
Q 68.109375 37.9375 67.25 40.25 
Q 66.40625 42.578125 64.15625 43.984375 
Q 61.921875 45.40625 58.890625 45.40625 
Q 53.421875 45.40625 49.796875 41.765625 
Q 46.1875 38.140625 46.1875 30.125 
L 46.1875 0 
L 37.40625 0 
L 37.40625 33.6875 
Q 37.40625 39.546875 35.25 42.46875 
Q 33.109375 45.40625 28.21875 45.40625 
Q 24.515625 45.40625 21.359375 43.453125 
Q 18.21875 41.5 16.796875 37.734375 
Q 15.375 33.984375 15.375 26.90625 
L 15.375 0 
z
" id="ArialMT-109"/>
     </defs>
     <g style="fill:#262626;" transform="translate(81.61 32.753804)scale(0.11 -0.11)">
      <use xlink:href="#ArialMT-69"/>
      <use x="66.699219" xlink:href="#ArialMT-115"/>
      <use x="116.699219" xlink:href="#ArialMT-116"/>
      <use x="144.482422" xlink:href="#ArialMT-105"/>
      <use x="166.699219" xlink:href="#ArialMT-109"/>
      <use x="250" xlink:href="#ArialMT-97"/>
      <use x="305.615234" xlink:href="#ArialMT-116"/>
      <use x="333.398438" xlink:href="#ArialMT-101"/>
     </g>
    </g>
    <g id="patch_106">
     <path d="M 50.81 48.313648 
L 72.81 48.313648 
L 72.81 40.613648 
L 50.81 40.613648 
z
" style="fill:#4c72b0;stroke:#ffffff;stroke-linejoin:miter;"/>
    </g>
    <g id="text_61">
     <!-- Confirmed -->
     <defs>
      <path d="M 58.796875 25.09375 
L 68.265625 22.703125 
Q 65.28125 11.03125 57.546875 4.90625 
Q 49.8125 -1.21875 38.625 -1.21875 
Q 27.046875 -1.21875 19.796875 3.484375 
Q 12.546875 8.203125 8.765625 17.140625 
Q 4.984375 26.078125 4.984375 36.328125 
Q 4.984375 47.515625 9.25 55.828125 
Q 13.53125 64.15625 21.40625 68.46875 
Q 29.296875 72.796875 38.765625 72.796875 
Q 49.515625 72.796875 56.828125 67.328125 
Q 64.15625 61.859375 67.046875 51.953125 
L 57.71875 49.75 
Q 55.21875 57.5625 50.484375 61.125 
Q 45.75 64.703125 38.578125 64.703125 
Q 30.328125 64.703125 24.78125 60.734375 
Q 19.234375 56.78125 16.984375 50.109375 
Q 14.75 43.453125 14.75 36.375 
Q 14.75 27.25 17.40625 20.4375 
Q 20.0625 13.625 25.671875 10.25 
Q 31.296875 6.890625 37.84375 6.890625 
Q 45.796875 6.890625 51.3125 11.46875 
Q 56.84375 16.0625 58.796875 25.09375 
z
" id="ArialMT-67"/>
      <path d="M 3.328125 25.921875 
Q 3.328125 40.328125 11.328125 47.265625 
Q 18.015625 53.03125 27.640625 53.03125 
Q 38.328125 53.03125 45.109375 46.015625 
Q 51.90625 39.015625 51.90625 26.65625 
Q 51.90625 16.65625 48.90625 10.90625 
Q 45.90625 5.171875 40.15625 2 
Q 34.421875 -1.171875 27.640625 -1.171875 
Q 16.75 -1.171875 10.03125 5.8125 
Q 3.328125 12.796875 3.328125 25.921875 
z
M 12.359375 25.921875 
Q 12.359375 15.96875 16.703125 11.015625 
Q 21.046875 6.0625 27.640625 6.0625 
Q 34.1875 6.0625 38.53125 11.03125 
Q 42.875 16.015625 42.875 26.21875 
Q 42.875 35.84375 38.5 40.796875 
Q 34.125 45.75 27.640625 45.75 
Q 21.046875 45.75 16.703125 40.8125 
Q 12.359375 35.890625 12.359375 25.921875 
z
" id="ArialMT-111"/>
      <path d="M 6.59375 0 
L 6.59375 51.859375 
L 14.5 51.859375 
L 14.5 44.484375 
Q 20.21875 53.03125 31 53.03125 
Q 35.6875 53.03125 39.625 51.34375 
Q 43.5625 49.65625 45.515625 46.921875 
Q 47.46875 44.1875 48.25 40.4375 
Q 48.734375 37.984375 48.734375 31.890625 
L 48.734375 0 
L 39.9375 0 
L 39.9375 31.546875 
Q 39.9375 36.921875 38.90625 39.578125 
Q 37.890625 42.234375 35.28125 43.8125 
Q 32.671875 45.40625 29.15625 45.40625 
Q 23.53125 45.40625 19.453125 41.84375 
Q 15.375 38.28125 15.375 28.328125 
L 15.375 0 
z
" id="ArialMT-110"/>
      <path d="M 8.6875 0 
L 8.6875 45.015625 
L 0.921875 45.015625 
L 0.921875 51.859375 
L 8.6875 51.859375 
L 8.6875 57.375 
Q 8.6875 62.59375 9.625 65.140625 
Q 10.890625 68.5625 14.078125 70.671875 
Q 17.28125 72.796875 23.046875 72.796875 
Q 26.765625 72.796875 31.25 71.921875 
L 29.9375 64.265625 
Q 27.203125 64.75 24.75 64.75 
Q 20.75 64.75 19.09375 63.03125 
Q 17.4375 61.328125 17.4375 56.640625 
L 17.4375 51.859375 
L 27.546875 51.859375 
L 27.546875 45.015625 
L 17.4375 45.015625 
L 17.4375 0 
z
" id="ArialMT-102"/>
      <path d="M 6.5 0 
L 6.5 51.859375 
L 14.40625 51.859375 
L 14.40625 44 
Q 17.4375 49.515625 20 51.265625 
Q 22.5625 53.03125 25.640625 53.03125 
Q 30.078125 53.03125 34.671875 50.203125 
L 31.640625 42.046875 
Q 28.421875 43.953125 25.203125 43.953125 
Q 22.3125 43.953125 20.015625 42.21875 
Q 17.71875 40.484375 16.75 37.40625 
Q 15.28125 32.71875 15.28125 27.15625 
L 15.28125 0 
z
" id="ArialMT-114"/>
      <path d="M 40.234375 0 
L 40.234375 6.546875 
Q 35.296875 -1.171875 25.734375 -1.171875 
Q 19.53125 -1.171875 14.328125 2.25 
Q 9.125 5.671875 6.265625 11.796875 
Q 3.421875 17.921875 3.421875 25.875 
Q 3.421875 33.640625 6 39.96875 
Q 8.59375 46.296875 13.765625 49.65625 
Q 18.953125 53.03125 25.34375 53.03125 
Q 30.03125 53.03125 33.6875 51.046875 
Q 37.359375 49.078125 39.65625 45.90625 
L 39.65625 71.578125 
L 48.390625 71.578125 
L 48.390625 0 
z
M 12.453125 25.875 
Q 12.453125 15.921875 16.640625 10.984375 
Q 20.84375 6.0625 26.5625 6.0625 
Q 32.328125 6.0625 36.34375 10.765625 
Q 40.375 15.484375 40.375 25.140625 
Q 40.375 35.796875 36.265625 40.765625 
Q 32.171875 45.75 26.171875 45.75 
Q 20.3125 45.75 16.375 40.96875 
Q 12.453125 36.1875 12.453125 25.875 
z
" id="ArialMT-100"/>
     </defs>
     <g style="fill:#262626;" transform="translate(81.61 48.313648)scale(0.11 -0.11)">
      <use xlink:href="#ArialMT-67"/>
      <use x="72.216797" xlink:href="#ArialMT-111"/>
      <use x="127.832031" xlink:href="#ArialMT-110"/>
      <use x="183.447266" xlink:href="#ArialMT-102"/>
      <use x="211.230469" xlink:href="#ArialMT-105"/>
      <use x="233.447266" xlink:href="#ArialMT-114"/>
      <use x="266.748047" xlink:href="#ArialMT-109"/>
      <use x="350.048828" xlink:href="#ArialMT-101"/>
      <use x="405.664062" xlink:href="#ArialMT-100"/>
     </g>
    </g>
    <g id="patch_107">
     <path d="M 50.81 63.873492 
L 72.81 63.873492 
L 72.81 56.173492 
L 50.81 56.173492 
z
" style="fill:#dd8452;stroke:#ffffff;stroke-linejoin:miter;"/>
    </g>
    <g id="text_62">
     <!-- Projected -->
     <defs>
      <path d="M 7.71875 0 
L 7.71875 71.578125 
L 34.71875 71.578125 
Q 41.84375 71.578125 45.609375 70.90625 
Q 50.875 70.015625 54.4375 67.546875 
Q 58.015625 65.09375 60.1875 60.640625 
Q 62.359375 56.203125 62.359375 50.875 
Q 62.359375 41.75 56.546875 35.421875 
Q 50.734375 29.109375 35.546875 29.109375 
L 17.1875 29.109375 
L 17.1875 0 
z
M 17.1875 37.546875 
L 35.6875 37.546875 
Q 44.875 37.546875 48.734375 40.96875 
Q 52.59375 44.390625 52.59375 50.59375 
Q 52.59375 55.078125 50.3125 58.265625 
Q 48.046875 61.46875 44.34375 62.5 
Q 41.9375 63.140625 35.5 63.140625 
L 17.1875 63.140625 
z
" id="ArialMT-80"/>
      <path d="M 6.546875 61.375 
L 6.546875 71.578125 
L 15.328125 71.578125 
L 15.328125 61.375 
z
M -4.59375 -20.125 
L -2.9375 -12.640625 
Q -0.296875 -13.328125 1.21875 -13.328125 
Q 3.90625 -13.328125 5.21875 -11.546875 
Q 6.546875 -9.765625 6.546875 -2.640625 
L 6.546875 51.859375 
L 15.328125 51.859375 
L 15.328125 -2.828125 
Q 15.328125 -12.40625 12.84375 -16.15625 
Q 9.671875 -21.046875 2.296875 -21.046875 
Q -1.265625 -21.046875 -4.59375 -20.125 
z
" id="ArialMT-106"/>
      <path d="M 40.4375 19 
L 49.078125 17.875 
Q 47.65625 8.9375 41.8125 3.875 
Q 35.984375 -1.171875 27.484375 -1.171875 
Q 16.84375 -1.171875 10.375 5.78125 
Q 3.90625 12.75 3.90625 25.734375 
Q 3.90625 34.125 6.6875 40.421875 
Q 9.46875 46.734375 15.15625 49.875 
Q 20.84375 53.03125 27.546875 53.03125 
Q 35.984375 53.03125 41.359375 48.75 
Q 46.734375 44.484375 48.25 36.625 
L 39.703125 35.296875 
Q 38.484375 40.53125 35.375 43.15625 
Q 32.28125 45.796875 27.875 45.796875 
Q 21.234375 45.796875 17.078125 41.03125 
Q 12.9375 36.28125 12.9375 25.984375 
Q 12.9375 15.53125 16.9375 10.796875 
Q 20.953125 6.0625 27.390625 6.0625 
Q 32.5625 6.0625 36.03125 9.234375 
Q 39.5 12.40625 40.4375 19 
z
" id="ArialMT-99"/>
     </defs>
     <g style="fill:#262626;" transform="translate(81.61 63.873492)scale(0.11 -0.11)">
      <use xlink:href="#ArialMT-80"/>
      <use x="66.699219" xlink:href="#ArialMT-114"/>
      <use x="100" xlink:href="#ArialMT-111"/>
      <use x="155.615234" xlink:href="#ArialMT-106"/>
      <use x="177.832031" xlink:href="#ArialMT-101"/>
      <use x="233.447266" xlink:href="#ArialMT-99"/>
      <use x="283.447266" xlink:href="#ArialMT-116"/>
      <use x="311.230469" xlink:href="#ArialMT-101"/>
      <use x="366.845703" xlink:href="#ArialMT-100"/>
     </g>
    </g>
   </g>
  </g>
 </g>
 <defs>
  <clipPath id="p2a7bcd0509">
   <rect height="467.50979" width="1098.13" x="40.91" y="14.98021"/>
  </clipPath>
 </defs>
</svg>
