<?xml version="1.0" encoding="utf-8" standalone="no"?>
<!DOCTYPE svg PUBLIC "-//W3C//DTD SVG 1.1//EN"
  "http://www.w3.org/Graphics/SVG/1.1/DTD/svg11.dtd">
<!-- Created with matplotlib (https://matplotlib.org/) -->
<svg height="576pt" version="1.1" viewBox="0 0 1152 576" width="1152pt" xmlns="http://www.w3.org/2000/svg" xmlns:xlink="http://www.w3.org/1999/xlink">
 <defs>
  <style type="text/css">
*{stroke-linecap:butt;stroke-linejoin:round;}
  </style>
 </defs>
 <g id="figure_1">
  <g id="patch_1">
   <path d="M 0 576 
L 1152 576 
L 1152 0 
L 0 0 
z
" style="fill:#ffffff;"/>
  </g>
  <g id="axes_1">
   <g id="patch_2">
    <path d="M 40.91 482.49 
L 1139.04 482.49 
L 1139.04 12.96 
L 40.91 12.96 
z
" style="fill:#eaeaf2;"/>
   </g>
   <g id="matplotlib.axis_1">
    <g id="xtick_1">
     <g id="line2d_1">
      <path clip-path="url(#pe1951f4c75)" d="M 57.548333 482.49 
L 57.548333 12.96 
" style="fill:none;stroke:#ffffff;stroke-linecap:round;"/>
     </g>
     <g id="text_1">
      <!-- 2020-02-03 -->
      <defs>
       <path d="M 50.34375 8.453125 
L 50.34375 0 
L 3.03125 0 
Q 2.9375 3.171875 4.046875 6.109375 
Q 5.859375 10.9375 9.828125 15.625 
Q 13.8125 20.3125 21.34375 26.46875 
Q 33.015625 36.03125 37.109375 41.625 
Q 41.21875 47.21875 41.21875 52.203125 
Q 41.21875 57.421875 37.46875 61 
Q 33.734375 64.59375 27.734375 64.59375 
Q 21.390625 64.59375 17.578125 60.78125 
Q 13.765625 56.984375 13.71875 50.25 
L 4.6875 51.171875 
Q 5.609375 61.28125 11.65625 66.578125 
Q 17.71875 71.875 27.9375 71.875 
Q 38.234375 71.875 44.234375 66.15625 
Q 50.25 60.453125 50.25 52 
Q 50.25 47.703125 48.484375 43.546875 
Q 46.734375 39.40625 42.65625 34.8125 
Q 38.578125 30.21875 29.109375 22.21875 
Q 21.1875 15.578125 18.9375 13.203125 
Q 16.703125 10.84375 15.234375 8.453125 
z
" id="ArialMT-50"/>
       <path d="M 4.15625 35.296875 
Q 4.15625 48 6.765625 55.734375 
Q 9.375 63.484375 14.515625 67.671875 
Q 19.671875 71.875 27.484375 71.875 
Q 33.25 71.875 37.59375 69.546875 
Q 41.9375 67.234375 44.765625 62.859375 
Q 47.609375 58.5 49.21875 52.21875 
Q 50.828125 45.953125 50.828125 35.296875 
Q 50.828125 22.703125 48.234375 14.96875 
Q 45.65625 7.234375 40.5 3 
Q 35.359375 -1.21875 27.484375 -1.21875 
Q 17.140625 -1.21875 11.234375 6.203125 
Q 4.15625 15.140625 4.15625 35.296875 
z
M 13.1875 35.296875 
Q 13.1875 17.671875 17.3125 11.828125 
Q 21.4375 6 27.484375 6 
Q 33.546875 6 37.671875 11.859375 
Q 41.796875 17.71875 41.796875 35.296875 
Q 41.796875 52.984375 37.671875 58.78125 
Q 33.546875 64.59375 27.390625 64.59375 
Q 21.34375 64.59375 17.71875 59.46875 
Q 13.1875 52.9375 13.1875 35.296875 
z
" id="ArialMT-48"/>
       <path d="M 3.171875 21.484375 
L 3.171875 30.328125 
L 30.171875 30.328125 
L 30.171875 21.484375 
z
" id="ArialMT-45"/>
       <path d="M 4.203125 18.890625 
L 12.984375 20.0625 
Q 14.5 12.59375 18.140625 9.296875 
Q 21.78125 6 27 6 
Q 33.203125 6 37.46875 10.296875 
Q 41.75 14.59375 41.75 20.953125 
Q 41.75 27 37.796875 30.921875 
Q 33.84375 34.859375 27.734375 34.859375 
Q 25.25 34.859375 21.53125 33.890625 
L 22.515625 41.609375 
Q 23.390625 41.5 23.921875 41.5 
Q 29.546875 41.5 34.03125 44.421875 
Q 38.53125 47.359375 38.53125 53.46875 
Q 38.53125 58.296875 35.25 61.46875 
Q 31.984375 64.65625 26.8125 64.65625 
Q 21.6875 64.65625 18.265625 61.421875 
Q 14.84375 58.203125 13.875 51.765625 
L 5.078125 53.328125 
Q 6.6875 62.15625 12.390625 67.015625 
Q 18.109375 71.875 26.609375 71.875 
Q 32.46875 71.875 37.390625 69.359375 
Q 42.328125 66.84375 44.9375 62.5 
Q 47.5625 58.15625 47.5625 53.265625 
Q 47.5625 48.640625 45.0625 44.828125 
Q 42.578125 41.015625 37.703125 38.765625 
Q 44.046875 37.3125 47.5625 32.6875 
Q 51.078125 28.078125 51.078125 21.140625 
Q 51.078125 11.765625 44.234375 5.25 
Q 37.40625 -1.265625 26.953125 -1.265625 
Q 17.53125 -1.265625 11.296875 4.34375 
Q 5.078125 9.96875 4.203125 18.890625 
z
" id="ArialMT-51"/>
      </defs>
      <g style="fill:#262626;" transform="translate(60.392005 548.251562)rotate(-90)scale(0.11 -0.11)">
       <use xlink:href="#ArialMT-50"/>
       <use x="55.615234" xlink:href="#ArialMT-48"/>
       <use x="111.230469" xlink:href="#ArialMT-50"/>
       <use x="166.845703" xlink:href="#ArialMT-48"/>
       <use x="222.460938" xlink:href="#ArialMT-45"/>
       <use x="255.761719" xlink:href="#ArialMT-48"/>
       <use x="311.376953" xlink:href="#ArialMT-50"/>
       <use x="366.992188" xlink:href="#ArialMT-45"/>
       <use x="400.292969" xlink:href="#ArialMT-48"/>
       <use x="455.908203" xlink:href="#ArialMT-51"/>
      </g>
     </g>
    </g>
    <g id="xtick_2">
     <g id="line2d_2">
      <path clip-path="url(#pe1951f4c75)" d="M 90.825 482.49 
L 90.825 12.96 
" style="fill:none;stroke:#ffffff;stroke-linecap:round;"/>
     </g>
     <g id="text_2">
      <!-- 2020-02-04 -->
      <defs>
       <path d="M 32.328125 0 
L 32.328125 17.140625 
L 1.265625 17.140625 
L 1.265625 25.203125 
L 33.9375 71.578125 
L 41.109375 71.578125 
L 41.109375 25.203125 
L 50.78125 25.203125 
L 50.78125 17.140625 
L 41.109375 17.140625 
L 41.109375 0 
z
M 32.328125 25.203125 
L 32.328125 57.46875 
L 9.90625 25.203125 
z
" id="ArialMT-52"/>
      </defs>
      <g style="fill:#262626;" transform="translate(93.668672 548.251562)rotate(-90)scale(0.11 -0.11)">
       <use xlink:href="#ArialMT-50"/>
       <use x="55.615234" xlink:href="#ArialMT-48"/>
       <use x="111.230469" xlink:href="#ArialMT-50"/>
       <use x="166.845703" xlink:href="#ArialMT-48"/>
       <use x="222.460938" xlink:href="#ArialMT-45"/>
       <use x="255.761719" xlink:href="#ArialMT-48"/>
       <use x="311.376953" xlink:href="#ArialMT-50"/>
       <use x="366.992188" xlink:href="#ArialMT-45"/>
       <use x="400.292969" xlink:href="#ArialMT-48"/>
       <use x="455.908203" xlink:href="#ArialMT-52"/>
      </g>
     </g>
    </g>
    <g id="xtick_3">
     <g id="line2d_3">
      <path clip-path="url(#pe1951f4c75)" d="M 124.101667 482.49 
L 124.101667 12.96 
" style="fill:none;stroke:#ffffff;stroke-linecap:round;"/>
     </g>
     <g id="text_3">
      <!-- 2020-02-05 -->
      <defs>
       <path d="M 4.15625 18.75 
L 13.375 19.53125 
Q 14.40625 12.796875 18.140625 9.390625 
Q 21.875 6 27.15625 6 
Q 33.5 6 37.890625 10.78125 
Q 42.28125 15.578125 42.28125 23.484375 
Q 42.28125 31 38.0625 35.34375 
Q 33.84375 39.703125 27 39.703125 
Q 22.75 39.703125 19.328125 37.765625 
Q 15.921875 35.84375 13.96875 32.765625 
L 5.71875 33.84375 
L 12.640625 70.609375 
L 48.25 70.609375 
L 48.25 62.203125 
L 19.671875 62.203125 
L 15.828125 42.96875 
Q 22.265625 47.46875 29.34375 47.46875 
Q 38.71875 47.46875 45.15625 40.96875 
Q 51.609375 34.46875 51.609375 24.265625 
Q 51.609375 14.546875 45.953125 7.46875 
Q 39.0625 -1.21875 27.15625 -1.21875 
Q 17.390625 -1.21875 11.203125 4.25 
Q 5.03125 9.71875 4.15625 18.75 
z
" id="ArialMT-53"/>
      </defs>
      <g style="fill:#262626;" transform="translate(126.945339 548.251562)rotate(-90)scale(0.11 -0.11)">
       <use xlink:href="#ArialMT-50"/>
       <use x="55.615234" xlink:href="#ArialMT-48"/>
       <use x="111.230469" xlink:href="#ArialMT-50"/>
       <use x="166.845703" xlink:href="#ArialMT-48"/>
       <use x="222.460938" xlink:href="#ArialMT-45"/>
       <use x="255.761719" xlink:href="#ArialMT-48"/>
       <use x="311.376953" xlink:href="#ArialMT-50"/>
       <use x="366.992188" xlink:href="#ArialMT-45"/>
       <use x="400.292969" xlink:href="#ArialMT-48"/>
       <use x="455.908203" xlink:href="#ArialMT-53"/>
      </g>
     </g>
    </g>
    <g id="xtick_4">
     <g id="line2d_4">
      <path clip-path="url(#pe1951f4c75)" d="M 157.378333 482.49 
L 157.378333 12.96 
" style="fill:none;stroke:#ffffff;stroke-linecap:round;"/>
     </g>
     <g id="text_4">
      <!-- 2020-02-06 -->
      <defs>
       <path d="M 49.75 54.046875 
L 41.015625 53.375 
Q 39.84375 58.546875 37.703125 60.890625 
Q 34.125 64.65625 28.90625 64.65625 
Q 24.703125 64.65625 21.53125 62.3125 
Q 17.390625 59.28125 14.984375 53.46875 
Q 12.59375 47.65625 12.5 36.921875 
Q 15.671875 41.75 20.265625 44.09375 
Q 24.859375 46.4375 29.890625 46.4375 
Q 38.671875 46.4375 44.84375 39.96875 
Q 51.03125 33.5 51.03125 23.25 
Q 51.03125 16.5 48.125 10.71875 
Q 45.21875 4.9375 40.140625 1.859375 
Q 35.0625 -1.21875 28.609375 -1.21875 
Q 17.625 -1.21875 10.6875 6.859375 
Q 3.765625 14.9375 3.765625 33.5 
Q 3.765625 54.25 11.421875 63.671875 
Q 18.109375 71.875 29.4375 71.875 
Q 37.890625 71.875 43.28125 67.140625 
Q 48.6875 62.40625 49.75 54.046875 
z
M 13.875 23.1875 
Q 13.875 18.65625 15.796875 14.5 
Q 17.71875 10.359375 21.1875 8.171875 
Q 24.65625 6 28.46875 6 
Q 34.03125 6 38.03125 10.484375 
Q 42.046875 14.984375 42.046875 22.703125 
Q 42.046875 30.125 38.078125 34.390625 
Q 34.125 38.671875 28.125 38.671875 
Q 22.171875 38.671875 18.015625 34.390625 
Q 13.875 30.125 13.875 23.1875 
z
" id="ArialMT-54"/>
      </defs>
      <g style="fill:#262626;" transform="translate(160.222005 548.251562)rotate(-90)scale(0.11 -0.11)">
       <use xlink:href="#ArialMT-50"/>
       <use x="55.615234" xlink:href="#ArialMT-48"/>
       <use x="111.230469" xlink:href="#ArialMT-50"/>
       <use x="166.845703" xlink:href="#ArialMT-48"/>
       <use x="222.460938" xlink:href="#ArialMT-45"/>
       <use x="255.761719" xlink:href="#ArialMT-48"/>
       <use x="311.376953" xlink:href="#ArialMT-50"/>
       <use x="366.992188" xlink:href="#ArialMT-45"/>
       <use x="400.292969" xlink:href="#ArialMT-48"/>
       <use x="455.908203" xlink:href="#ArialMT-54"/>
      </g>
     </g>
    </g>
    <g id="xtick_5">
     <g id="line2d_5">
      <path clip-path="url(#pe1951f4c75)" d="M 190.655 482.49 
L 190.655 12.96 
" style="fill:none;stroke:#ffffff;stroke-linecap:round;"/>
     </g>
     <g id="text_5">
      <!-- 2020-02-07 -->
      <defs>
       <path d="M 4.734375 62.203125 
L 4.734375 70.65625 
L 51.078125 70.65625 
L 51.078125 63.8125 
Q 44.234375 56.546875 37.515625 44.484375 
Q 30.8125 32.421875 27.15625 19.671875 
Q 24.515625 10.6875 23.78125 0 
L 14.75 0 
Q 14.890625 8.453125 18.0625 20.40625 
Q 21.234375 32.375 27.171875 43.484375 
Q 33.109375 54.59375 39.796875 62.203125 
z
" id="ArialMT-55"/>
      </defs>
      <g style="fill:#262626;" transform="translate(193.498672 548.251562)rotate(-90)scale(0.11 -0.11)">
       <use xlink:href="#ArialMT-50"/>
       <use x="55.615234" xlink:href="#ArialMT-48"/>
       <use x="111.230469" xlink:href="#ArialMT-50"/>
       <use x="166.845703" xlink:href="#ArialMT-48"/>
       <use x="222.460938" xlink:href="#ArialMT-45"/>
       <use x="255.761719" xlink:href="#ArialMT-48"/>
       <use x="311.376953" xlink:href="#ArialMT-50"/>
       <use x="366.992188" xlink:href="#ArialMT-45"/>
       <use x="400.292969" xlink:href="#ArialMT-48"/>
       <use x="455.908203" xlink:href="#ArialMT-55"/>
      </g>
     </g>
    </g>
    <g id="xtick_6">
     <g id="line2d_6">
      <path clip-path="url(#pe1951f4c75)" d="M 223.931667 482.49 
L 223.931667 12.96 
" style="fill:none;stroke:#ffffff;stroke-linecap:round;"/>
     </g>
     <g id="text_6">
      <!-- 2020-02-08 -->
      <defs>
       <path d="M 17.671875 38.8125 
Q 12.203125 40.828125 9.5625 44.53125 
Q 6.9375 48.25 6.9375 53.421875 
Q 6.9375 61.234375 12.546875 66.546875 
Q 18.171875 71.875 27.484375 71.875 
Q 36.859375 71.875 42.578125 66.421875 
Q 48.296875 60.984375 48.296875 53.171875 
Q 48.296875 48.1875 45.671875 44.5 
Q 43.0625 40.828125 37.75 38.8125 
Q 44.34375 36.671875 47.78125 31.875 
Q 51.21875 27.09375 51.21875 20.453125 
Q 51.21875 11.28125 44.71875 5.03125 
Q 38.234375 -1.21875 27.640625 -1.21875 
Q 17.046875 -1.21875 10.546875 5.046875 
Q 4.046875 11.328125 4.046875 20.703125 
Q 4.046875 27.6875 7.59375 32.390625 
Q 11.140625 37.109375 17.671875 38.8125 
z
M 15.921875 53.71875 
Q 15.921875 48.640625 19.1875 45.40625 
Q 22.46875 42.1875 27.6875 42.1875 
Q 32.765625 42.1875 36.015625 45.375 
Q 39.265625 48.578125 39.265625 53.21875 
Q 39.265625 58.0625 35.90625 61.359375 
Q 32.5625 64.65625 27.59375 64.65625 
Q 22.5625 64.65625 19.234375 61.421875 
Q 15.921875 58.203125 15.921875 53.71875 
z
M 13.09375 20.65625 
Q 13.09375 16.890625 14.875 13.375 
Q 16.65625 9.859375 20.171875 7.921875 
Q 23.6875 6 27.734375 6 
Q 34.03125 6 38.125 10.046875 
Q 42.234375 14.109375 42.234375 20.359375 
Q 42.234375 26.703125 38.015625 30.859375 
Q 33.796875 35.015625 27.4375 35.015625 
Q 21.234375 35.015625 17.15625 30.90625 
Q 13.09375 26.8125 13.09375 20.65625 
z
" id="ArialMT-56"/>
      </defs>
      <g style="fill:#262626;" transform="translate(226.775339 548.251562)rotate(-90)scale(0.11 -0.11)">
       <use xlink:href="#ArialMT-50"/>
       <use x="55.615234" xlink:href="#ArialMT-48"/>
       <use x="111.230469" xlink:href="#ArialMT-50"/>
       <use x="166.845703" xlink:href="#ArialMT-48"/>
       <use x="222.460938" xlink:href="#ArialMT-45"/>
       <use x="255.761719" xlink:href="#ArialMT-48"/>
       <use x="311.376953" xlink:href="#ArialMT-50"/>
       <use x="366.992188" xlink:href="#ArialMT-45"/>
       <use x="400.292969" xlink:href="#ArialMT-48"/>
       <use x="455.908203" xlink:href="#ArialMT-56"/>
      </g>
     </g>
    </g>
    <g id="xtick_7">
     <g id="line2d_7">
      <path clip-path="url(#pe1951f4c75)" d="M 257.208333 482.49 
L 257.208333 12.96 
" style="fill:none;stroke:#ffffff;stroke-linecap:round;"/>
     </g>
     <g id="text_7">
      <!-- 2020-02-09 -->
      <defs>
       <path d="M 5.46875 16.546875 
L 13.921875 17.328125 
Q 14.984375 11.375 18.015625 8.6875 
Q 21.046875 6 25.78125 6 
Q 29.828125 6 32.875 7.859375 
Q 35.9375 9.71875 37.890625 12.8125 
Q 39.84375 15.921875 41.15625 21.1875 
Q 42.484375 26.46875 42.484375 31.9375 
Q 42.484375 32.515625 42.4375 33.6875 
Q 39.796875 29.5 35.234375 26.875 
Q 30.671875 24.265625 25.34375 24.265625 
Q 16.453125 24.265625 10.296875 30.703125 
Q 4.15625 37.15625 4.15625 47.703125 
Q 4.15625 58.59375 10.578125 65.234375 
Q 17 71.875 26.65625 71.875 
Q 33.640625 71.875 39.421875 68.109375 
Q 45.21875 64.359375 48.21875 57.390625 
Q 51.21875 50.4375 51.21875 37.25 
Q 51.21875 23.53125 48.234375 15.40625 
Q 45.265625 7.28125 39.375 3.03125 
Q 33.5 -1.21875 25.59375 -1.21875 
Q 17.1875 -1.21875 11.859375 3.4375 
Q 6.546875 8.109375 5.46875 16.546875 
z
M 41.453125 48.140625 
Q 41.453125 55.71875 37.421875 60.15625 
Q 33.40625 64.59375 27.734375 64.59375 
Q 21.875 64.59375 17.53125 59.8125 
Q 13.1875 55.03125 13.1875 47.40625 
Q 13.1875 40.578125 17.3125 36.296875 
Q 21.4375 32.03125 27.484375 32.03125 
Q 33.59375 32.03125 37.515625 36.296875 
Q 41.453125 40.578125 41.453125 48.140625 
z
" id="ArialMT-57"/>
      </defs>
      <g style="fill:#262626;" transform="translate(260.052005 548.251562)rotate(-90)scale(0.11 -0.11)">
       <use xlink:href="#ArialMT-50"/>
       <use x="55.615234" xlink:href="#ArialMT-48"/>
       <use x="111.230469" xlink:href="#ArialMT-50"/>
       <use x="166.845703" xlink:href="#ArialMT-48"/>
       <use x="222.460938" xlink:href="#ArialMT-45"/>
       <use x="255.761719" xlink:href="#ArialMT-48"/>
       <use x="311.376953" xlink:href="#ArialMT-50"/>
       <use x="366.992188" xlink:href="#ArialMT-45"/>
       <use x="400.292969" xlink:href="#ArialMT-48"/>
       <use x="455.908203" xlink:href="#ArialMT-57"/>
      </g>
     </g>
    </g>
    <g id="xtick_8">
     <g id="line2d_8">
      <path clip-path="url(#pe1951f4c75)" d="M 290.485 482.49 
L 290.485 12.96 
" style="fill:none;stroke:#ffffff;stroke-linecap:round;"/>
     </g>
     <g id="text_8">
      <!-- 2020-02-10 -->
      <defs>
       <path d="M 37.25 0 
L 28.46875 0 
L 28.46875 56 
Q 25.296875 52.984375 20.140625 49.953125 
Q 14.984375 46.921875 10.890625 45.40625 
L 10.890625 53.90625 
Q 18.265625 57.375 23.78125 62.296875 
Q 29.296875 67.234375 31.59375 71.875 
L 37.25 71.875 
z
" id="ArialMT-49"/>
      </defs>
      <g style="fill:#262626;" transform="translate(293.328672 548.251562)rotate(-90)scale(0.11 -0.11)">
       <use xlink:href="#ArialMT-50"/>
       <use x="55.615234" xlink:href="#ArialMT-48"/>
       <use x="111.230469" xlink:href="#ArialMT-50"/>
       <use x="166.845703" xlink:href="#ArialMT-48"/>
       <use x="222.460938" xlink:href="#ArialMT-45"/>
       <use x="255.761719" xlink:href="#ArialMT-48"/>
       <use x="311.376953" xlink:href="#ArialMT-50"/>
       <use x="366.992188" xlink:href="#ArialMT-45"/>
       <use x="400.292969" xlink:href="#ArialMT-49"/>
       <use x="455.908203" xlink:href="#ArialMT-48"/>
      </g>
     </g>
    </g>
    <g id="xtick_9">
     <g id="line2d_9">
      <path clip-path="url(#pe1951f4c75)" d="M 323.761667 482.49 
L 323.761667 12.96 
" style="fill:none;stroke:#ffffff;stroke-linecap:round;"/>
     </g>
     <g id="text_9">
      <!-- 2020-02-11 -->
      <g style="fill:#262626;" transform="translate(326.605339 548.239531)rotate(-90)scale(0.11 -0.11)">
       <use xlink:href="#ArialMT-50"/>
       <use x="55.615234" xlink:href="#ArialMT-48"/>
       <use x="111.230469" xlink:href="#ArialMT-50"/>
       <use x="166.845703" xlink:href="#ArialMT-48"/>
       <use x="222.460938" xlink:href="#ArialMT-45"/>
       <use x="255.761719" xlink:href="#ArialMT-48"/>
       <use x="311.376953" xlink:href="#ArialMT-50"/>
       <use x="366.992188" xlink:href="#ArialMT-45"/>
       <use x="400.292969" xlink:href="#ArialMT-49"/>
       <use x="455.798828" xlink:href="#ArialMT-49"/>
      </g>
     </g>
    </g>
    <g id="xtick_10">
     <g id="line2d_10">
      <path clip-path="url(#pe1951f4c75)" d="M 357.038333 482.49 
L 357.038333 12.96 
" style="fill:none;stroke:#ffffff;stroke-linecap:round;"/>
     </g>
     <g id="text_10">
      <!-- 2020-02-12 -->
      <g style="fill:#262626;" transform="translate(359.882005 548.251562)rotate(-90)scale(0.11 -0.11)">
       <use xlink:href="#ArialMT-50"/>
       <use x="55.615234" xlink:href="#ArialMT-48"/>
       <use x="111.230469" xlink:href="#ArialMT-50"/>
       <use x="166.845703" xlink:href="#ArialMT-48"/>
       <use x="222.460938" xlink:href="#ArialMT-45"/>
       <use x="255.761719" xlink:href="#ArialMT-48"/>
       <use x="311.376953" xlink:href="#ArialMT-50"/>
       <use x="366.992188" xlink:href="#ArialMT-45"/>
       <use x="400.292969" xlink:href="#ArialMT-49"/>
       <use x="455.908203" xlink:href="#ArialMT-50"/>
      </g>
     </g>
    </g>
    <g id="xtick_11">
     <g id="line2d_11">
      <path clip-path="url(#pe1951f4c75)" d="M 390.315 482.49 
L 390.315 12.96 
" style="fill:none;stroke:#ffffff;stroke-linecap:round;"/>
     </g>
     <g id="text_11">
      <!-- 2020-02-13 -->
      <g style="fill:#262626;" transform="translate(393.158672 548.251562)rotate(-90)scale(0.11 -0.11)">
       <use xlink:href="#ArialMT-50"/>
       <use x="55.615234" xlink:href="#ArialMT-48"/>
       <use x="111.230469" xlink:href="#ArialMT-50"/>
       <use x="166.845703" xlink:href="#ArialMT-48"/>
       <use x="222.460938" xlink:href="#ArialMT-45"/>
       <use x="255.761719" xlink:href="#ArialMT-48"/>
       <use x="311.376953" xlink:href="#ArialMT-50"/>
       <use x="366.992188" xlink:href="#ArialMT-45"/>
       <use x="400.292969" xlink:href="#ArialMT-49"/>
       <use x="455.908203" xlink:href="#ArialMT-51"/>
      </g>
     </g>
    </g>
    <g id="xtick_12">
     <g id="line2d_12">
      <path clip-path="url(#pe1951f4c75)" d="M 423.591667 482.49 
L 423.591667 12.96 
" style="fill:none;stroke:#ffffff;stroke-linecap:round;"/>
     </g>
     <g id="text_12">
      <!-- 2020-02-14 -->
      <g style="fill:#262626;" transform="translate(426.435339 548.251562)rotate(-90)scale(0.11 -0.11)">
       <use xlink:href="#ArialMT-50"/>
       <use x="55.615234" xlink:href="#ArialMT-48"/>
       <use x="111.230469" xlink:href="#ArialMT-50"/>
       <use x="166.845703" xlink:href="#ArialMT-48"/>
       <use x="222.460938" xlink:href="#ArialMT-45"/>
       <use x="255.761719" xlink:href="#ArialMT-48"/>
       <use x="311.376953" xlink:href="#ArialMT-50"/>
       <use x="366.992188" xlink:href="#ArialMT-45"/>
       <use x="400.292969" xlink:href="#ArialMT-49"/>
       <use x="455.908203" xlink:href="#ArialMT-52"/>
      </g>
     </g>
    </g>
    <g id="xtick_13">
     <g id="line2d_13">
      <path clip-path="url(#pe1951f4c75)" d="M 456.868333 482.49 
L 456.868333 12.96 
" style="fill:none;stroke:#ffffff;stroke-linecap:round;"/>
     </g>
     <g id="text_13">
      <!-- 2020-02-15 -->
      <g style="fill:#262626;" transform="translate(459.712005 548.251562)rotate(-90)scale(0.11 -0.11)">
       <use xlink:href="#ArialMT-50"/>
       <use x="55.615234" xlink:href="#ArialMT-48"/>
       <use x="111.230469" xlink:href="#ArialMT-50"/>
       <use x="166.845703" xlink:href="#ArialMT-48"/>
       <use x="222.460938" xlink:href="#ArialMT-45"/>
       <use x="255.761719" xlink:href="#ArialMT-48"/>
       <use x="311.376953" xlink:href="#ArialMT-50"/>
       <use x="366.992188" xlink:href="#ArialMT-45"/>
       <use x="400.292969" xlink:href="#ArialMT-49"/>
       <use x="455.908203" xlink:href="#ArialMT-53"/>
      </g>
     </g>
    </g>
    <g id="xtick_14">
     <g id="line2d_14">
      <path clip-path="url(#pe1951f4c75)" d="M 490.145 482.49 
L 490.145 12.96 
" style="fill:none;stroke:#ffffff;stroke-linecap:round;"/>
     </g>
     <g id="text_14">
      <!-- 2020-02-16 -->
      <g style="fill:#262626;" transform="translate(492.988672 548.251562)rotate(-90)scale(0.11 -0.11)">
       <use xlink:href="#ArialMT-50"/>
       <use x="55.615234" xlink:href="#ArialMT-48"/>
       <use x="111.230469" xlink:href="#ArialMT-50"/>
       <use x="166.845703" xlink:href="#ArialMT-48"/>
       <use x="222.460938" xlink:href="#ArialMT-45"/>
       <use x="255.761719" xlink:href="#ArialMT-48"/>
       <use x="311.376953" xlink:href="#ArialMT-50"/>
       <use x="366.992188" xlink:href="#ArialMT-45"/>
       <use x="400.292969" xlink:href="#ArialMT-49"/>
       <use x="455.908203" xlink:href="#ArialMT-54"/>
      </g>
     </g>
    </g>
    <g id="xtick_15">
     <g id="line2d_15">
      <path clip-path="url(#pe1951f4c75)" d="M 523.421667 482.49 
L 523.421667 12.96 
" style="fill:none;stroke:#ffffff;stroke-linecap:round;"/>
     </g>
     <g id="text_15">
      <!-- 2020-02-17 -->
      <g style="fill:#262626;" transform="translate(526.265339 548.251562)rotate(-90)scale(0.11 -0.11)">
       <use xlink:href="#ArialMT-50"/>
       <use x="55.615234" xlink:href="#ArialMT-48"/>
       <use x="111.230469" xlink:href="#ArialMT-50"/>
       <use x="166.845703" xlink:href="#ArialMT-48"/>
       <use x="222.460938" xlink:href="#ArialMT-45"/>
       <use x="255.761719" xlink:href="#ArialMT-48"/>
       <use x="311.376953" xlink:href="#ArialMT-50"/>
       <use x="366.992188" xlink:href="#ArialMT-45"/>
       <use x="400.292969" xlink:href="#ArialMT-49"/>
       <use x="455.908203" xlink:href="#ArialMT-55"/>
      </g>
     </g>
    </g>
    <g id="xtick_16">
     <g id="line2d_16">
      <path clip-path="url(#pe1951f4c75)" d="M 556.698333 482.49 
L 556.698333 12.96 
" style="fill:none;stroke:#ffffff;stroke-linecap:round;"/>
     </g>
     <g id="text_16">
      <!-- 2020-02-18 -->
      <g style="fill:#262626;" transform="translate(559.542005 548.251562)rotate(-90)scale(0.11 -0.11)">
       <use xlink:href="#ArialMT-50"/>
       <use x="55.615234" xlink:href="#ArialMT-48"/>
       <use x="111.230469" xlink:href="#ArialMT-50"/>
       <use x="166.845703" xlink:href="#ArialMT-48"/>
       <use x="222.460938" xlink:href="#ArialMT-45"/>
       <use x="255.761719" xlink:href="#ArialMT-48"/>
       <use x="311.376953" xlink:href="#ArialMT-50"/>
       <use x="366.992188" xlink:href="#ArialMT-45"/>
       <use x="400.292969" xlink:href="#ArialMT-49"/>
       <use x="455.908203" xlink:href="#ArialMT-56"/>
      </g>
     </g>
    </g>
    <g id="xtick_17">
     <g id="line2d_17">
      <path clip-path="url(#pe1951f4c75)" d="M 589.975 482.49 
L 589.975 12.96 
" style="fill:none;stroke:#ffffff;stroke-linecap:round;"/>
     </g>
     <g id="text_17">
      <!-- 2020-02-19 -->
      <g style="fill:#262626;" transform="translate(592.818672 548.251562)rotate(-90)scale(0.11 -0.11)">
       <use xlink:href="#ArialMT-50"/>
       <use x="55.615234" xlink:href="#ArialMT-48"/>
       <use x="111.230469" xlink:href="#ArialMT-50"/>
       <use x="166.845703" xlink:href="#ArialMT-48"/>
       <use x="222.460938" xlink:href="#ArialMT-45"/>
       <use x="255.761719" xlink:href="#ArialMT-48"/>
       <use x="311.376953" xlink:href="#ArialMT-50"/>
       <use x="366.992188" xlink:href="#ArialMT-45"/>
       <use x="400.292969" xlink:href="#ArialMT-49"/>
       <use x="455.908203" xlink:href="#ArialMT-57"/>
      </g>
     </g>
    </g>
    <g id="xtick_18">
     <g id="line2d_18">
      <path clip-path="url(#pe1951f4c75)" d="M 623.251667 482.49 
L 623.251667 12.96 
" style="fill:none;stroke:#ffffff;stroke-linecap:round;"/>
     </g>
     <g id="text_18">
      <!-- 2020-02-20 -->
      <g style="fill:#262626;" transform="translate(626.095339 548.251562)rotate(-90)scale(0.11 -0.11)">
       <use xlink:href="#ArialMT-50"/>
       <use x="55.615234" xlink:href="#ArialMT-48"/>
       <use x="111.230469" xlink:href="#ArialMT-50"/>
       <use x="166.845703" xlink:href="#ArialMT-48"/>
       <use x="222.460938" xlink:href="#ArialMT-45"/>
       <use x="255.761719" xlink:href="#ArialMT-48"/>
       <use x="311.376953" xlink:href="#ArialMT-50"/>
       <use x="366.992188" xlink:href="#ArialMT-45"/>
       <use x="400.292969" xlink:href="#ArialMT-50"/>
       <use x="455.908203" xlink:href="#ArialMT-48"/>
      </g>
     </g>
    </g>
    <g id="xtick_19">
     <g id="line2d_19">
      <path clip-path="url(#pe1951f4c75)" d="M 656.528333 482.49 
L 656.528333 12.96 
" style="fill:none;stroke:#ffffff;stroke-linecap:round;"/>
     </g>
     <g id="text_19">
      <!-- 2020-02-21 -->
      <g style="fill:#262626;" transform="translate(659.372005 548.251562)rotate(-90)scale(0.11 -0.11)">
       <use xlink:href="#ArialMT-50"/>
       <use x="55.615234" xlink:href="#ArialMT-48"/>
       <use x="111.230469" xlink:href="#ArialMT-50"/>
       <use x="166.845703" xlink:href="#ArialMT-48"/>
       <use x="222.460938" xlink:href="#ArialMT-45"/>
       <use x="255.761719" xlink:href="#ArialMT-48"/>
       <use x="311.376953" xlink:href="#ArialMT-50"/>
       <use x="366.992188" xlink:href="#ArialMT-45"/>
       <use x="400.292969" xlink:href="#ArialMT-50"/>
       <use x="455.908203" xlink:href="#ArialMT-49"/>
      </g>
     </g>
    </g>
    <g id="xtick_20">
     <g id="line2d_20">
      <path clip-path="url(#pe1951f4c75)" d="M 689.805 482.49 
L 689.805 12.96 
" style="fill:none;stroke:#ffffff;stroke-linecap:round;"/>
     </g>
     <g id="text_20">
      <!-- 2020-02-22 -->
      <g style="fill:#262626;" transform="translate(692.648672 548.251562)rotate(-90)scale(0.11 -0.11)">
       <use xlink:href="#ArialMT-50"/>
       <use x="55.615234" xlink:href="#ArialMT-48"/>
       <use x="111.230469" xlink:href="#ArialMT-50"/>
       <use x="166.845703" xlink:href="#ArialMT-48"/>
       <use x="222.460938" xlink:href="#ArialMT-45"/>
       <use x="255.761719" xlink:href="#ArialMT-48"/>
       <use x="311.376953" xlink:href="#ArialMT-50"/>
       <use x="366.992188" xlink:href="#ArialMT-45"/>
       <use x="400.292969" xlink:href="#ArialMT-50"/>
       <use x="455.908203" xlink:href="#ArialMT-50"/>
      </g>
     </g>
    </g>
    <g id="xtick_21">
     <g id="line2d_21">
      <path clip-path="url(#pe1951f4c75)" d="M 723.081667 482.49 
L 723.081667 12.96 
" style="fill:none;stroke:#ffffff;stroke-linecap:round;"/>
     </g>
     <g id="text_21">
      <!-- 2020-02-23 -->
      <g style="fill:#262626;" transform="translate(725.925339 548.251562)rotate(-90)scale(0.11 -0.11)">
       <use xlink:href="#ArialMT-50"/>
       <use x="55.615234" xlink:href="#ArialMT-48"/>
       <use x="111.230469" xlink:href="#ArialMT-50"/>
       <use x="166.845703" xlink:href="#ArialMT-48"/>
       <use x="222.460938" xlink:href="#ArialMT-45"/>
       <use x="255.761719" xlink:href="#ArialMT-48"/>
       <use x="311.376953" xlink:href="#ArialMT-50"/>
       <use x="366.992188" xlink:href="#ArialMT-45"/>
       <use x="400.292969" xlink:href="#ArialMT-50"/>
       <use x="455.908203" xlink:href="#ArialMT-51"/>
      </g>
     </g>
    </g>
    <g id="xtick_22">
     <g id="line2d_22">
      <path clip-path="url(#pe1951f4c75)" d="M 756.358333 482.49 
L 756.358333 12.96 
" style="fill:none;stroke:#ffffff;stroke-linecap:round;"/>
     </g>
     <g id="text_22">
      <!-- 2020-02-24 -->
      <g style="fill:#262626;" transform="translate(759.202005 548.251562)rotate(-90)scale(0.11 -0.11)">
       <use xlink:href="#ArialMT-50"/>
       <use x="55.615234" xlink:href="#ArialMT-48"/>
       <use x="111.230469" xlink:href="#ArialMT-50"/>
       <use x="166.845703" xlink:href="#ArialMT-48"/>
       <use x="222.460938" xlink:href="#ArialMT-45"/>
       <use x="255.761719" xlink:href="#ArialMT-48"/>
       <use x="311.376953" xlink:href="#ArialMT-50"/>
       <use x="366.992188" xlink:href="#ArialMT-45"/>
       <use x="400.292969" xlink:href="#ArialMT-50"/>
       <use x="455.908203" xlink:href="#ArialMT-52"/>
      </g>
     </g>
    </g>
    <g id="xtick_23">
     <g id="line2d_23">
      <path clip-path="url(#pe1951f4c75)" d="M 789.635 482.49 
L 789.635 12.96 
" style="fill:none;stroke:#ffffff;stroke-linecap:round;"/>
     </g>
     <g id="text_23">
      <!-- 2020-02-25 -->
      <g style="fill:#262626;" transform="translate(792.478672 548.251562)rotate(-90)scale(0.11 -0.11)">
       <use xlink:href="#ArialMT-50"/>
       <use x="55.615234" xlink:href="#ArialMT-48"/>
       <use x="111.230469" xlink:href="#ArialMT-50"/>
       <use x="166.845703" xlink:href="#ArialMT-48"/>
       <use x="222.460938" xlink:href="#ArialMT-45"/>
       <use x="255.761719" xlink:href="#ArialMT-48"/>
       <use x="311.376953" xlink:href="#ArialMT-50"/>
       <use x="366.992188" xlink:href="#ArialMT-45"/>
       <use x="400.292969" xlink:href="#ArialMT-50"/>
       <use x="455.908203" xlink:href="#ArialMT-53"/>
      </g>
     </g>
    </g>
    <g id="xtick_24">
     <g id="line2d_24">
      <path clip-path="url(#pe1951f4c75)" d="M 822.911667 482.49 
L 822.911667 12.96 
" style="fill:none;stroke:#ffffff;stroke-linecap:round;"/>
     </g>
     <g id="text_24">
      <!-- 2020-02-26 -->
      <g style="fill:#262626;" transform="translate(825.755339 548.251562)rotate(-90)scale(0.11 -0.11)">
       <use xlink:href="#ArialMT-50"/>
       <use x="55.615234" xlink:href="#ArialMT-48"/>
       <use x="111.230469" xlink:href="#ArialMT-50"/>
       <use x="166.845703" xlink:href="#ArialMT-48"/>
       <use x="222.460938" xlink:href="#ArialMT-45"/>
       <use x="255.761719" xlink:href="#ArialMT-48"/>
       <use x="311.376953" xlink:href="#ArialMT-50"/>
       <use x="366.992188" xlink:href="#ArialMT-45"/>
       <use x="400.292969" xlink:href="#ArialMT-50"/>
       <use x="455.908203" xlink:href="#ArialMT-54"/>
      </g>
     </g>
    </g>
    <g id="xtick_25">
     <g id="line2d_25">
      <path clip-path="url(#pe1951f4c75)" d="M 856.188333 482.49 
L 856.188333 12.96 
" style="fill:none;stroke:#ffffff;stroke-linecap:round;"/>
     </g>
     <g id="text_25">
      <!-- 2020-02-27 -->
      <g style="fill:#262626;" transform="translate(859.032005 548.251562)rotate(-90)scale(0.11 -0.11)">
       <use xlink:href="#ArialMT-50"/>
       <use x="55.615234" xlink:href="#ArialMT-48"/>
       <use x="111.230469" xlink:href="#ArialMT-50"/>
       <use x="166.845703" xlink:href="#ArialMT-48"/>
       <use x="222.460938" xlink:href="#ArialMT-45"/>
       <use x="255.761719" xlink:href="#ArialMT-48"/>
       <use x="311.376953" xlink:href="#ArialMT-50"/>
       <use x="366.992188" xlink:href="#ArialMT-45"/>
       <use x="400.292969" xlink:href="#ArialMT-50"/>
       <use x="455.908203" xlink:href="#ArialMT-55"/>
      </g>
     </g>
    </g>
    <g id="xtick_26">
     <g id="line2d_26">
      <path clip-path="url(#pe1951f4c75)" d="M 889.465 482.49 
L 889.465 12.96 
" style="fill:none;stroke:#ffffff;stroke-linecap:round;"/>
     </g>
     <g id="text_26">
      <!-- 2020-02-28 -->
      <g style="fill:#262626;" transform="translate(892.308672 548.251562)rotate(-90)scale(0.11 -0.11)">
       <use xlink:href="#ArialMT-50"/>
       <use x="55.615234" xlink:href="#ArialMT-48"/>
       <use x="111.230469" xlink:href="#ArialMT-50"/>
       <use x="166.845703" xlink:href="#ArialMT-48"/>
       <use x="222.460938" xlink:href="#ArialMT-45"/>
       <use x="255.761719" xlink:href="#ArialMT-48"/>
       <use x="311.376953" xlink:href="#ArialMT-50"/>
       <use x="366.992188" xlink:href="#ArialMT-45"/>
       <use x="400.292969" xlink:href="#ArialMT-50"/>
       <use x="455.908203" xlink:href="#ArialMT-56"/>
      </g>
     </g>
    </g>
    <g id="xtick_27">
     <g id="line2d_27">
      <path clip-path="url(#pe1951f4c75)" d="M 922.741667 482.49 
L 922.741667 12.96 
" style="fill:none;stroke:#ffffff;stroke-linecap:round;"/>
     </g>
     <g id="text_27">
      <!-- 2020-02-29 -->
      <g style="fill:#262626;" transform="translate(925.585339 548.251562)rotate(-90)scale(0.11 -0.11)">
       <use xlink:href="#ArialMT-50"/>
       <use x="55.615234" xlink:href="#ArialMT-48"/>
       <use x="111.230469" xlink:href="#ArialMT-50"/>
       <use x="166.845703" xlink:href="#ArialMT-48"/>
       <use x="222.460938" xlink:href="#ArialMT-45"/>
       <use x="255.761719" xlink:href="#ArialMT-48"/>
       <use x="311.376953" xlink:href="#ArialMT-50"/>
       <use x="366.992188" xlink:href="#ArialMT-45"/>
       <use x="400.292969" xlink:href="#ArialMT-50"/>
       <use x="455.908203" xlink:href="#ArialMT-57"/>
      </g>
     </g>
    </g>
    <g id="xtick_28">
     <g id="line2d_28">
      <path clip-path="url(#pe1951f4c75)" d="M 956.018333 482.49 
L 956.018333 12.96 
" style="fill:none;stroke:#ffffff;stroke-linecap:round;"/>
     </g>
     <g id="text_28">
      <!-- 2020-03-01 -->
      <g style="fill:#262626;" transform="translate(958.862005 548.251562)rotate(-90)scale(0.11 -0.11)">
       <use xlink:href="#ArialMT-50"/>
       <use x="55.615234" xlink:href="#ArialMT-48"/>
       <use x="111.230469" xlink:href="#ArialMT-50"/>
       <use x="166.845703" xlink:href="#ArialMT-48"/>
       <use x="222.460938" xlink:href="#ArialMT-45"/>
       <use x="255.761719" xlink:href="#ArialMT-48"/>
       <use x="311.376953" xlink:href="#ArialMT-51"/>
       <use x="366.992188" xlink:href="#ArialMT-45"/>
       <use x="400.292969" xlink:href="#ArialMT-48"/>
       <use x="455.908203" xlink:href="#ArialMT-49"/>
      </g>
     </g>
    </g>
    <g id="xtick_29">
     <g id="line2d_29">
      <path clip-path="url(#pe1951f4c75)" d="M 989.295 482.49 
L 989.295 12.96 
" style="fill:none;stroke:#ffffff;stroke-linecap:round;"/>
     </g>
     <g id="text_29">
      <!-- 2020-03-02 -->
      <g style="fill:#262626;" transform="translate(992.138672 548.251562)rotate(-90)scale(0.11 -0.11)">
       <use xlink:href="#ArialMT-50"/>
       <use x="55.615234" xlink:href="#ArialMT-48"/>
       <use x="111.230469" xlink:href="#ArialMT-50"/>
       <use x="166.845703" xlink:href="#ArialMT-48"/>
       <use x="222.460938" xlink:href="#ArialMT-45"/>
       <use x="255.761719" xlink:href="#ArialMT-48"/>
       <use x="311.376953" xlink:href="#ArialMT-51"/>
       <use x="366.992188" xlink:href="#ArialMT-45"/>
       <use x="400.292969" xlink:href="#ArialMT-48"/>
       <use x="455.908203" xlink:href="#ArialMT-50"/>
      </g>
     </g>
    </g>
    <g id="xtick_30">
     <g id="line2d_30">
      <path clip-path="url(#pe1951f4c75)" d="M 1022.571667 482.49 
L 1022.571667 12.96 
" style="fill:none;stroke:#ffffff;stroke-linecap:round;"/>
     </g>
     <g id="text_30">
      <!-- 2020-03-03 -->
      <g style="fill:#262626;" transform="translate(1025.415339 548.251562)rotate(-90)scale(0.11 -0.11)">
       <use xlink:href="#ArialMT-50"/>
       <use x="55.615234" xlink:href="#ArialMT-48"/>
       <use x="111.230469" xlink:href="#ArialMT-50"/>
       <use x="166.845703" xlink:href="#ArialMT-48"/>
       <use x="222.460938" xlink:href="#ArialMT-45"/>
       <use x="255.761719" xlink:href="#ArialMT-48"/>
       <use x="311.376953" xlink:href="#ArialMT-51"/>
       <use x="366.992188" xlink:href="#ArialMT-45"/>
       <use x="400.292969" xlink:href="#ArialMT-48"/>
       <use x="455.908203" xlink:href="#ArialMT-51"/>
      </g>
     </g>
    </g>
    <g id="xtick_31">
     <g id="line2d_31">
      <path clip-path="url(#pe1951f4c75)" d="M 1055.848333 482.49 
L 1055.848333 12.96 
" style="fill:none;stroke:#ffffff;stroke-linecap:round;"/>
     </g>
     <g id="text_31">
      <!-- 2020-03-04 -->
      <g style="fill:#262626;" transform="translate(1058.692005 548.251562)rotate(-90)scale(0.11 -0.11)">
       <use xlink:href="#ArialMT-50"/>
       <use x="55.615234" xlink:href="#ArialMT-48"/>
       <use x="111.230469" xlink:href="#ArialMT-50"/>
       <use x="166.845703" xlink:href="#ArialMT-48"/>
       <use x="222.460938" xlink:href="#ArialMT-45"/>
       <use x="255.761719" xlink:href="#ArialMT-48"/>
       <use x="311.376953" xlink:href="#ArialMT-51"/>
       <use x="366.992188" xlink:href="#ArialMT-45"/>
       <use x="400.292969" xlink:href="#ArialMT-48"/>
       <use x="455.908203" xlink:href="#ArialMT-52"/>
      </g>
     </g>
    </g>
    <g id="xtick_32">
     <g id="line2d_32">
      <path clip-path="url(#pe1951f4c75)" d="M 1089.125 482.49 
L 1089.125 12.96 
" style="fill:none;stroke:#ffffff;stroke-linecap:round;"/>
     </g>
     <g id="text_32">
      <!-- 2020-03-05 -->
      <g style="fill:#262626;" transform="translate(1091.968672 548.251562)rotate(-90)scale(0.11 -0.11)">
       <use xlink:href="#ArialMT-50"/>
       <use x="55.615234" xlink:href="#ArialMT-48"/>
       <use x="111.230469" xlink:href="#ArialMT-50"/>
       <use x="166.845703" xlink:href="#ArialMT-48"/>
       <use x="222.460938" xlink:href="#ArialMT-45"/>
       <use x="255.761719" xlink:href="#ArialMT-48"/>
       <use x="311.376953" xlink:href="#ArialMT-51"/>
       <use x="366.992188" xlink:href="#ArialMT-45"/>
       <use x="400.292969" xlink:href="#ArialMT-48"/>
       <use x="455.908203" xlink:href="#ArialMT-53"/>
      </g>
     </g>
    </g>
    <g id="xtick_33">
     <g id="line2d_33">
      <path clip-path="url(#pe1951f4c75)" d="M 1122.401667 482.49 
L 1122.401667 12.96 
" style="fill:none;stroke:#ffffff;stroke-linecap:round;"/>
     </g>
     <g id="text_33">
      <!-- 2020-03-06 -->
      <g style="fill:#262626;" transform="translate(1125.245339 548.251562)rotate(-90)scale(0.11 -0.11)">
       <use xlink:href="#ArialMT-50"/>
       <use x="55.615234" xlink:href="#ArialMT-48"/>
       <use x="111.230469" xlink:href="#ArialMT-50"/>
       <use x="166.845703" xlink:href="#ArialMT-48"/>
       <use x="222.460938" xlink:href="#ArialMT-45"/>
       <use x="255.761719" xlink:href="#ArialMT-48"/>
       <use x="311.376953" xlink:href="#ArialMT-51"/>
       <use x="366.992188" xlink:href="#ArialMT-45"/>
       <use x="400.292969" xlink:href="#ArialMT-48"/>
       <use x="455.908203" xlink:href="#ArialMT-54"/>
      </g>
     </g>
    </g>
    <g id="text_34">
     <!-- Date -->
     <defs>
      <path d="M 7.71875 0 
L 7.71875 71.578125 
L 32.375 71.578125 
Q 40.71875 71.578125 45.125 70.5625 
Q 51.265625 69.140625 55.609375 65.4375 
Q 61.28125 60.640625 64.078125 53.1875 
Q 66.890625 45.75 66.890625 36.1875 
Q 66.890625 28.03125 64.984375 21.734375 
Q 63.09375 15.4375 60.109375 11.296875 
Q 57.125 7.171875 53.578125 4.796875 
Q 50.046875 2.4375 45.046875 1.21875 
Q 40.046875 0 33.546875 0 
z
M 17.1875 8.453125 
L 32.46875 8.453125 
Q 39.546875 8.453125 43.578125 9.765625 
Q 47.609375 11.078125 50 13.484375 
Q 53.375 16.84375 55.25 22.53125 
Q 57.125 28.21875 57.125 36.328125 
Q 57.125 47.5625 53.4375 53.59375 
Q 49.75 59.625 44.484375 61.671875 
Q 40.671875 63.140625 32.234375 63.140625 
L 17.1875 63.140625 
z
" id="ArialMT-68"/>
      <path d="M 40.4375 6.390625 
Q 35.546875 2.25 31.03125 0.53125 
Q 26.515625 -1.171875 21.34375 -1.171875 
Q 12.796875 -1.171875 8.203125 3 
Q 3.609375 7.171875 3.609375 13.671875 
Q 3.609375 17.484375 5.34375 20.625 
Q 7.078125 23.78125 9.890625 25.6875 
Q 12.703125 27.59375 16.21875 28.5625 
Q 18.796875 29.25 24.03125 29.890625 
Q 34.671875 31.15625 39.703125 32.90625 
Q 39.75 34.71875 39.75 35.203125 
Q 39.75 40.578125 37.25 42.78125 
Q 33.890625 45.75 27.25 45.75 
Q 21.046875 45.75 18.09375 43.578125 
Q 15.140625 41.40625 13.71875 35.890625 
L 5.125 37.0625 
Q 6.296875 42.578125 8.984375 45.96875 
Q 11.671875 49.359375 16.75 51.1875 
Q 21.828125 53.03125 28.515625 53.03125 
Q 35.15625 53.03125 39.296875 51.46875 
Q 43.453125 49.90625 45.40625 47.53125 
Q 47.359375 45.171875 48.140625 41.546875 
Q 48.578125 39.3125 48.578125 33.453125 
L 48.578125 21.734375 
Q 48.578125 9.46875 49.140625 6.21875 
Q 49.703125 2.984375 51.375 0 
L 42.1875 0 
Q 40.828125 2.734375 40.4375 6.390625 
z
M 39.703125 26.03125 
Q 34.90625 24.078125 25.34375 22.703125 
Q 19.921875 21.921875 17.671875 20.9375 
Q 15.4375 19.96875 14.203125 18.09375 
Q 12.984375 16.21875 12.984375 13.921875 
Q 12.984375 10.40625 15.640625 8.0625 
Q 18.3125 5.71875 23.4375 5.71875 
Q 28.515625 5.71875 32.46875 7.9375 
Q 36.421875 10.15625 38.28125 14.015625 
Q 39.703125 17 39.703125 22.796875 
z
" id="ArialMT-97"/>
      <path d="M 25.78125 7.859375 
L 27.046875 0.09375 
Q 23.34375 -0.6875 20.40625 -0.6875 
Q 15.625 -0.6875 12.984375 0.828125 
Q 10.359375 2.34375 9.28125 4.8125 
Q 8.203125 7.28125 8.203125 15.1875 
L 8.203125 45.015625 
L 1.765625 45.015625 
L 1.765625 51.859375 
L 8.203125 51.859375 
L 8.203125 64.703125 
L 16.9375 69.96875 
L 16.9375 51.859375 
L 25.78125 51.859375 
L 25.78125 45.015625 
L 16.9375 45.015625 
L 16.9375 14.703125 
Q 16.9375 10.9375 17.40625 9.859375 
Q 17.875 8.796875 18.921875 8.15625 
Q 19.96875 7.515625 21.921875 7.515625 
Q 23.390625 7.515625 25.78125 7.859375 
z
" id="ArialMT-116"/>
      <path d="M 42.09375 16.703125 
L 51.171875 15.578125 
Q 49.03125 7.625 43.21875 3.21875 
Q 37.40625 -1.171875 28.375 -1.171875 
Q 17 -1.171875 10.328125 5.828125 
Q 3.65625 12.84375 3.65625 25.484375 
Q 3.65625 38.578125 10.390625 45.796875 
Q 17.140625 53.03125 27.875 53.03125 
Q 38.28125 53.03125 44.875 45.953125 
Q 51.46875 38.875 51.46875 26.03125 
Q 51.46875 25.25 51.421875 23.6875 
L 12.75 23.6875 
Q 13.234375 15.140625 17.578125 10.59375 
Q 21.921875 6.0625 28.421875 6.0625 
Q 33.25 6.0625 36.671875 8.59375 
Q 40.09375 11.140625 42.09375 16.703125 
z
M 13.234375 30.90625 
L 42.1875 30.90625 
Q 41.609375 37.453125 38.875 40.71875 
Q 34.671875 45.796875 27.984375 45.796875 
Q 21.921875 45.796875 17.796875 41.75 
Q 13.671875 37.703125 13.234375 30.90625 
z
" id="ArialMT-101"/>
     </defs>
     <g style="fill:#262626;" transform="translate(577.301875 560.840937)scale(0.12 -0.12)">
      <use xlink:href="#ArialMT-68"/>
      <use x="72.216797" xlink:href="#ArialMT-97"/>
      <use x="127.832031" xlink:href="#ArialMT-116"/>
      <use x="155.615234" xlink:href="#ArialMT-101"/>
     </g>
    </g>
   </g>
   <g id="matplotlib.axis_2">
    <g id="ytick_1">
     <g id="line2d_34">
      <path clip-path="url(#pe1951f4c75)" d="M 40.91 482.49 
L 1139.04 482.49 
" style="fill:none;stroke:#ffffff;stroke-linecap:round;"/>
     </g>
     <g id="text_35">
      <!-- 0 -->
      <g style="fill:#262626;" transform="translate(25.292969 486.426797)scale(0.11 -0.11)">
       <use xlink:href="#ArialMT-48"/>
      </g>
     </g>
    </g>
    <g id="ytick_2">
     <g id="line2d_35">
      <path clip-path="url(#pe1951f4c75)" d="M 40.91 416.513238 
L 1139.04 416.513238 
" style="fill:none;stroke:#ffffff;stroke-linecap:round;"/>
     </g>
     <g id="text_36">
      <!-- 20 -->
      <g style="fill:#262626;" transform="translate(19.175937 420.450035)scale(0.11 -0.11)">
       <use xlink:href="#ArialMT-50"/>
       <use x="55.615234" xlink:href="#ArialMT-48"/>
      </g>
     </g>
    </g>
    <g id="ytick_3">
     <g id="line2d_36">
      <path clip-path="url(#pe1951f4c75)" d="M 40.91 350.536476 
L 1139.04 350.536476 
" style="fill:none;stroke:#ffffff;stroke-linecap:round;"/>
     </g>
     <g id="text_37">
      <!-- 40 -->
      <g style="fill:#262626;" transform="translate(19.175937 354.473273)scale(0.11 -0.11)">
       <use xlink:href="#ArialMT-52"/>
       <use x="55.615234" xlink:href="#ArialMT-48"/>
      </g>
     </g>
    </g>
    <g id="ytick_4">
     <g id="line2d_37">
      <path clip-path="url(#pe1951f4c75)" d="M 40.91 284.559714 
L 1139.04 284.559714 
" style="fill:none;stroke:#ffffff;stroke-linecap:round;"/>
     </g>
     <g id="text_38">
      <!-- 60 -->
      <g style="fill:#262626;" transform="translate(19.175937 288.496511)scale(0.11 -0.11)">
       <use xlink:href="#ArialMT-54"/>
       <use x="55.615234" xlink:href="#ArialMT-48"/>
      </g>
     </g>
    </g>
    <g id="ytick_5">
     <g id="line2d_38">
      <path clip-path="url(#pe1951f4c75)" d="M 40.91 218.582952 
L 1139.04 218.582952 
" style="fill:none;stroke:#ffffff;stroke-linecap:round;"/>
     </g>
     <g id="text_39">
      <!-- 80 -->
      <g style="fill:#262626;" transform="translate(19.175937 222.519749)scale(0.11 -0.11)">
       <use xlink:href="#ArialMT-56"/>
       <use x="55.615234" xlink:href="#ArialMT-48"/>
      </g>
     </g>
    </g>
    <g id="ytick_6">
     <g id="line2d_39">
      <path clip-path="url(#pe1951f4c75)" d="M 40.91 152.60619 
L 1139.04 152.60619 
" style="fill:none;stroke:#ffffff;stroke-linecap:round;"/>
     </g>
     <g id="text_40">
      <!-- 100 -->
      <g style="fill:#262626;" transform="translate(13.058906 156.542987)scale(0.11 -0.11)">
       <use xlink:href="#ArialMT-49"/>
       <use x="55.615234" xlink:href="#ArialMT-48"/>
       <use x="111.230469" xlink:href="#ArialMT-48"/>
      </g>
     </g>
    </g>
    <g id="ytick_7">
     <g id="line2d_40">
      <path clip-path="url(#pe1951f4c75)" d="M 40.91 86.629428 
L 1139.04 86.629428 
" style="fill:none;stroke:#ffffff;stroke-linecap:round;"/>
     </g>
     <g id="text_41">
      <!-- 120 -->
      <g style="fill:#262626;" transform="translate(13.058906 90.566225)scale(0.11 -0.11)">
       <use xlink:href="#ArialMT-49"/>
       <use x="55.615234" xlink:href="#ArialMT-50"/>
       <use x="111.230469" xlink:href="#ArialMT-48"/>
      </g>
     </g>
    </g>
    <g id="ytick_8">
     <g id="line2d_41">
      <path clip-path="url(#pe1951f4c75)" d="M 40.91 20.652667 
L 1139.04 20.652667 
" style="fill:none;stroke:#ffffff;stroke-linecap:round;"/>
     </g>
     <g id="text_42">
      <!-- 140 -->
      <g style="fill:#262626;" transform="translate(13.058906 24.589463)scale(0.11 -0.11)">
       <use xlink:href="#ArialMT-49"/>
       <use x="55.615234" xlink:href="#ArialMT-52"/>
       <use x="111.230469" xlink:href="#ArialMT-48"/>
      </g>
     </g>
    </g>
   </g>
   <g id="patch_3">
    <path clip-path="url(#pe1951f4c75)" d="M 49.229167 482.49 
L 57.548333 482.49 
L 57.548333 446.202781 
L 49.229167 446.202781 
z
" style="fill:#4c72b0;stroke:#ffffff;stroke-linejoin:miter;"/>
   </g>
   <g id="patch_4">
    <path clip-path="url(#pe1951f4c75)" d="M 82.505833 482.49 
L 90.825 482.49 
L 90.825 446.202781 
L 82.505833 446.202781 
z
" style="fill:#4c72b0;stroke:#ffffff;stroke-linejoin:miter;"/>
   </g>
   <g id="patch_5">
    <path clip-path="url(#pe1951f4c75)" d="M 115.7825 482.49 
L 124.101667 482.49 
L 124.101667 446.202781 
L 115.7825 446.202781 
z
" style="fill:#4c72b0;stroke:#ffffff;stroke-linejoin:miter;"/>
   </g>
   <g id="patch_6">
    <path clip-path="url(#pe1951f4c75)" d="M 149.059167 482.49 
L 157.378333 482.49 
L 157.378333 442.903943 
L 149.059167 442.903943 
z
" style="fill:#4c72b0;stroke:#ffffff;stroke-linejoin:miter;"/>
   </g>
   <g id="patch_7">
    <path clip-path="url(#pe1951f4c75)" d="M 182.335833 482.49 
L 190.655 482.49 
L 190.655 442.903943 
L 182.335833 442.903943 
z
" style="fill:#4c72b0;stroke:#ffffff;stroke-linejoin:miter;"/>
   </g>
   <g id="patch_8">
    <path clip-path="url(#pe1951f4c75)" d="M 215.6125 482.49 
L 223.931667 482.49 
L 223.931667 442.903943 
L 215.6125 442.903943 
z
" style="fill:#4c72b0;stroke:#ffffff;stroke-linejoin:miter;"/>
   </g>
   <g id="patch_9">
    <path clip-path="url(#pe1951f4c75)" d="M 248.889167 482.49 
L 257.208333 482.49 
L 257.208333 442.903943 
L 248.889167 442.903943 
z
" style="fill:#4c72b0;stroke:#ffffff;stroke-linejoin:miter;"/>
   </g>
   <g id="patch_10">
    <path clip-path="url(#pe1951f4c75)" d="M 282.165833 482.49 
L 290.485 482.49 
L 290.485 442.903943 
L 282.165833 442.903943 
z
" style="fill:#4c72b0;stroke:#ffffff;stroke-linejoin:miter;"/>
   </g>
   <g id="patch_11">
    <path clip-path="url(#pe1951f4c75)" d="M 315.4425 482.49 
L 323.761667 482.49 
L 323.761667 439.605105 
L 315.4425 439.605105 
z
" style="fill:#4c72b0;stroke:#ffffff;stroke-linejoin:miter;"/>
   </g>
   <g id="patch_12">
    <path clip-path="url(#pe1951f4c75)" d="M 348.719167 482.49 
L 357.038333 482.49 
L 357.038333 439.605105 
L 348.719167 439.605105 
z
" style="fill:#4c72b0;stroke:#ffffff;stroke-linejoin:miter;"/>
   </g>
   <g id="patch_13">
    <path clip-path="url(#pe1951f4c75)" d="M 381.995833 482.49 
L 390.315 482.49 
L 390.315 436.306267 
L 381.995833 436.306267 
z
" style="fill:#4c72b0;stroke:#ffffff;stroke-linejoin:miter;"/>
   </g>
   <g id="patch_14">
    <path clip-path="url(#pe1951f4c75)" d="M 415.2725 482.49 
L 423.591667 482.49 
L 423.591667 433.007429 
L 415.2725 433.007429 
z
" style="fill:#4c72b0;stroke:#ffffff;stroke-linejoin:miter;"/>
   </g>
   <g id="patch_15">
    <path clip-path="url(#pe1951f4c75)" d="M 448.549167 482.49 
L 456.868333 482.49 
L 456.868333 433.007429 
L 448.549167 433.007429 
z
" style="fill:#4c72b0;stroke:#ffffff;stroke-linejoin:miter;"/>
   </g>
   <g id="patch_16">
    <path clip-path="url(#pe1951f4c75)" d="M 481.825833 482.49 
L 490.145 482.49 
L 490.145 433.007429 
L 481.825833 433.007429 
z
" style="fill:#4c72b0;stroke:#ffffff;stroke-linejoin:miter;"/>
   </g>
   <g id="patch_17">
    <path clip-path="url(#pe1951f4c75)" d="M 515.1025 482.49 
L 523.421667 482.49 
L 523.421667 433.007429 
L 515.1025 433.007429 
z
" style="fill:#4c72b0;stroke:#ffffff;stroke-linejoin:miter;"/>
   </g>
   <g id="patch_18">
    <path clip-path="url(#pe1951f4c75)" d="M 548.379167 482.49 
L 556.698333 482.49 
L 556.698333 433.007429 
L 548.379167 433.007429 
z
" style="fill:#4c72b0;stroke:#ffffff;stroke-linejoin:miter;"/>
   </g>
   <g id="patch_19">
    <path clip-path="url(#pe1951f4c75)" d="M 581.655833 482.49 
L 589.975 482.49 
L 589.975 433.007429 
L 581.655833 433.007429 
z
" style="fill:#4c72b0;stroke:#ffffff;stroke-linejoin:miter;"/>
   </g>
   <g id="patch_20">
    <path clip-path="url(#pe1951f4c75)" d="M 614.9325 482.49 
L 623.251667 482.49 
L 623.251667 433.007429 
L 614.9325 433.007429 
z
" style="fill:#4c72b0;stroke:#ffffff;stroke-linejoin:miter;"/>
   </g>
   <g id="patch_21">
    <path clip-path="url(#pe1951f4c75)" d="M 648.209167 482.49 
L 656.528333 482.49 
L 656.528333 429.70859 
L 648.209167 429.70859 
z
" style="fill:#4c72b0;stroke:#ffffff;stroke-linejoin:miter;"/>
   </g>
   <g id="patch_22">
    <path clip-path="url(#pe1951f4c75)" d="M 681.485833 482.49 
L 689.805 482.49 
L 689.805 367.030667 
L 681.485833 367.030667 
z
" style="fill:#4c72b0;stroke:#ffffff;stroke-linejoin:miter;"/>
   </g>
   <g id="patch_23">
    <path clip-path="url(#pe1951f4c75)" d="M 714.7625 482.49 
L 723.081667 482.49 
L 723.081667 367.030667 
L 714.7625 367.030667 
z
" style="fill:#4c72b0;stroke:#ffffff;stroke-linejoin:miter;"/>
   </g>
   <g id="patch_24">
    <path clip-path="url(#pe1951f4c75)" d="M 748.039167 482.49 
L 756.358333 482.49 
L 756.358333 367.030667 
L 748.039167 367.030667 
z
" style="fill:#4c72b0;stroke:#ffffff;stroke-linejoin:miter;"/>
   </g>
   <g id="patch_25">
    <path clip-path="url(#pe1951f4c75)" d="M 781.315833 482.49 
L 789.635 482.49 
L 789.635 307.651581 
L 781.315833 307.651581 
z
" style="fill:#4c72b0;stroke:#ffffff;stroke-linejoin:miter;"/>
   </g>
   <g id="patch_26">
    <path clip-path="url(#pe1951f4c75)" d="M 814.5925 482.49 
L 822.911667 482.49 
L 822.911667 307.651581 
L 814.5925 307.651581 
z
" style="fill:#4c72b0;stroke:#ffffff;stroke-linejoin:miter;"/>
   </g>
   <g id="patch_27">
    <path clip-path="url(#pe1951f4c75)" d="M 847.869167 482.49 
L 856.188333 482.49 
L 856.188333 287.858552 
L 847.869167 287.858552 
z
" style="fill:#4c72b0;stroke:#ffffff;stroke-linejoin:miter;"/>
   </g>
   <g id="patch_28">
    <path clip-path="url(#pe1951f4c75)" d="M 881.145833 482.49 
L 889.465 482.49 
L 889.465 284.559714 
L 881.145833 284.559714 
z
" style="fill:#4c72b0;stroke:#ffffff;stroke-linejoin:miter;"/>
   </g>
   <g id="patch_29">
    <path clip-path="url(#pe1951f4c75)" d="M 914.4225 482.49 
L 922.741667 482.49 
L 922.741667 264.766686 
L 914.4225 264.766686 
z
" style="fill:#4c72b0;stroke:#ffffff;stroke-linejoin:miter;"/>
   </g>
   <g id="patch_30">
    <path clip-path="url(#pe1951f4c75)" d="M 947.699167 482.49 
L 956.018333 482.49 
L 956.018333 254.870171 
L 947.699167 254.870171 
z
" style="fill:#4c72b0;stroke:#ffffff;stroke-linejoin:miter;"/>
   </g>
   <g id="patch_31">
    <path clip-path="url(#pe1951f4c75)" d="M 980.975833 482.49 
L 989.295 482.49 
L 989.295 188.893409 
L 980.975833 188.893409 
z
" style="fill:#4c72b0;stroke:#ffffff;stroke-linejoin:miter;"/>
   </g>
   <g id="patch_32">
    <path clip-path="url(#pe1951f4c75)" d="M 1014.2525 482.49 
L 1022.571667 482.49 
L 1022.571667 142.709676 
L 1014.2525 142.709676 
z
" style="fill:#4c72b0;stroke:#ffffff;stroke-linejoin:miter;"/>
   </g>
   <g id="patch_33">
    <path clip-path="url(#pe1951f4c75)" d="M 1047.529167 482.49 
L 1055.848333 482.49 
L 1055.848333 482.49 
L 1047.529167 482.49 
z
" style="fill:#4c72b0;stroke:#ffffff;stroke-linejoin:miter;"/>
   </g>
   <g id="patch_34">
    <path clip-path="url(#pe1951f4c75)" d="M 1080.805833 482.49 
L 1089.125 482.49 
L 1089.125 482.49 
L 1080.805833 482.49 
z
" style="fill:#4c72b0;stroke:#ffffff;stroke-linejoin:miter;"/>
   </g>
   <g id="patch_35">
    <path clip-path="url(#pe1951f4c75)" d="M 1114.0825 482.49 
L 1122.401667 482.49 
L 1122.401667 482.49 
L 1114.0825 482.49 
z
" style="fill:#4c72b0;stroke:#ffffff;stroke-linejoin:miter;"/>
   </g>
   <g id="patch_36">
    <path clip-path="url(#pe1951f4c75)" d="M 57.548333 482.49 
L 65.8675 482.49 
L 65.8675 482.49 
L 57.548333 482.49 
z
" style="fill:#dd8452;stroke:#ffffff;stroke-linejoin:miter;"/>
   </g>
   <g id="patch_37">
    <path clip-path="url(#pe1951f4c75)" d="M 90.825 482.49 
L 99.144167 482.49 
L 99.144167 482.49 
L 90.825 482.49 
z
" style="fill:#dd8452;stroke:#ffffff;stroke-linejoin:miter;"/>
   </g>
   <g id="patch_38">
    <path clip-path="url(#pe1951f4c75)" d="M 124.101667 482.49 
L 132.420833 482.49 
L 132.420833 482.49 
L 124.101667 482.49 
z
" style="fill:#dd8452;stroke:#ffffff;stroke-linejoin:miter;"/>
   </g>
   <g id="patch_39">
    <path clip-path="url(#pe1951f4c75)" d="M 157.378333 482.49 
L 165.6975 482.49 
L 165.6975 482.49 
L 157.378333 482.49 
z
" style="fill:#dd8452;stroke:#ffffff;stroke-linejoin:miter;"/>
   </g>
   <g id="patch_40">
    <path clip-path="url(#pe1951f4c75)" d="M 190.655 482.49 
L 198.974167 482.49 
L 198.974167 482.49 
L 190.655 482.49 
z
" style="fill:#dd8452;stroke:#ffffff;stroke-linejoin:miter;"/>
   </g>
   <g id="patch_41">
    <path clip-path="url(#pe1951f4c75)" d="M 223.931667 482.49 
L 232.250833 482.49 
L 232.250833 482.49 
L 223.931667 482.49 
z
" style="fill:#dd8452;stroke:#ffffff;stroke-linejoin:miter;"/>
   </g>
   <g id="patch_42">
    <path clip-path="url(#pe1951f4c75)" d="M 257.208333 482.49 
L 265.5275 482.49 
L 265.5275 482.49 
L 257.208333 482.49 
z
" style="fill:#dd8452;stroke:#ffffff;stroke-linejoin:miter;"/>
   </g>
   <g id="patch_43">
    <path clip-path="url(#pe1951f4c75)" d="M 290.485 482.49 
L 298.804167 482.49 
L 298.804167 482.49 
L 290.485 482.49 
z
" style="fill:#dd8452;stroke:#ffffff;stroke-linejoin:miter;"/>
   </g>
   <g id="patch_44">
    <path clip-path="url(#pe1951f4c75)" d="M 323.761667 482.49 
L 332.080833 482.49 
L 332.080833 482.49 
L 323.761667 482.49 
z
" style="fill:#dd8452;stroke:#ffffff;stroke-linejoin:miter;"/>
   </g>
   <g id="patch_45">
    <path clip-path="url(#pe1951f4c75)" d="M 357.038333 482.49 
L 365.3575 482.49 
L 365.3575 482.49 
L 357.038333 482.49 
z
" style="fill:#dd8452;stroke:#ffffff;stroke-linejoin:miter;"/>
   </g>
   <g id="patch_46">
    <path clip-path="url(#pe1951f4c75)" d="M 390.315 482.49 
L 398.634167 482.49 
L 398.634167 482.49 
L 390.315 482.49 
z
" style="fill:#dd8452;stroke:#ffffff;stroke-linejoin:miter;"/>
   </g>
   <g id="patch_47">
    <path clip-path="url(#pe1951f4c75)" d="M 423.591667 482.49 
L 431.910833 482.49 
L 431.910833 482.49 
L 423.591667 482.49 
z
" style="fill:#dd8452;stroke:#ffffff;stroke-linejoin:miter;"/>
   </g>
   <g id="patch_48">
    <path clip-path="url(#pe1951f4c75)" d="M 456.868333 482.49 
L 465.1875 482.49 
L 465.1875 482.49 
L 456.868333 482.49 
z
" style="fill:#dd8452;stroke:#ffffff;stroke-linejoin:miter;"/>
   </g>
   <g id="patch_49">
    <path clip-path="url(#pe1951f4c75)" d="M 490.145 482.49 
L 498.464167 482.49 
L 498.464167 482.49 
L 490.145 482.49 
z
" style="fill:#dd8452;stroke:#ffffff;stroke-linejoin:miter;"/>
   </g>
   <g id="patch_50">
    <path clip-path="url(#pe1951f4c75)" d="M 523.421667 482.49 
L 531.740833 482.49 
L 531.740833 482.49 
L 523.421667 482.49 
z
" style="fill:#dd8452;stroke:#ffffff;stroke-linejoin:miter;"/>
   </g>
   <g id="patch_51">
    <path clip-path="url(#pe1951f4c75)" d="M 556.698333 482.49 
L 565.0175 482.49 
L 565.0175 482.49 
L 556.698333 482.49 
z
" style="fill:#dd8452;stroke:#ffffff;stroke-linejoin:miter;"/>
   </g>
   <g id="patch_52">
    <path clip-path="url(#pe1951f4c75)" d="M 589.975 482.49 
L 598.294167 482.49 
L 598.294167 482.49 
L 589.975 482.49 
z
" style="fill:#dd8452;stroke:#ffffff;stroke-linejoin:miter;"/>
   </g>
   <g id="patch_53">
    <path clip-path="url(#pe1951f4c75)" d="M 623.251667 482.49 
L 631.570833 482.49 
L 631.570833 482.49 
L 623.251667 482.49 
z
" style="fill:#dd8452;stroke:#ffffff;stroke-linejoin:miter;"/>
   </g>
   <g id="patch_54">
    <path clip-path="url(#pe1951f4c75)" d="M 656.528333 482.49 
L 664.8475 482.49 
L 664.8475 482.49 
L 656.528333 482.49 
z
" style="fill:#dd8452;stroke:#ffffff;stroke-linejoin:miter;"/>
   </g>
   <g id="patch_55">
    <path clip-path="url(#pe1951f4c75)" d="M 689.805 482.49 
L 698.124167 482.49 
L 698.124167 482.49 
L 689.805 482.49 
z
" style="fill:#dd8452;stroke:#ffffff;stroke-linejoin:miter;"/>
   </g>
   <g id="patch_56">
    <path clip-path="url(#pe1951f4c75)" d="M 723.081667 482.49 
L 731.400833 482.49 
L 731.400833 482.49 
L 723.081667 482.49 
z
" style="fill:#dd8452;stroke:#ffffff;stroke-linejoin:miter;"/>
   </g>
   <g id="patch_57">
    <path clip-path="url(#pe1951f4c75)" d="M 756.358333 482.49 
L 764.6775 482.49 
L 764.6775 482.49 
L 756.358333 482.49 
z
" style="fill:#dd8452;stroke:#ffffff;stroke-linejoin:miter;"/>
   </g>
   <g id="patch_58">
    <path clip-path="url(#pe1951f4c75)" d="M 789.635 482.49 
L 797.954167 482.49 
L 797.954167 482.49 
L 789.635 482.49 
z
" style="fill:#dd8452;stroke:#ffffff;stroke-linejoin:miter;"/>
   </g>
   <g id="patch_59">
    <path clip-path="url(#pe1951f4c75)" d="M 822.911667 482.49 
L 831.230833 482.49 
L 831.230833 482.49 
L 822.911667 482.49 
z
" style="fill:#dd8452;stroke:#ffffff;stroke-linejoin:miter;"/>
   </g>
   <g id="patch_60">
    <path clip-path="url(#pe1951f4c75)" d="M 856.188333 482.49 
L 864.5075 482.49 
L 864.5075 482.49 
L 856.188333 482.49 
z
" style="fill:#dd8452;stroke:#ffffff;stroke-linejoin:miter;"/>
   </g>
   <g id="patch_61">
    <path clip-path="url(#pe1951f4c75)" d="M 889.465 482.49 
L 897.784167 482.49 
L 897.784167 482.49 
L 889.465 482.49 
z
" style="fill:#dd8452;stroke:#ffffff;stroke-linejoin:miter;"/>
   </g>
   <g id="patch_62">
    <path clip-path="url(#pe1951f4c75)" d="M 922.741667 482.49 
L 931.060833 482.49 
L 931.060833 482.49 
L 922.741667 482.49 
z
" style="fill:#dd8452;stroke:#ffffff;stroke-linejoin:miter;"/>
   </g>
   <g id="patch_63">
    <path clip-path="url(#pe1951f4c75)" d="M 956.018333 482.49 
L 964.3375 482.49 
L 964.3375 482.49 
L 956.018333 482.49 
z
" style="fill:#dd8452;stroke:#ffffff;stroke-linejoin:miter;"/>
   </g>
   <g id="patch_64">
    <path clip-path="url(#pe1951f4c75)" d="M 989.295 482.49 
L 997.614167 482.49 
L 997.614167 482.49 
L 989.295 482.49 
z
" style="fill:#dd8452;stroke:#ffffff;stroke-linejoin:miter;"/>
   </g>
   <g id="patch_65">
    <path clip-path="url(#pe1951f4c75)" d="M 1022.571667 482.49 
L 1030.890833 482.49 
L 1030.890833 482.49 
L 1022.571667 482.49 
z
" style="fill:#dd8452;stroke:#ffffff;stroke-linejoin:miter;"/>
   </g>
   <g id="patch_66">
    <path clip-path="url(#pe1951f4c75)" d="M 1055.848333 482.49 
L 1064.1675 482.49 
L 1064.1675 125.152102 
L 1055.848333 125.152102 
z
" style="fill:#dd8452;stroke:#ffffff;stroke-linejoin:miter;"/>
   </g>
   <g id="patch_67">
    <path clip-path="url(#pe1951f4c75)" d="M 1089.125 482.49 
L 1097.444167 482.49 
L 1097.444167 82.744114 
L 1089.125 82.744114 
z
" style="fill:#dd8452;stroke:#ffffff;stroke-linejoin:miter;"/>
   </g>
   <g id="patch_68">
    <path clip-path="url(#pe1951f4c75)" d="M 1122.401667 482.49 
L 1130.720833 482.49 
L 1130.720833 35.318571 
L 1122.401667 35.318571 
z
" style="fill:#dd8452;stroke:#ffffff;stroke-linejoin:miter;"/>
   </g>
   <g id="line2d_42">
    <path clip-path="url(#pe1951f4c75)" d="M 57.548333 470.328431 
L 90.825 468.871068 
L 124.101667 467.239591 
L 157.378333 465.413263 
L 190.655 463.368881 
L 223.931667 461.080492 
L 257.208333 458.519058 
L 290.485 455.652102 
L 323.761667 452.44329 
L 357.038333 448.851985 
L 390.315 444.832732 
L 423.591667 440.33469 
L 456.868333 435.300998 
L 490.145 429.668061 
L 523.421667 423.36476 
L 556.698333 416.311558 
L 589.975 408.419512 
L 623.251667 399.589161 
L 656.528333 389.709288 
L 689.805 378.655532 
L 723.081667 366.288845 
L 756.358333 352.453756 
L 789.635 336.976441 
L 822.911667 319.662562 
L 856.188333 300.294854 
L 889.465 278.630432 
L 922.741667 254.39777 
L 956.018333 227.293343 
L 989.295 196.977865 
L 1022.571667 163.072085 
L 1055.848333 125.152102 
L 1089.125 82.744114 
L 1122.401667 35.318571 
" style="fill:none;stroke:#ff0000;stroke-linecap:round;stroke-width:1.5;"/>
   </g>
   <g id="patch_69">
    <path d="M 40.91 482.49 
L 40.91 12.96 
" style="fill:none;stroke:#ffffff;stroke-linecap:square;stroke-linejoin:miter;stroke-width:1.25;"/>
   </g>
   <g id="patch_70">
    <path d="M 1139.04 482.49 
L 1139.04 12.96 
" style="fill:none;stroke:#ffffff;stroke-linecap:square;stroke-linejoin:miter;stroke-width:1.25;"/>
   </g>
   <g id="patch_71">
    <path d="M 40.91 482.49 
L 1139.04 482.49 
" style="fill:none;stroke:#ffffff;stroke-linecap:square;stroke-linejoin:miter;stroke-width:1.25;"/>
   </g>
   <g id="patch_72">
    <path d="M 40.91 12.96 
L 1139.04 12.96 
" style="fill:none;stroke:#ffffff;stroke-linecap:square;stroke-linejoin:miter;stroke-width:1.25;"/>
   </g>
   <g id="legend_1">
    <g id="patch_73">
     <path d="M 48.61 68.568438 
L 134.5475 68.568438 
Q 136.7475 68.568438 136.7475 66.368438 
L 136.7475 20.66 
Q 136.7475 18.46 134.5475 18.46 
L 48.61 18.46 
Q 46.41 18.46 46.41 20.66 
L 46.41 66.368438 
Q 46.41 68.568438 48.61 68.568438 
z
" style="fill:#eaeaf2;opacity:0.8;stroke:#cccccc;stroke-linejoin:miter;"/>
    </g>
    <g id="line2d_43">
     <path d="M 50.81 26.883594 
L 72.81 26.883594 
" style="fill:none;stroke:#ff0000;stroke-linecap:round;stroke-width:1.5;"/>
    </g>
    <g id="line2d_44"/>
    <g id="text_43">
     <!-- Estimate -->
     <defs>
      <path d="M 7.90625 0 
L 7.90625 71.578125 
L 59.671875 71.578125 
L 59.671875 63.140625 
L 17.390625 63.140625 
L 17.390625 41.21875 
L 56.984375 41.21875 
L 56.984375 32.8125 
L 17.390625 32.8125 
L 17.390625 8.453125 
L 61.328125 8.453125 
L 61.328125 0 
z
" id="ArialMT-69"/>
      <path d="M 3.078125 15.484375 
L 11.765625 16.84375 
Q 12.5 11.625 15.84375 8.84375 
Q 19.1875 6.0625 25.203125 6.0625 
Q 31.25 6.0625 34.171875 8.515625 
Q 37.109375 10.984375 37.109375 14.3125 
Q 37.109375 17.28125 34.515625 19 
Q 32.71875 20.171875 25.53125 21.96875 
Q 15.875 24.421875 12.140625 26.203125 
Q 8.40625 27.984375 6.46875 31.125 
Q 4.546875 34.28125 4.546875 38.09375 
Q 4.546875 41.546875 6.125 44.5 
Q 7.71875 47.46875 10.453125 49.421875 
Q 12.5 50.921875 16.03125 51.96875 
Q 19.578125 53.03125 23.640625 53.03125 
Q 29.734375 53.03125 34.34375 51.265625 
Q 38.96875 49.515625 41.15625 46.5 
Q 43.359375 43.5 44.1875 38.484375 
L 35.59375 37.3125 
Q 35.015625 41.3125 32.203125 43.546875 
Q 29.390625 45.796875 24.265625 45.796875 
Q 18.21875 45.796875 15.625 43.796875 
Q 13.03125 41.796875 13.03125 39.109375 
Q 13.03125 37.40625 14.109375 36.03125 
Q 15.1875 34.625 17.484375 33.6875 
Q 18.796875 33.203125 25.25 31.453125 
Q 34.578125 28.953125 38.25 27.359375 
Q 41.9375 25.78125 44.03125 22.75 
Q 46.140625 19.734375 46.140625 15.234375 
Q 46.140625 10.84375 43.578125 6.953125 
Q 41.015625 3.078125 36.171875 0.953125 
Q 31.34375 -1.171875 25.25 -1.171875 
Q 15.140625 -1.171875 9.84375 3.03125 
Q 4.546875 7.234375 3.078125 15.484375 
z
" id="ArialMT-115"/>
      <path d="M 6.640625 61.46875 
L 6.640625 71.578125 
L 15.4375 71.578125 
L 15.4375 61.46875 
z
M 6.640625 0 
L 6.640625 51.859375 
L 15.4375 51.859375 
L 15.4375 0 
z
" id="ArialMT-105"/>
      <path d="M 6.59375 0 
L 6.59375 51.859375 
L 14.453125 51.859375 
L 14.453125 44.578125 
Q 16.890625 48.390625 20.9375 50.703125 
Q 25 53.03125 30.171875 53.03125 
Q 35.9375 53.03125 39.625 50.640625 
Q 43.3125 48.25 44.828125 43.953125 
Q 50.984375 53.03125 60.84375 53.03125 
Q 68.5625 53.03125 72.703125 48.75 
Q 76.859375 44.484375 76.859375 35.59375 
L 76.859375 0 
L 68.109375 0 
L 68.109375 32.671875 
Q 68.109375 37.9375 67.25 40.25 
Q 66.40625 42.578125 64.15625 43.984375 
Q 61.921875 45.40625 58.890625 45.40625 
Q 53.421875 45.40625 49.796875 41.765625 
Q 46.1875 38.140625 46.1875 30.125 
L 46.1875 0 
L 37.40625 0 
L 37.40625 33.6875 
Q 37.40625 39.546875 35.25 42.46875 
Q 33.109375 45.40625 28.21875 45.40625 
Q 24.515625 45.40625 21.359375 43.453125 
Q 18.21875 41.5 16.796875 37.734375 
Q 15.375 33.984375 15.375 26.90625 
L 15.375 0 
z
" id="ArialMT-109"/>
     </defs>
     <g style="fill:#262626;" transform="translate(81.61 30.733594)scale(0.11 -0.11)">
      <use xlink:href="#ArialMT-69"/>
      <use x="66.699219" xlink:href="#ArialMT-115"/>
      <use x="116.699219" xlink:href="#ArialMT-116"/>
      <use x="144.482422" xlink:href="#ArialMT-105"/>
      <use x="166.699219" xlink:href="#ArialMT-109"/>
      <use x="250" xlink:href="#ArialMT-97"/>
      <use x="305.615234" xlink:href="#ArialMT-116"/>
      <use x="333.398438" xlink:href="#ArialMT-101"/>
     </g>
    </g>
    <g id="patch_74">
     <path d="M 50.81 46.293438 
L 72.81 46.293438 
L 72.81 38.593438 
L 50.81 38.593438 
z
" style="fill:#4c72b0;stroke:#ffffff;stroke-linejoin:miter;"/>
    </g>
    <g id="text_44">
     <!-- Confirmed -->
     <defs>
      <path d="M 58.796875 25.09375 
L 68.265625 22.703125 
Q 65.28125 11.03125 57.546875 4.90625 
Q 49.8125 -1.21875 38.625 -1.21875 
Q 27.046875 -1.21875 19.796875 3.484375 
Q 12.546875 8.203125 8.765625 17.140625 
Q 4.984375 26.078125 4.984375 36.328125 
Q 4.984375 47.515625 9.25 55.828125 
Q 13.53125 64.15625 21.40625 68.46875 
Q 29.296875 72.796875 38.765625 72.796875 
Q 49.515625 72.796875 56.828125 67.328125 
Q 64.15625 61.859375 67.046875 51.953125 
L 57.71875 49.75 
Q 55.21875 57.5625 50.484375 61.125 
Q 45.75 64.703125 38.578125 64.703125 
Q 30.328125 64.703125 24.78125 60.734375 
Q 19.234375 56.78125 16.984375 50.109375 
Q 14.75 43.453125 14.75 36.375 
Q 14.75 27.25 17.40625 20.4375 
Q 20.0625 13.625 25.671875 10.25 
Q 31.296875 6.890625 37.84375 6.890625 
Q 45.796875 6.890625 51.3125 11.46875 
Q 56.84375 16.0625 58.796875 25.09375 
z
" id="ArialMT-67"/>
      <path d="M 3.328125 25.921875 
Q 3.328125 40.328125 11.328125 47.265625 
Q 18.015625 53.03125 27.640625 53.03125 
Q 38.328125 53.03125 45.109375 46.015625 
Q 51.90625 39.015625 51.90625 26.65625 
Q 51.90625 16.65625 48.90625 10.90625 
Q 45.90625 5.171875 40.15625 2 
Q 34.421875 -1.171875 27.640625 -1.171875 
Q 16.75 -1.171875 10.03125 5.8125 
Q 3.328125 12.796875 3.328125 25.921875 
z
M 12.359375 25.921875 
Q 12.359375 15.96875 16.703125 11.015625 
Q 21.046875 6.0625 27.640625 6.0625 
Q 34.1875 6.0625 38.53125 11.03125 
Q 42.875 16.015625 42.875 26.21875 
Q 42.875 35.84375 38.5 40.796875 
Q 34.125 45.75 27.640625 45.75 
Q 21.046875 45.75 16.703125 40.8125 
Q 12.359375 35.890625 12.359375 25.921875 
z
" id="ArialMT-111"/>
      <path d="M 6.59375 0 
L 6.59375 51.859375 
L 14.5 51.859375 
L 14.5 44.484375 
Q 20.21875 53.03125 31 53.03125 
Q 35.6875 53.03125 39.625 51.34375 
Q 43.5625 49.65625 45.515625 46.921875 
Q 47.46875 44.1875 48.25 40.4375 
Q 48.734375 37.984375 48.734375 31.890625 
L 48.734375 0 
L 39.9375 0 
L 39.9375 31.546875 
Q 39.9375 36.921875 38.90625 39.578125 
Q 37.890625 42.234375 35.28125 43.8125 
Q 32.671875 45.40625 29.15625 45.40625 
Q 23.53125 45.40625 19.453125 41.84375 
Q 15.375 38.28125 15.375 28.328125 
L 15.375 0 
z
" id="ArialMT-110"/>
      <path d="M 8.6875 0 
L 8.6875 45.015625 
L 0.921875 45.015625 
L 0.921875 51.859375 
L 8.6875 51.859375 
L 8.6875 57.375 
Q 8.6875 62.59375 9.625 65.140625 
Q 10.890625 68.5625 14.078125 70.671875 
Q 17.28125 72.796875 23.046875 72.796875 
Q 26.765625 72.796875 31.25 71.921875 
L 29.9375 64.265625 
Q 27.203125 64.75 24.75 64.75 
Q 20.75 64.75 19.09375 63.03125 
Q 17.4375 61.328125 17.4375 56.640625 
L 17.4375 51.859375 
L 27.546875 51.859375 
L 27.546875 45.015625 
L 17.4375 45.015625 
L 17.4375 0 
z
" id="ArialMT-102"/>
      <path d="M 6.5 0 
L 6.5 51.859375 
L 14.40625 51.859375 
L 14.40625 44 
Q 17.4375 49.515625 20 51.265625 
Q 22.5625 53.03125 25.640625 53.03125 
Q 30.078125 53.03125 34.671875 50.203125 
L 31.640625 42.046875 
Q 28.421875 43.953125 25.203125 43.953125 
Q 22.3125 43.953125 20.015625 42.21875 
Q 17.71875 40.484375 16.75 37.40625 
Q 15.28125 32.71875 15.28125 27.15625 
L 15.28125 0 
z
" id="ArialMT-114"/>
      <path d="M 40.234375 0 
L 40.234375 6.546875 
Q 35.296875 -1.171875 25.734375 -1.171875 
Q 19.53125 -1.171875 14.328125 2.25 
Q 9.125 5.671875 6.265625 11.796875 
Q 3.421875 17.921875 3.421875 25.875 
Q 3.421875 33.640625 6 39.96875 
Q 8.59375 46.296875 13.765625 49.65625 
Q 18.953125 53.03125 25.34375 53.03125 
Q 30.03125 53.03125 33.6875 51.046875 
Q 37.359375 49.078125 39.65625 45.90625 
L 39.65625 71.578125 
L 48.390625 71.578125 
L 48.390625 0 
z
M 12.453125 25.875 
Q 12.453125 15.921875 16.640625 10.984375 
Q 20.84375 6.0625 26.5625 6.0625 
Q 32.328125 6.0625 36.34375 10.765625 
Q 40.375 15.484375 40.375 25.140625 
Q 40.375 35.796875 36.265625 40.765625 
Q 32.171875 45.75 26.171875 45.75 
Q 20.3125 45.75 16.375 40.96875 
Q 12.453125 36.1875 12.453125 25.875 
z
" id="ArialMT-100"/>
     </defs>
     <g style="fill:#262626;" transform="translate(81.61 46.293438)scale(0.11 -0.11)">
      <use xlink:href="#ArialMT-67"/>
      <use x="72.216797" xlink:href="#ArialMT-111"/>
      <use x="127.832031" xlink:href="#ArialMT-110"/>
      <use x="183.447266" xlink:href="#ArialMT-102"/>
      <use x="211.230469" xlink:href="#ArialMT-105"/>
      <use x="233.447266" xlink:href="#ArialMT-114"/>
      <use x="266.748047" xlink:href="#ArialMT-109"/>
      <use x="350.048828" xlink:href="#ArialMT-101"/>
      <use x="405.664062" xlink:href="#ArialMT-100"/>
     </g>
    </g>
    <g id="patch_75">
     <path d="M 50.81 61.853281 
L 72.81 61.853281 
L 72.81 54.153281 
L 50.81 54.153281 
z
" style="fill:#dd8452;stroke:#ffffff;stroke-linejoin:miter;"/>
    </g>
    <g id="text_45">
     <!-- Projected -->
     <defs>
      <path d="M 7.71875 0 
L 7.71875 71.578125 
L 34.71875 71.578125 
Q 41.84375 71.578125 45.609375 70.90625 
Q 50.875 70.015625 54.4375 67.546875 
Q 58.015625 65.09375 60.1875 60.640625 
Q 62.359375 56.203125 62.359375 50.875 
Q 62.359375 41.75 56.546875 35.421875 
Q 50.734375 29.109375 35.546875 29.109375 
L 17.1875 29.109375 
L 17.1875 0 
z
M 17.1875 37.546875 
L 35.6875 37.546875 
Q 44.875 37.546875 48.734375 40.96875 
Q 52.59375 44.390625 52.59375 50.59375 
Q 52.59375 55.078125 50.3125 58.265625 
Q 48.046875 61.46875 44.34375 62.5 
Q 41.9375 63.140625 35.5 63.140625 
L 17.1875 63.140625 
z
" id="ArialMT-80"/>
      <path d="M 6.546875 61.375 
L 6.546875 71.578125 
L 15.328125 71.578125 
L 15.328125 61.375 
z
M -4.59375 -20.125 
L -2.9375 -12.640625 
Q -0.296875 -13.328125 1.21875 -13.328125 
Q 3.90625 -13.328125 5.21875 -11.546875 
Q 6.546875 -9.765625 6.546875 -2.640625 
L 6.546875 51.859375 
L 15.328125 51.859375 
L 15.328125 -2.828125 
Q 15.328125 -12.40625 12.84375 -16.15625 
Q 9.671875 -21.046875 2.296875 -21.046875 
Q -1.265625 -21.046875 -4.59375 -20.125 
z
" id="ArialMT-106"/>
      <path d="M 40.4375 19 
L 49.078125 17.875 
Q 47.65625 8.9375 41.8125 3.875 
Q 35.984375 -1.171875 27.484375 -1.171875 
Q 16.84375 -1.171875 10.375 5.78125 
Q 3.90625 12.75 3.90625 25.734375 
Q 3.90625 34.125 6.6875 40.421875 
Q 9.46875 46.734375 15.15625 49.875 
Q 20.84375 53.03125 27.546875 53.03125 
Q 35.984375 53.03125 41.359375 48.75 
Q 46.734375 44.484375 48.25 36.625 
L 39.703125 35.296875 
Q 38.484375 40.53125 35.375 43.15625 
Q 32.28125 45.796875 27.875 45.796875 
Q 21.234375 45.796875 17.078125 41.03125 
Q 12.9375 36.28125 12.9375 25.984375 
Q 12.9375 15.53125 16.9375 10.796875 
Q 20.953125 6.0625 27.390625 6.0625 
Q 32.5625 6.0625 36.03125 9.234375 
Q 39.5 12.40625 40.4375 19 
z
" id="ArialMT-99"/>
     </defs>
     <g style="fill:#262626;" transform="translate(81.61 61.853281)scale(0.11 -0.11)">
      <use xlink:href="#ArialMT-80"/>
      <use x="66.699219" xlink:href="#ArialMT-114"/>
      <use x="100" xlink:href="#ArialMT-111"/>
      <use x="155.615234" xlink:href="#ArialMT-106"/>
      <use x="177.832031" xlink:href="#ArialMT-101"/>
      <use x="233.447266" xlink:href="#ArialMT-99"/>
      <use x="283.447266" xlink:href="#ArialMT-116"/>
      <use x="311.230469" xlink:href="#ArialMT-101"/>
      <use x="366.845703" xlink:href="#ArialMT-100"/>
     </g>
    </g>
   </g>
  </g>
 </g>
 <defs>
  <clipPath id="pe1951f4c75">
   <rect height="469.53" width="1098.13" x="40.91" y="12.96"/>
  </clipPath>
 </defs>
</svg>
