<?xml version="1.0" encoding="utf-8" standalone="no"?>
<!DOCTYPE svg PUBLIC "-//W3C//DTD SVG 1.1//EN"
  "http://www.w3.org/Graphics/SVG/1.1/DTD/svg11.dtd">
<!-- Created with matplotlib (https://matplotlib.org/) -->
<svg height="576pt" version="1.1" viewBox="0 0 1152 576" width="1152pt" xmlns="http://www.w3.org/2000/svg" xmlns:xlink="http://www.w3.org/1999/xlink">
 <defs>
  <style type="text/css">
*{stroke-linecap:butt;stroke-linejoin:round;}
  </style>
 </defs>
 <g id="figure_1">
  <g id="patch_1">
   <path d="M 0 576 
L 1152 576 
L 1152 0 
L 0 0 
z
" style="fill:#ffffff;"/>
  </g>
  <g id="axes_1">
   <g id="patch_2">
    <path d="M 40.82 482.49 
L 1139.04 482.49 
L 1139.04 12.96 
L 40.82 12.96 
z
" style="fill:#eaeaf2;"/>
   </g>
   <g id="matplotlib.axis_1">
    <g id="xtick_1">
     <g id="line2d_1">
      <path clip-path="url(#p9d79d873a8)" d="M 52.026327 482.49 
L 52.026327 12.96 
" style="fill:none;stroke:#ffffff;stroke-linecap:round;"/>
     </g>
     <g id="text_1">
      <!-- 2020-01-31 -->
      <defs>
       <path d="M 50.34375 8.453125 
L 50.34375 0 
L 3.03125 0 
Q 2.9375 3.171875 4.046875 6.109375 
Q 5.859375 10.9375 9.828125 15.625 
Q 13.8125 20.3125 21.34375 26.46875 
Q 33.015625 36.03125 37.109375 41.625 
Q 41.21875 47.21875 41.21875 52.203125 
Q 41.21875 57.421875 37.46875 61 
Q 33.734375 64.59375 27.734375 64.59375 
Q 21.390625 64.59375 17.578125 60.78125 
Q 13.765625 56.984375 13.71875 50.25 
L 4.6875 51.171875 
Q 5.609375 61.28125 11.65625 66.578125 
Q 17.71875 71.875 27.9375 71.875 
Q 38.234375 71.875 44.234375 66.15625 
Q 50.25 60.453125 50.25 52 
Q 50.25 47.703125 48.484375 43.546875 
Q 46.734375 39.40625 42.65625 34.8125 
Q 38.578125 30.21875 29.109375 22.21875 
Q 21.1875 15.578125 18.9375 13.203125 
Q 16.703125 10.84375 15.234375 8.453125 
z
" id="ArialMT-50"/>
       <path d="M 4.15625 35.296875 
Q 4.15625 48 6.765625 55.734375 
Q 9.375 63.484375 14.515625 67.671875 
Q 19.671875 71.875 27.484375 71.875 
Q 33.25 71.875 37.59375 69.546875 
Q 41.9375 67.234375 44.765625 62.859375 
Q 47.609375 58.5 49.21875 52.21875 
Q 50.828125 45.953125 50.828125 35.296875 
Q 50.828125 22.703125 48.234375 14.96875 
Q 45.65625 7.234375 40.5 3 
Q 35.359375 -1.21875 27.484375 -1.21875 
Q 17.140625 -1.21875 11.234375 6.203125 
Q 4.15625 15.140625 4.15625 35.296875 
z
M 13.1875 35.296875 
Q 13.1875 17.671875 17.3125 11.828125 
Q 21.4375 6 27.484375 6 
Q 33.546875 6 37.671875 11.859375 
Q 41.796875 17.71875 41.796875 35.296875 
Q 41.796875 52.984375 37.671875 58.78125 
Q 33.546875 64.59375 27.390625 64.59375 
Q 21.34375 64.59375 17.71875 59.46875 
Q 13.1875 52.9375 13.1875 35.296875 
z
" id="ArialMT-48"/>
       <path d="M 3.171875 21.484375 
L 3.171875 30.328125 
L 30.171875 30.328125 
L 30.171875 21.484375 
z
" id="ArialMT-45"/>
       <path d="M 37.25 0 
L 28.46875 0 
L 28.46875 56 
Q 25.296875 52.984375 20.140625 49.953125 
Q 14.984375 46.921875 10.890625 45.40625 
L 10.890625 53.90625 
Q 18.265625 57.375 23.78125 62.296875 
Q 29.296875 67.234375 31.59375 71.875 
L 37.25 71.875 
z
" id="ArialMT-49"/>
       <path d="M 4.203125 18.890625 
L 12.984375 20.0625 
Q 14.5 12.59375 18.140625 9.296875 
Q 21.78125 6 27 6 
Q 33.203125 6 37.46875 10.296875 
Q 41.75 14.59375 41.75 20.953125 
Q 41.75 27 37.796875 30.921875 
Q 33.84375 34.859375 27.734375 34.859375 
Q 25.25 34.859375 21.53125 33.890625 
L 22.515625 41.609375 
Q 23.390625 41.5 23.921875 41.5 
Q 29.546875 41.5 34.03125 44.421875 
Q 38.53125 47.359375 38.53125 53.46875 
Q 38.53125 58.296875 35.25 61.46875 
Q 31.984375 64.65625 26.8125 64.65625 
Q 21.6875 64.65625 18.265625 61.421875 
Q 14.84375 58.203125 13.875 51.765625 
L 5.078125 53.328125 
Q 6.6875 62.15625 12.390625 67.015625 
Q 18.109375 71.875 26.609375 71.875 
Q 32.46875 71.875 37.390625 69.359375 
Q 42.328125 66.84375 44.9375 62.5 
Q 47.5625 58.15625 47.5625 53.265625 
Q 47.5625 48.640625 45.0625 44.828125 
Q 42.578125 41.015625 37.703125 38.765625 
Q 44.046875 37.3125 47.5625 32.6875 
Q 51.078125 28.078125 51.078125 21.140625 
Q 51.078125 11.765625 44.234375 5.25 
Q 37.40625 -1.265625 26.953125 -1.265625 
Q 17.53125 -1.265625 11.296875 4.34375 
Q 5.078125 9.96875 4.203125 18.890625 
z
" id="ArialMT-51"/>
      </defs>
      <g style="fill:#262626;" transform="translate(54.869998 548.251562)rotate(-90)scale(0.11 -0.11)">
       <use xlink:href="#ArialMT-50"/>
       <use x="55.615234" xlink:href="#ArialMT-48"/>
       <use x="111.230469" xlink:href="#ArialMT-50"/>
       <use x="166.845703" xlink:href="#ArialMT-48"/>
       <use x="222.460938" xlink:href="#ArialMT-45"/>
       <use x="255.761719" xlink:href="#ArialMT-48"/>
       <use x="311.376953" xlink:href="#ArialMT-49"/>
       <use x="366.992188" xlink:href="#ArialMT-45"/>
       <use x="400.292969" xlink:href="#ArialMT-51"/>
       <use x="455.908203" xlink:href="#ArialMT-49"/>
      </g>
     </g>
    </g>
    <g id="xtick_2">
     <g id="line2d_2">
      <path clip-path="url(#p9d79d873a8)" d="M 74.43898 482.49 
L 74.43898 12.96 
" style="fill:none;stroke:#ffffff;stroke-linecap:round;"/>
     </g>
     <g id="text_2">
      <!-- 2020-02-01 -->
      <g style="fill:#262626;" transform="translate(77.282651 548.251562)rotate(-90)scale(0.11 -0.11)">
       <use xlink:href="#ArialMT-50"/>
       <use x="55.615234" xlink:href="#ArialMT-48"/>
       <use x="111.230469" xlink:href="#ArialMT-50"/>
       <use x="166.845703" xlink:href="#ArialMT-48"/>
       <use x="222.460938" xlink:href="#ArialMT-45"/>
       <use x="255.761719" xlink:href="#ArialMT-48"/>
       <use x="311.376953" xlink:href="#ArialMT-50"/>
       <use x="366.992188" xlink:href="#ArialMT-45"/>
       <use x="400.292969" xlink:href="#ArialMT-48"/>
       <use x="455.908203" xlink:href="#ArialMT-49"/>
      </g>
     </g>
    </g>
    <g id="xtick_3">
     <g id="line2d_3">
      <path clip-path="url(#p9d79d873a8)" d="M 96.851633 482.49 
L 96.851633 12.96 
" style="fill:none;stroke:#ffffff;stroke-linecap:round;"/>
     </g>
     <g id="text_3">
      <!-- 2020-02-02 -->
      <g style="fill:#262626;" transform="translate(99.695305 548.251562)rotate(-90)scale(0.11 -0.11)">
       <use xlink:href="#ArialMT-50"/>
       <use x="55.615234" xlink:href="#ArialMT-48"/>
       <use x="111.230469" xlink:href="#ArialMT-50"/>
       <use x="166.845703" xlink:href="#ArialMT-48"/>
       <use x="222.460938" xlink:href="#ArialMT-45"/>
       <use x="255.761719" xlink:href="#ArialMT-48"/>
       <use x="311.376953" xlink:href="#ArialMT-50"/>
       <use x="366.992188" xlink:href="#ArialMT-45"/>
       <use x="400.292969" xlink:href="#ArialMT-48"/>
       <use x="455.908203" xlink:href="#ArialMT-50"/>
      </g>
     </g>
    </g>
    <g id="xtick_4">
     <g id="line2d_4">
      <path clip-path="url(#p9d79d873a8)" d="M 119.264286 482.49 
L 119.264286 12.96 
" style="fill:none;stroke:#ffffff;stroke-linecap:round;"/>
     </g>
     <g id="text_4">
      <!-- 2020-02-03 -->
      <g style="fill:#262626;" transform="translate(122.107958 548.251562)rotate(-90)scale(0.11 -0.11)">
       <use xlink:href="#ArialMT-50"/>
       <use x="55.615234" xlink:href="#ArialMT-48"/>
       <use x="111.230469" xlink:href="#ArialMT-50"/>
       <use x="166.845703" xlink:href="#ArialMT-48"/>
       <use x="222.460938" xlink:href="#ArialMT-45"/>
       <use x="255.761719" xlink:href="#ArialMT-48"/>
       <use x="311.376953" xlink:href="#ArialMT-50"/>
       <use x="366.992188" xlink:href="#ArialMT-45"/>
       <use x="400.292969" xlink:href="#ArialMT-48"/>
       <use x="455.908203" xlink:href="#ArialMT-51"/>
      </g>
     </g>
    </g>
    <g id="xtick_5">
     <g id="line2d_5">
      <path clip-path="url(#p9d79d873a8)" d="M 141.676939 482.49 
L 141.676939 12.96 
" style="fill:none;stroke:#ffffff;stroke-linecap:round;"/>
     </g>
     <g id="text_5">
      <!-- 2020-02-04 -->
      <defs>
       <path d="M 32.328125 0 
L 32.328125 17.140625 
L 1.265625 17.140625 
L 1.265625 25.203125 
L 33.9375 71.578125 
L 41.109375 71.578125 
L 41.109375 25.203125 
L 50.78125 25.203125 
L 50.78125 17.140625 
L 41.109375 17.140625 
L 41.109375 0 
z
M 32.328125 25.203125 
L 32.328125 57.46875 
L 9.90625 25.203125 
z
" id="ArialMT-52"/>
      </defs>
      <g style="fill:#262626;" transform="translate(144.520611 548.251562)rotate(-90)scale(0.11 -0.11)">
       <use xlink:href="#ArialMT-50"/>
       <use x="55.615234" xlink:href="#ArialMT-48"/>
       <use x="111.230469" xlink:href="#ArialMT-50"/>
       <use x="166.845703" xlink:href="#ArialMT-48"/>
       <use x="222.460938" xlink:href="#ArialMT-45"/>
       <use x="255.761719" xlink:href="#ArialMT-48"/>
       <use x="311.376953" xlink:href="#ArialMT-50"/>
       <use x="366.992188" xlink:href="#ArialMT-45"/>
       <use x="400.292969" xlink:href="#ArialMT-48"/>
       <use x="455.908203" xlink:href="#ArialMT-52"/>
      </g>
     </g>
    </g>
    <g id="xtick_6">
     <g id="line2d_6">
      <path clip-path="url(#p9d79d873a8)" d="M 164.089592 482.49 
L 164.089592 12.96 
" style="fill:none;stroke:#ffffff;stroke-linecap:round;"/>
     </g>
     <g id="text_6">
      <!-- 2020-02-05 -->
      <defs>
       <path d="M 4.15625 18.75 
L 13.375 19.53125 
Q 14.40625 12.796875 18.140625 9.390625 
Q 21.875 6 27.15625 6 
Q 33.5 6 37.890625 10.78125 
Q 42.28125 15.578125 42.28125 23.484375 
Q 42.28125 31 38.0625 35.34375 
Q 33.84375 39.703125 27 39.703125 
Q 22.75 39.703125 19.328125 37.765625 
Q 15.921875 35.84375 13.96875 32.765625 
L 5.71875 33.84375 
L 12.640625 70.609375 
L 48.25 70.609375 
L 48.25 62.203125 
L 19.671875 62.203125 
L 15.828125 42.96875 
Q 22.265625 47.46875 29.34375 47.46875 
Q 38.71875 47.46875 45.15625 40.96875 
Q 51.609375 34.46875 51.609375 24.265625 
Q 51.609375 14.546875 45.953125 7.46875 
Q 39.0625 -1.21875 27.15625 -1.21875 
Q 17.390625 -1.21875 11.203125 4.25 
Q 5.03125 9.71875 4.15625 18.75 
z
" id="ArialMT-53"/>
      </defs>
      <g style="fill:#262626;" transform="translate(166.933264 548.251562)rotate(-90)scale(0.11 -0.11)">
       <use xlink:href="#ArialMT-50"/>
       <use x="55.615234" xlink:href="#ArialMT-48"/>
       <use x="111.230469" xlink:href="#ArialMT-50"/>
       <use x="166.845703" xlink:href="#ArialMT-48"/>
       <use x="222.460938" xlink:href="#ArialMT-45"/>
       <use x="255.761719" xlink:href="#ArialMT-48"/>
       <use x="311.376953" xlink:href="#ArialMT-50"/>
       <use x="366.992188" xlink:href="#ArialMT-45"/>
       <use x="400.292969" xlink:href="#ArialMT-48"/>
       <use x="455.908203" xlink:href="#ArialMT-53"/>
      </g>
     </g>
    </g>
    <g id="xtick_7">
     <g id="line2d_7">
      <path clip-path="url(#p9d79d873a8)" d="M 186.502245 482.49 
L 186.502245 12.96 
" style="fill:none;stroke:#ffffff;stroke-linecap:round;"/>
     </g>
     <g id="text_7">
      <!-- 2020-02-06 -->
      <defs>
       <path d="M 49.75 54.046875 
L 41.015625 53.375 
Q 39.84375 58.546875 37.703125 60.890625 
Q 34.125 64.65625 28.90625 64.65625 
Q 24.703125 64.65625 21.53125 62.3125 
Q 17.390625 59.28125 14.984375 53.46875 
Q 12.59375 47.65625 12.5 36.921875 
Q 15.671875 41.75 20.265625 44.09375 
Q 24.859375 46.4375 29.890625 46.4375 
Q 38.671875 46.4375 44.84375 39.96875 
Q 51.03125 33.5 51.03125 23.25 
Q 51.03125 16.5 48.125 10.71875 
Q 45.21875 4.9375 40.140625 1.859375 
Q 35.0625 -1.21875 28.609375 -1.21875 
Q 17.625 -1.21875 10.6875 6.859375 
Q 3.765625 14.9375 3.765625 33.5 
Q 3.765625 54.25 11.421875 63.671875 
Q 18.109375 71.875 29.4375 71.875 
Q 37.890625 71.875 43.28125 67.140625 
Q 48.6875 62.40625 49.75 54.046875 
z
M 13.875 23.1875 
Q 13.875 18.65625 15.796875 14.5 
Q 17.71875 10.359375 21.1875 8.171875 
Q 24.65625 6 28.46875 6 
Q 34.03125 6 38.03125 10.484375 
Q 42.046875 14.984375 42.046875 22.703125 
Q 42.046875 30.125 38.078125 34.390625 
Q 34.125 38.671875 28.125 38.671875 
Q 22.171875 38.671875 18.015625 34.390625 
Q 13.875 30.125 13.875 23.1875 
z
" id="ArialMT-54"/>
      </defs>
      <g style="fill:#262626;" transform="translate(189.345917 548.251562)rotate(-90)scale(0.11 -0.11)">
       <use xlink:href="#ArialMT-50"/>
       <use x="55.615234" xlink:href="#ArialMT-48"/>
       <use x="111.230469" xlink:href="#ArialMT-50"/>
       <use x="166.845703" xlink:href="#ArialMT-48"/>
       <use x="222.460938" xlink:href="#ArialMT-45"/>
       <use x="255.761719" xlink:href="#ArialMT-48"/>
       <use x="311.376953" xlink:href="#ArialMT-50"/>
       <use x="366.992188" xlink:href="#ArialMT-45"/>
       <use x="400.292969" xlink:href="#ArialMT-48"/>
       <use x="455.908203" xlink:href="#ArialMT-54"/>
      </g>
     </g>
    </g>
    <g id="xtick_8">
     <g id="line2d_8">
      <path clip-path="url(#p9d79d873a8)" d="M 208.914898 482.49 
L 208.914898 12.96 
" style="fill:none;stroke:#ffffff;stroke-linecap:round;"/>
     </g>
     <g id="text_8">
      <!-- 2020-02-07 -->
      <defs>
       <path d="M 4.734375 62.203125 
L 4.734375 70.65625 
L 51.078125 70.65625 
L 51.078125 63.8125 
Q 44.234375 56.546875 37.515625 44.484375 
Q 30.8125 32.421875 27.15625 19.671875 
Q 24.515625 10.6875 23.78125 0 
L 14.75 0 
Q 14.890625 8.453125 18.0625 20.40625 
Q 21.234375 32.375 27.171875 43.484375 
Q 33.109375 54.59375 39.796875 62.203125 
z
" id="ArialMT-55"/>
      </defs>
      <g style="fill:#262626;" transform="translate(211.75857 548.251562)rotate(-90)scale(0.11 -0.11)">
       <use xlink:href="#ArialMT-50"/>
       <use x="55.615234" xlink:href="#ArialMT-48"/>
       <use x="111.230469" xlink:href="#ArialMT-50"/>
       <use x="166.845703" xlink:href="#ArialMT-48"/>
       <use x="222.460938" xlink:href="#ArialMT-45"/>
       <use x="255.761719" xlink:href="#ArialMT-48"/>
       <use x="311.376953" xlink:href="#ArialMT-50"/>
       <use x="366.992188" xlink:href="#ArialMT-45"/>
       <use x="400.292969" xlink:href="#ArialMT-48"/>
       <use x="455.908203" xlink:href="#ArialMT-55"/>
      </g>
     </g>
    </g>
    <g id="xtick_9">
     <g id="line2d_9">
      <path clip-path="url(#p9d79d873a8)" d="M 231.327551 482.49 
L 231.327551 12.96 
" style="fill:none;stroke:#ffffff;stroke-linecap:round;"/>
     </g>
     <g id="text_9">
      <!-- 2020-02-08 -->
      <defs>
       <path d="M 17.671875 38.8125 
Q 12.203125 40.828125 9.5625 44.53125 
Q 6.9375 48.25 6.9375 53.421875 
Q 6.9375 61.234375 12.546875 66.546875 
Q 18.171875 71.875 27.484375 71.875 
Q 36.859375 71.875 42.578125 66.421875 
Q 48.296875 60.984375 48.296875 53.171875 
Q 48.296875 48.1875 45.671875 44.5 
Q 43.0625 40.828125 37.75 38.8125 
Q 44.34375 36.671875 47.78125 31.875 
Q 51.21875 27.09375 51.21875 20.453125 
Q 51.21875 11.28125 44.71875 5.03125 
Q 38.234375 -1.21875 27.640625 -1.21875 
Q 17.046875 -1.21875 10.546875 5.046875 
Q 4.046875 11.328125 4.046875 20.703125 
Q 4.046875 27.6875 7.59375 32.390625 
Q 11.140625 37.109375 17.671875 38.8125 
z
M 15.921875 53.71875 
Q 15.921875 48.640625 19.1875 45.40625 
Q 22.46875 42.1875 27.6875 42.1875 
Q 32.765625 42.1875 36.015625 45.375 
Q 39.265625 48.578125 39.265625 53.21875 
Q 39.265625 58.0625 35.90625 61.359375 
Q 32.5625 64.65625 27.59375 64.65625 
Q 22.5625 64.65625 19.234375 61.421875 
Q 15.921875 58.203125 15.921875 53.71875 
z
M 13.09375 20.65625 
Q 13.09375 16.890625 14.875 13.375 
Q 16.65625 9.859375 20.171875 7.921875 
Q 23.6875 6 27.734375 6 
Q 34.03125 6 38.125 10.046875 
Q 42.234375 14.109375 42.234375 20.359375 
Q 42.234375 26.703125 38.015625 30.859375 
Q 33.796875 35.015625 27.4375 35.015625 
Q 21.234375 35.015625 17.15625 30.90625 
Q 13.09375 26.8125 13.09375 20.65625 
z
" id="ArialMT-56"/>
      </defs>
      <g style="fill:#262626;" transform="translate(234.171223 548.251562)rotate(-90)scale(0.11 -0.11)">
       <use xlink:href="#ArialMT-50"/>
       <use x="55.615234" xlink:href="#ArialMT-48"/>
       <use x="111.230469" xlink:href="#ArialMT-50"/>
       <use x="166.845703" xlink:href="#ArialMT-48"/>
       <use x="222.460938" xlink:href="#ArialMT-45"/>
       <use x="255.761719" xlink:href="#ArialMT-48"/>
       <use x="311.376953" xlink:href="#ArialMT-50"/>
       <use x="366.992188" xlink:href="#ArialMT-45"/>
       <use x="400.292969" xlink:href="#ArialMT-48"/>
       <use x="455.908203" xlink:href="#ArialMT-56"/>
      </g>
     </g>
    </g>
    <g id="xtick_10">
     <g id="line2d_10">
      <path clip-path="url(#p9d79d873a8)" d="M 253.740204 482.49 
L 253.740204 12.96 
" style="fill:none;stroke:#ffffff;stroke-linecap:round;"/>
     </g>
     <g id="text_10">
      <!-- 2020-02-09 -->
      <defs>
       <path d="M 5.46875 16.546875 
L 13.921875 17.328125 
Q 14.984375 11.375 18.015625 8.6875 
Q 21.046875 6 25.78125 6 
Q 29.828125 6 32.875 7.859375 
Q 35.9375 9.71875 37.890625 12.8125 
Q 39.84375 15.921875 41.15625 21.1875 
Q 42.484375 26.46875 42.484375 31.9375 
Q 42.484375 32.515625 42.4375 33.6875 
Q 39.796875 29.5 35.234375 26.875 
Q 30.671875 24.265625 25.34375 24.265625 
Q 16.453125 24.265625 10.296875 30.703125 
Q 4.15625 37.15625 4.15625 47.703125 
Q 4.15625 58.59375 10.578125 65.234375 
Q 17 71.875 26.65625 71.875 
Q 33.640625 71.875 39.421875 68.109375 
Q 45.21875 64.359375 48.21875 57.390625 
Q 51.21875 50.4375 51.21875 37.25 
Q 51.21875 23.53125 48.234375 15.40625 
Q 45.265625 7.28125 39.375 3.03125 
Q 33.5 -1.21875 25.59375 -1.21875 
Q 17.1875 -1.21875 11.859375 3.4375 
Q 6.546875 8.109375 5.46875 16.546875 
z
M 41.453125 48.140625 
Q 41.453125 55.71875 37.421875 60.15625 
Q 33.40625 64.59375 27.734375 64.59375 
Q 21.875 64.59375 17.53125 59.8125 
Q 13.1875 55.03125 13.1875 47.40625 
Q 13.1875 40.578125 17.3125 36.296875 
Q 21.4375 32.03125 27.484375 32.03125 
Q 33.59375 32.03125 37.515625 36.296875 
Q 41.453125 40.578125 41.453125 48.140625 
z
" id="ArialMT-57"/>
      </defs>
      <g style="fill:#262626;" transform="translate(256.583876 548.251562)rotate(-90)scale(0.11 -0.11)">
       <use xlink:href="#ArialMT-50"/>
       <use x="55.615234" xlink:href="#ArialMT-48"/>
       <use x="111.230469" xlink:href="#ArialMT-50"/>
       <use x="166.845703" xlink:href="#ArialMT-48"/>
       <use x="222.460938" xlink:href="#ArialMT-45"/>
       <use x="255.761719" xlink:href="#ArialMT-48"/>
       <use x="311.376953" xlink:href="#ArialMT-50"/>
       <use x="366.992188" xlink:href="#ArialMT-45"/>
       <use x="400.292969" xlink:href="#ArialMT-48"/>
       <use x="455.908203" xlink:href="#ArialMT-57"/>
      </g>
     </g>
    </g>
    <g id="xtick_11">
     <g id="line2d_11">
      <path clip-path="url(#p9d79d873a8)" d="M 276.152857 482.49 
L 276.152857 12.96 
" style="fill:none;stroke:#ffffff;stroke-linecap:round;"/>
     </g>
     <g id="text_11">
      <!-- 2020-02-10 -->
      <g style="fill:#262626;" transform="translate(278.996529 548.251562)rotate(-90)scale(0.11 -0.11)">
       <use xlink:href="#ArialMT-50"/>
       <use x="55.615234" xlink:href="#ArialMT-48"/>
       <use x="111.230469" xlink:href="#ArialMT-50"/>
       <use x="166.845703" xlink:href="#ArialMT-48"/>
       <use x="222.460938" xlink:href="#ArialMT-45"/>
       <use x="255.761719" xlink:href="#ArialMT-48"/>
       <use x="311.376953" xlink:href="#ArialMT-50"/>
       <use x="366.992188" xlink:href="#ArialMT-45"/>
       <use x="400.292969" xlink:href="#ArialMT-49"/>
       <use x="455.908203" xlink:href="#ArialMT-48"/>
      </g>
     </g>
    </g>
    <g id="xtick_12">
     <g id="line2d_12">
      <path clip-path="url(#p9d79d873a8)" d="M 298.56551 482.49 
L 298.56551 12.96 
" style="fill:none;stroke:#ffffff;stroke-linecap:round;"/>
     </g>
     <g id="text_12">
      <!-- 2020-02-11 -->
      <g style="fill:#262626;" transform="translate(301.409182 548.239531)rotate(-90)scale(0.11 -0.11)">
       <use xlink:href="#ArialMT-50"/>
       <use x="55.615234" xlink:href="#ArialMT-48"/>
       <use x="111.230469" xlink:href="#ArialMT-50"/>
       <use x="166.845703" xlink:href="#ArialMT-48"/>
       <use x="222.460938" xlink:href="#ArialMT-45"/>
       <use x="255.761719" xlink:href="#ArialMT-48"/>
       <use x="311.376953" xlink:href="#ArialMT-50"/>
       <use x="366.992188" xlink:href="#ArialMT-45"/>
       <use x="400.292969" xlink:href="#ArialMT-49"/>
       <use x="455.798828" xlink:href="#ArialMT-49"/>
      </g>
     </g>
    </g>
    <g id="xtick_13">
     <g id="line2d_13">
      <path clip-path="url(#p9d79d873a8)" d="M 320.978163 482.49 
L 320.978163 12.96 
" style="fill:none;stroke:#ffffff;stroke-linecap:round;"/>
     </g>
     <g id="text_13">
      <!-- 2020-02-12 -->
      <g style="fill:#262626;" transform="translate(323.821835 548.251562)rotate(-90)scale(0.11 -0.11)">
       <use xlink:href="#ArialMT-50"/>
       <use x="55.615234" xlink:href="#ArialMT-48"/>
       <use x="111.230469" xlink:href="#ArialMT-50"/>
       <use x="166.845703" xlink:href="#ArialMT-48"/>
       <use x="222.460938" xlink:href="#ArialMT-45"/>
       <use x="255.761719" xlink:href="#ArialMT-48"/>
       <use x="311.376953" xlink:href="#ArialMT-50"/>
       <use x="366.992188" xlink:href="#ArialMT-45"/>
       <use x="400.292969" xlink:href="#ArialMT-49"/>
       <use x="455.908203" xlink:href="#ArialMT-50"/>
      </g>
     </g>
    </g>
    <g id="xtick_14">
     <g id="line2d_14">
      <path clip-path="url(#p9d79d873a8)" d="M 343.390816 482.49 
L 343.390816 12.96 
" style="fill:none;stroke:#ffffff;stroke-linecap:round;"/>
     </g>
     <g id="text_14">
      <!-- 2020-02-13 -->
      <g style="fill:#262626;" transform="translate(346.234488 548.251562)rotate(-90)scale(0.11 -0.11)">
       <use xlink:href="#ArialMT-50"/>
       <use x="55.615234" xlink:href="#ArialMT-48"/>
       <use x="111.230469" xlink:href="#ArialMT-50"/>
       <use x="166.845703" xlink:href="#ArialMT-48"/>
       <use x="222.460938" xlink:href="#ArialMT-45"/>
       <use x="255.761719" xlink:href="#ArialMT-48"/>
       <use x="311.376953" xlink:href="#ArialMT-50"/>
       <use x="366.992188" xlink:href="#ArialMT-45"/>
       <use x="400.292969" xlink:href="#ArialMT-49"/>
       <use x="455.908203" xlink:href="#ArialMT-51"/>
      </g>
     </g>
    </g>
    <g id="xtick_15">
     <g id="line2d_15">
      <path clip-path="url(#p9d79d873a8)" d="M 365.803469 482.49 
L 365.803469 12.96 
" style="fill:none;stroke:#ffffff;stroke-linecap:round;"/>
     </g>
     <g id="text_15">
      <!-- 2020-02-14 -->
      <g style="fill:#262626;" transform="translate(368.647141 548.251562)rotate(-90)scale(0.11 -0.11)">
       <use xlink:href="#ArialMT-50"/>
       <use x="55.615234" xlink:href="#ArialMT-48"/>
       <use x="111.230469" xlink:href="#ArialMT-50"/>
       <use x="166.845703" xlink:href="#ArialMT-48"/>
       <use x="222.460938" xlink:href="#ArialMT-45"/>
       <use x="255.761719" xlink:href="#ArialMT-48"/>
       <use x="311.376953" xlink:href="#ArialMT-50"/>
       <use x="366.992188" xlink:href="#ArialMT-45"/>
       <use x="400.292969" xlink:href="#ArialMT-49"/>
       <use x="455.908203" xlink:href="#ArialMT-52"/>
      </g>
     </g>
    </g>
    <g id="xtick_16">
     <g id="line2d_16">
      <path clip-path="url(#p9d79d873a8)" d="M 388.216122 482.49 
L 388.216122 12.96 
" style="fill:none;stroke:#ffffff;stroke-linecap:round;"/>
     </g>
     <g id="text_16">
      <!-- 2020-02-15 -->
      <g style="fill:#262626;" transform="translate(391.059794 548.251562)rotate(-90)scale(0.11 -0.11)">
       <use xlink:href="#ArialMT-50"/>
       <use x="55.615234" xlink:href="#ArialMT-48"/>
       <use x="111.230469" xlink:href="#ArialMT-50"/>
       <use x="166.845703" xlink:href="#ArialMT-48"/>
       <use x="222.460938" xlink:href="#ArialMT-45"/>
       <use x="255.761719" xlink:href="#ArialMT-48"/>
       <use x="311.376953" xlink:href="#ArialMT-50"/>
       <use x="366.992188" xlink:href="#ArialMT-45"/>
       <use x="400.292969" xlink:href="#ArialMT-49"/>
       <use x="455.908203" xlink:href="#ArialMT-53"/>
      </g>
     </g>
    </g>
    <g id="xtick_17">
     <g id="line2d_17">
      <path clip-path="url(#p9d79d873a8)" d="M 410.628776 482.49 
L 410.628776 12.96 
" style="fill:none;stroke:#ffffff;stroke-linecap:round;"/>
     </g>
     <g id="text_17">
      <!-- 2020-02-16 -->
      <g style="fill:#262626;" transform="translate(413.472447 548.251562)rotate(-90)scale(0.11 -0.11)">
       <use xlink:href="#ArialMT-50"/>
       <use x="55.615234" xlink:href="#ArialMT-48"/>
       <use x="111.230469" xlink:href="#ArialMT-50"/>
       <use x="166.845703" xlink:href="#ArialMT-48"/>
       <use x="222.460938" xlink:href="#ArialMT-45"/>
       <use x="255.761719" xlink:href="#ArialMT-48"/>
       <use x="311.376953" xlink:href="#ArialMT-50"/>
       <use x="366.992188" xlink:href="#ArialMT-45"/>
       <use x="400.292969" xlink:href="#ArialMT-49"/>
       <use x="455.908203" xlink:href="#ArialMT-54"/>
      </g>
     </g>
    </g>
    <g id="xtick_18">
     <g id="line2d_18">
      <path clip-path="url(#p9d79d873a8)" d="M 433.041429 482.49 
L 433.041429 12.96 
" style="fill:none;stroke:#ffffff;stroke-linecap:round;"/>
     </g>
     <g id="text_18">
      <!-- 2020-02-17 -->
      <g style="fill:#262626;" transform="translate(435.8851 548.251562)rotate(-90)scale(0.11 -0.11)">
       <use xlink:href="#ArialMT-50"/>
       <use x="55.615234" xlink:href="#ArialMT-48"/>
       <use x="111.230469" xlink:href="#ArialMT-50"/>
       <use x="166.845703" xlink:href="#ArialMT-48"/>
       <use x="222.460938" xlink:href="#ArialMT-45"/>
       <use x="255.761719" xlink:href="#ArialMT-48"/>
       <use x="311.376953" xlink:href="#ArialMT-50"/>
       <use x="366.992188" xlink:href="#ArialMT-45"/>
       <use x="400.292969" xlink:href="#ArialMT-49"/>
       <use x="455.908203" xlink:href="#ArialMT-55"/>
      </g>
     </g>
    </g>
    <g id="xtick_19">
     <g id="line2d_19">
      <path clip-path="url(#p9d79d873a8)" d="M 455.454082 482.49 
L 455.454082 12.96 
" style="fill:none;stroke:#ffffff;stroke-linecap:round;"/>
     </g>
     <g id="text_19">
      <!-- 2020-02-18 -->
      <g style="fill:#262626;" transform="translate(458.297754 548.251562)rotate(-90)scale(0.11 -0.11)">
       <use xlink:href="#ArialMT-50"/>
       <use x="55.615234" xlink:href="#ArialMT-48"/>
       <use x="111.230469" xlink:href="#ArialMT-50"/>
       <use x="166.845703" xlink:href="#ArialMT-48"/>
       <use x="222.460938" xlink:href="#ArialMT-45"/>
       <use x="255.761719" xlink:href="#ArialMT-48"/>
       <use x="311.376953" xlink:href="#ArialMT-50"/>
       <use x="366.992188" xlink:href="#ArialMT-45"/>
       <use x="400.292969" xlink:href="#ArialMT-49"/>
       <use x="455.908203" xlink:href="#ArialMT-56"/>
      </g>
     </g>
    </g>
    <g id="xtick_20">
     <g id="line2d_20">
      <path clip-path="url(#p9d79d873a8)" d="M 477.866735 482.49 
L 477.866735 12.96 
" style="fill:none;stroke:#ffffff;stroke-linecap:round;"/>
     </g>
     <g id="text_20">
      <!-- 2020-02-19 -->
      <g style="fill:#262626;" transform="translate(480.710407 548.251562)rotate(-90)scale(0.11 -0.11)">
       <use xlink:href="#ArialMT-50"/>
       <use x="55.615234" xlink:href="#ArialMT-48"/>
       <use x="111.230469" xlink:href="#ArialMT-50"/>
       <use x="166.845703" xlink:href="#ArialMT-48"/>
       <use x="222.460938" xlink:href="#ArialMT-45"/>
       <use x="255.761719" xlink:href="#ArialMT-48"/>
       <use x="311.376953" xlink:href="#ArialMT-50"/>
       <use x="366.992188" xlink:href="#ArialMT-45"/>
       <use x="400.292969" xlink:href="#ArialMT-49"/>
       <use x="455.908203" xlink:href="#ArialMT-57"/>
      </g>
     </g>
    </g>
    <g id="xtick_21">
     <g id="line2d_21">
      <path clip-path="url(#p9d79d873a8)" d="M 500.279388 482.49 
L 500.279388 12.96 
" style="fill:none;stroke:#ffffff;stroke-linecap:round;"/>
     </g>
     <g id="text_21">
      <!-- 2020-02-20 -->
      <g style="fill:#262626;" transform="translate(503.12306 548.251562)rotate(-90)scale(0.11 -0.11)">
       <use xlink:href="#ArialMT-50"/>
       <use x="55.615234" xlink:href="#ArialMT-48"/>
       <use x="111.230469" xlink:href="#ArialMT-50"/>
       <use x="166.845703" xlink:href="#ArialMT-48"/>
       <use x="222.460938" xlink:href="#ArialMT-45"/>
       <use x="255.761719" xlink:href="#ArialMT-48"/>
       <use x="311.376953" xlink:href="#ArialMT-50"/>
       <use x="366.992188" xlink:href="#ArialMT-45"/>
       <use x="400.292969" xlink:href="#ArialMT-50"/>
       <use x="455.908203" xlink:href="#ArialMT-48"/>
      </g>
     </g>
    </g>
    <g id="xtick_22">
     <g id="line2d_22">
      <path clip-path="url(#p9d79d873a8)" d="M 522.692041 482.49 
L 522.692041 12.96 
" style="fill:none;stroke:#ffffff;stroke-linecap:round;"/>
     </g>
     <g id="text_22">
      <!-- 2020-02-21 -->
      <g style="fill:#262626;" transform="translate(525.535713 548.251562)rotate(-90)scale(0.11 -0.11)">
       <use xlink:href="#ArialMT-50"/>
       <use x="55.615234" xlink:href="#ArialMT-48"/>
       <use x="111.230469" xlink:href="#ArialMT-50"/>
       <use x="166.845703" xlink:href="#ArialMT-48"/>
       <use x="222.460938" xlink:href="#ArialMT-45"/>
       <use x="255.761719" xlink:href="#ArialMT-48"/>
       <use x="311.376953" xlink:href="#ArialMT-50"/>
       <use x="366.992188" xlink:href="#ArialMT-45"/>
       <use x="400.292969" xlink:href="#ArialMT-50"/>
       <use x="455.908203" xlink:href="#ArialMT-49"/>
      </g>
     </g>
    </g>
    <g id="xtick_23">
     <g id="line2d_23">
      <path clip-path="url(#p9d79d873a8)" d="M 545.104694 482.49 
L 545.104694 12.96 
" style="fill:none;stroke:#ffffff;stroke-linecap:round;"/>
     </g>
     <g id="text_23">
      <!-- 2020-02-22 -->
      <g style="fill:#262626;" transform="translate(547.948366 548.251562)rotate(-90)scale(0.11 -0.11)">
       <use xlink:href="#ArialMT-50"/>
       <use x="55.615234" xlink:href="#ArialMT-48"/>
       <use x="111.230469" xlink:href="#ArialMT-50"/>
       <use x="166.845703" xlink:href="#ArialMT-48"/>
       <use x="222.460938" xlink:href="#ArialMT-45"/>
       <use x="255.761719" xlink:href="#ArialMT-48"/>
       <use x="311.376953" xlink:href="#ArialMT-50"/>
       <use x="366.992188" xlink:href="#ArialMT-45"/>
       <use x="400.292969" xlink:href="#ArialMT-50"/>
       <use x="455.908203" xlink:href="#ArialMT-50"/>
      </g>
     </g>
    </g>
    <g id="xtick_24">
     <g id="line2d_24">
      <path clip-path="url(#p9d79d873a8)" d="M 567.517347 482.49 
L 567.517347 12.96 
" style="fill:none;stroke:#ffffff;stroke-linecap:round;"/>
     </g>
     <g id="text_24">
      <!-- 2020-02-23 -->
      <g style="fill:#262626;" transform="translate(570.361019 548.251562)rotate(-90)scale(0.11 -0.11)">
       <use xlink:href="#ArialMT-50"/>
       <use x="55.615234" xlink:href="#ArialMT-48"/>
       <use x="111.230469" xlink:href="#ArialMT-50"/>
       <use x="166.845703" xlink:href="#ArialMT-48"/>
       <use x="222.460938" xlink:href="#ArialMT-45"/>
       <use x="255.761719" xlink:href="#ArialMT-48"/>
       <use x="311.376953" xlink:href="#ArialMT-50"/>
       <use x="366.992188" xlink:href="#ArialMT-45"/>
       <use x="400.292969" xlink:href="#ArialMT-50"/>
       <use x="455.908203" xlink:href="#ArialMT-51"/>
      </g>
     </g>
    </g>
    <g id="xtick_25">
     <g id="line2d_25">
      <path clip-path="url(#p9d79d873a8)" d="M 589.93 482.49 
L 589.93 12.96 
" style="fill:none;stroke:#ffffff;stroke-linecap:round;"/>
     </g>
     <g id="text_25">
      <!-- 2020-02-24 -->
      <g style="fill:#262626;" transform="translate(592.773672 548.251562)rotate(-90)scale(0.11 -0.11)">
       <use xlink:href="#ArialMT-50"/>
       <use x="55.615234" xlink:href="#ArialMT-48"/>
       <use x="111.230469" xlink:href="#ArialMT-50"/>
       <use x="166.845703" xlink:href="#ArialMT-48"/>
       <use x="222.460938" xlink:href="#ArialMT-45"/>
       <use x="255.761719" xlink:href="#ArialMT-48"/>
       <use x="311.376953" xlink:href="#ArialMT-50"/>
       <use x="366.992188" xlink:href="#ArialMT-45"/>
       <use x="400.292969" xlink:href="#ArialMT-50"/>
       <use x="455.908203" xlink:href="#ArialMT-52"/>
      </g>
     </g>
    </g>
    <g id="xtick_26">
     <g id="line2d_26">
      <path clip-path="url(#p9d79d873a8)" d="M 612.342653 482.49 
L 612.342653 12.96 
" style="fill:none;stroke:#ffffff;stroke-linecap:round;"/>
     </g>
     <g id="text_26">
      <!-- 2020-02-25 -->
      <g style="fill:#262626;" transform="translate(615.186325 548.251562)rotate(-90)scale(0.11 -0.11)">
       <use xlink:href="#ArialMT-50"/>
       <use x="55.615234" xlink:href="#ArialMT-48"/>
       <use x="111.230469" xlink:href="#ArialMT-50"/>
       <use x="166.845703" xlink:href="#ArialMT-48"/>
       <use x="222.460938" xlink:href="#ArialMT-45"/>
       <use x="255.761719" xlink:href="#ArialMT-48"/>
       <use x="311.376953" xlink:href="#ArialMT-50"/>
       <use x="366.992188" xlink:href="#ArialMT-45"/>
       <use x="400.292969" xlink:href="#ArialMT-50"/>
       <use x="455.908203" xlink:href="#ArialMT-53"/>
      </g>
     </g>
    </g>
    <g id="xtick_27">
     <g id="line2d_27">
      <path clip-path="url(#p9d79d873a8)" d="M 634.755306 482.49 
L 634.755306 12.96 
" style="fill:none;stroke:#ffffff;stroke-linecap:round;"/>
     </g>
     <g id="text_27">
      <!-- 2020-02-26 -->
      <g style="fill:#262626;" transform="translate(637.598978 548.251562)rotate(-90)scale(0.11 -0.11)">
       <use xlink:href="#ArialMT-50"/>
       <use x="55.615234" xlink:href="#ArialMT-48"/>
       <use x="111.230469" xlink:href="#ArialMT-50"/>
       <use x="166.845703" xlink:href="#ArialMT-48"/>
       <use x="222.460938" xlink:href="#ArialMT-45"/>
       <use x="255.761719" xlink:href="#ArialMT-48"/>
       <use x="311.376953" xlink:href="#ArialMT-50"/>
       <use x="366.992188" xlink:href="#ArialMT-45"/>
       <use x="400.292969" xlink:href="#ArialMT-50"/>
       <use x="455.908203" xlink:href="#ArialMT-54"/>
      </g>
     </g>
    </g>
    <g id="xtick_28">
     <g id="line2d_28">
      <path clip-path="url(#p9d79d873a8)" d="M 657.167959 482.49 
L 657.167959 12.96 
" style="fill:none;stroke:#ffffff;stroke-linecap:round;"/>
     </g>
     <g id="text_28">
      <!-- 2020-02-27 -->
      <g style="fill:#262626;" transform="translate(660.011631 548.251562)rotate(-90)scale(0.11 -0.11)">
       <use xlink:href="#ArialMT-50"/>
       <use x="55.615234" xlink:href="#ArialMT-48"/>
       <use x="111.230469" xlink:href="#ArialMT-50"/>
       <use x="166.845703" xlink:href="#ArialMT-48"/>
       <use x="222.460938" xlink:href="#ArialMT-45"/>
       <use x="255.761719" xlink:href="#ArialMT-48"/>
       <use x="311.376953" xlink:href="#ArialMT-50"/>
       <use x="366.992188" xlink:href="#ArialMT-45"/>
       <use x="400.292969" xlink:href="#ArialMT-50"/>
       <use x="455.908203" xlink:href="#ArialMT-55"/>
      </g>
     </g>
    </g>
    <g id="xtick_29">
     <g id="line2d_29">
      <path clip-path="url(#p9d79d873a8)" d="M 679.580612 482.49 
L 679.580612 12.96 
" style="fill:none;stroke:#ffffff;stroke-linecap:round;"/>
     </g>
     <g id="text_29">
      <!-- 2020-02-28 -->
      <g style="fill:#262626;" transform="translate(682.424284 548.251562)rotate(-90)scale(0.11 -0.11)">
       <use xlink:href="#ArialMT-50"/>
       <use x="55.615234" xlink:href="#ArialMT-48"/>
       <use x="111.230469" xlink:href="#ArialMT-50"/>
       <use x="166.845703" xlink:href="#ArialMT-48"/>
       <use x="222.460938" xlink:href="#ArialMT-45"/>
       <use x="255.761719" xlink:href="#ArialMT-48"/>
       <use x="311.376953" xlink:href="#ArialMT-50"/>
       <use x="366.992188" xlink:href="#ArialMT-45"/>
       <use x="400.292969" xlink:href="#ArialMT-50"/>
       <use x="455.908203" xlink:href="#ArialMT-56"/>
      </g>
     </g>
    </g>
    <g id="xtick_30">
     <g id="line2d_30">
      <path clip-path="url(#p9d79d873a8)" d="M 701.993265 482.49 
L 701.993265 12.96 
" style="fill:none;stroke:#ffffff;stroke-linecap:round;"/>
     </g>
     <g id="text_30">
      <!-- 2020-02-29 -->
      <g style="fill:#262626;" transform="translate(704.836937 548.251562)rotate(-90)scale(0.11 -0.11)">
       <use xlink:href="#ArialMT-50"/>
       <use x="55.615234" xlink:href="#ArialMT-48"/>
       <use x="111.230469" xlink:href="#ArialMT-50"/>
       <use x="166.845703" xlink:href="#ArialMT-48"/>
       <use x="222.460938" xlink:href="#ArialMT-45"/>
       <use x="255.761719" xlink:href="#ArialMT-48"/>
       <use x="311.376953" xlink:href="#ArialMT-50"/>
       <use x="366.992188" xlink:href="#ArialMT-45"/>
       <use x="400.292969" xlink:href="#ArialMT-50"/>
       <use x="455.908203" xlink:href="#ArialMT-57"/>
      </g>
     </g>
    </g>
    <g id="xtick_31">
     <g id="line2d_31">
      <path clip-path="url(#p9d79d873a8)" d="M 724.405918 482.49 
L 724.405918 12.96 
" style="fill:none;stroke:#ffffff;stroke-linecap:round;"/>
     </g>
     <g id="text_31">
      <!-- 2020-03-01 -->
      <g style="fill:#262626;" transform="translate(727.24959 548.251562)rotate(-90)scale(0.11 -0.11)">
       <use xlink:href="#ArialMT-50"/>
       <use x="55.615234" xlink:href="#ArialMT-48"/>
       <use x="111.230469" xlink:href="#ArialMT-50"/>
       <use x="166.845703" xlink:href="#ArialMT-48"/>
       <use x="222.460938" xlink:href="#ArialMT-45"/>
       <use x="255.761719" xlink:href="#ArialMT-48"/>
       <use x="311.376953" xlink:href="#ArialMT-51"/>
       <use x="366.992188" xlink:href="#ArialMT-45"/>
       <use x="400.292969" xlink:href="#ArialMT-48"/>
       <use x="455.908203" xlink:href="#ArialMT-49"/>
      </g>
     </g>
    </g>
    <g id="xtick_32">
     <g id="line2d_32">
      <path clip-path="url(#p9d79d873a8)" d="M 746.818571 482.49 
L 746.818571 12.96 
" style="fill:none;stroke:#ffffff;stroke-linecap:round;"/>
     </g>
     <g id="text_32">
      <!-- 2020-03-02 -->
      <g style="fill:#262626;" transform="translate(749.662243 548.251562)rotate(-90)scale(0.11 -0.11)">
       <use xlink:href="#ArialMT-50"/>
       <use x="55.615234" xlink:href="#ArialMT-48"/>
       <use x="111.230469" xlink:href="#ArialMT-50"/>
       <use x="166.845703" xlink:href="#ArialMT-48"/>
       <use x="222.460938" xlink:href="#ArialMT-45"/>
       <use x="255.761719" xlink:href="#ArialMT-48"/>
       <use x="311.376953" xlink:href="#ArialMT-51"/>
       <use x="366.992188" xlink:href="#ArialMT-45"/>
       <use x="400.292969" xlink:href="#ArialMT-48"/>
       <use x="455.908203" xlink:href="#ArialMT-50"/>
      </g>
     </g>
    </g>
    <g id="xtick_33">
     <g id="line2d_33">
      <path clip-path="url(#p9d79d873a8)" d="M 769.231224 482.49 
L 769.231224 12.96 
" style="fill:none;stroke:#ffffff;stroke-linecap:round;"/>
     </g>
     <g id="text_33">
      <!-- 2020-03-03 -->
      <g style="fill:#262626;" transform="translate(772.074896 548.251562)rotate(-90)scale(0.11 -0.11)">
       <use xlink:href="#ArialMT-50"/>
       <use x="55.615234" xlink:href="#ArialMT-48"/>
       <use x="111.230469" xlink:href="#ArialMT-50"/>
       <use x="166.845703" xlink:href="#ArialMT-48"/>
       <use x="222.460938" xlink:href="#ArialMT-45"/>
       <use x="255.761719" xlink:href="#ArialMT-48"/>
       <use x="311.376953" xlink:href="#ArialMT-51"/>
       <use x="366.992188" xlink:href="#ArialMT-45"/>
       <use x="400.292969" xlink:href="#ArialMT-48"/>
       <use x="455.908203" xlink:href="#ArialMT-51"/>
      </g>
     </g>
    </g>
    <g id="xtick_34">
     <g id="line2d_34">
      <path clip-path="url(#p9d79d873a8)" d="M 791.643878 482.49 
L 791.643878 12.96 
" style="fill:none;stroke:#ffffff;stroke-linecap:round;"/>
     </g>
     <g id="text_34">
      <!-- 2020-03-04 -->
      <g style="fill:#262626;" transform="translate(794.487549 548.251562)rotate(-90)scale(0.11 -0.11)">
       <use xlink:href="#ArialMT-50"/>
       <use x="55.615234" xlink:href="#ArialMT-48"/>
       <use x="111.230469" xlink:href="#ArialMT-50"/>
       <use x="166.845703" xlink:href="#ArialMT-48"/>
       <use x="222.460938" xlink:href="#ArialMT-45"/>
       <use x="255.761719" xlink:href="#ArialMT-48"/>
       <use x="311.376953" xlink:href="#ArialMT-51"/>
       <use x="366.992188" xlink:href="#ArialMT-45"/>
       <use x="400.292969" xlink:href="#ArialMT-48"/>
       <use x="455.908203" xlink:href="#ArialMT-52"/>
      </g>
     </g>
    </g>
    <g id="xtick_35">
     <g id="line2d_35">
      <path clip-path="url(#p9d79d873a8)" d="M 814.056531 482.49 
L 814.056531 12.96 
" style="fill:none;stroke:#ffffff;stroke-linecap:round;"/>
     </g>
     <g id="text_35">
      <!-- 2020-03-05 -->
      <g style="fill:#262626;" transform="translate(816.900202 548.251562)rotate(-90)scale(0.11 -0.11)">
       <use xlink:href="#ArialMT-50"/>
       <use x="55.615234" xlink:href="#ArialMT-48"/>
       <use x="111.230469" xlink:href="#ArialMT-50"/>
       <use x="166.845703" xlink:href="#ArialMT-48"/>
       <use x="222.460938" xlink:href="#ArialMT-45"/>
       <use x="255.761719" xlink:href="#ArialMT-48"/>
       <use x="311.376953" xlink:href="#ArialMT-51"/>
       <use x="366.992188" xlink:href="#ArialMT-45"/>
       <use x="400.292969" xlink:href="#ArialMT-48"/>
       <use x="455.908203" xlink:href="#ArialMT-53"/>
      </g>
     </g>
    </g>
    <g id="xtick_36">
     <g id="line2d_36">
      <path clip-path="url(#p9d79d873a8)" d="M 836.469184 482.49 
L 836.469184 12.96 
" style="fill:none;stroke:#ffffff;stroke-linecap:round;"/>
     </g>
     <g id="text_36">
      <!-- 2020-03-06 -->
      <g style="fill:#262626;" transform="translate(839.312856 548.251562)rotate(-90)scale(0.11 -0.11)">
       <use xlink:href="#ArialMT-50"/>
       <use x="55.615234" xlink:href="#ArialMT-48"/>
       <use x="111.230469" xlink:href="#ArialMT-50"/>
       <use x="166.845703" xlink:href="#ArialMT-48"/>
       <use x="222.460938" xlink:href="#ArialMT-45"/>
       <use x="255.761719" xlink:href="#ArialMT-48"/>
       <use x="311.376953" xlink:href="#ArialMT-51"/>
       <use x="366.992188" xlink:href="#ArialMT-45"/>
       <use x="400.292969" xlink:href="#ArialMT-48"/>
       <use x="455.908203" xlink:href="#ArialMT-54"/>
      </g>
     </g>
    </g>
    <g id="xtick_37">
     <g id="line2d_37">
      <path clip-path="url(#p9d79d873a8)" d="M 858.881837 482.49 
L 858.881837 12.96 
" style="fill:none;stroke:#ffffff;stroke-linecap:round;"/>
     </g>
     <g id="text_37">
      <!-- 2020-03-07 -->
      <g style="fill:#262626;" transform="translate(861.725509 548.251562)rotate(-90)scale(0.11 -0.11)">
       <use xlink:href="#ArialMT-50"/>
       <use x="55.615234" xlink:href="#ArialMT-48"/>
       <use x="111.230469" xlink:href="#ArialMT-50"/>
       <use x="166.845703" xlink:href="#ArialMT-48"/>
       <use x="222.460938" xlink:href="#ArialMT-45"/>
       <use x="255.761719" xlink:href="#ArialMT-48"/>
       <use x="311.376953" xlink:href="#ArialMT-51"/>
       <use x="366.992188" xlink:href="#ArialMT-45"/>
       <use x="400.292969" xlink:href="#ArialMT-48"/>
       <use x="455.908203" xlink:href="#ArialMT-55"/>
      </g>
     </g>
    </g>
    <g id="xtick_38">
     <g id="line2d_38">
      <path clip-path="url(#p9d79d873a8)" d="M 881.29449 482.49 
L 881.29449 12.96 
" style="fill:none;stroke:#ffffff;stroke-linecap:round;"/>
     </g>
     <g id="text_38">
      <!-- 2020-03-08 -->
      <g style="fill:#262626;" transform="translate(884.138162 548.251562)rotate(-90)scale(0.11 -0.11)">
       <use xlink:href="#ArialMT-50"/>
       <use x="55.615234" xlink:href="#ArialMT-48"/>
       <use x="111.230469" xlink:href="#ArialMT-50"/>
       <use x="166.845703" xlink:href="#ArialMT-48"/>
       <use x="222.460938" xlink:href="#ArialMT-45"/>
       <use x="255.761719" xlink:href="#ArialMT-48"/>
       <use x="311.376953" xlink:href="#ArialMT-51"/>
       <use x="366.992188" xlink:href="#ArialMT-45"/>
       <use x="400.292969" xlink:href="#ArialMT-48"/>
       <use x="455.908203" xlink:href="#ArialMT-56"/>
      </g>
     </g>
    </g>
    <g id="xtick_39">
     <g id="line2d_39">
      <path clip-path="url(#p9d79d873a8)" d="M 903.707143 482.49 
L 903.707143 12.96 
" style="fill:none;stroke:#ffffff;stroke-linecap:round;"/>
     </g>
     <g id="text_39">
      <!-- 2020-03-09 -->
      <g style="fill:#262626;" transform="translate(906.550815 548.251562)rotate(-90)scale(0.11 -0.11)">
       <use xlink:href="#ArialMT-50"/>
       <use x="55.615234" xlink:href="#ArialMT-48"/>
       <use x="111.230469" xlink:href="#ArialMT-50"/>
       <use x="166.845703" xlink:href="#ArialMT-48"/>
       <use x="222.460938" xlink:href="#ArialMT-45"/>
       <use x="255.761719" xlink:href="#ArialMT-48"/>
       <use x="311.376953" xlink:href="#ArialMT-51"/>
       <use x="366.992188" xlink:href="#ArialMT-45"/>
       <use x="400.292969" xlink:href="#ArialMT-48"/>
       <use x="455.908203" xlink:href="#ArialMT-57"/>
      </g>
     </g>
    </g>
    <g id="xtick_40">
     <g id="line2d_40">
      <path clip-path="url(#p9d79d873a8)" d="M 926.119796 482.49 
L 926.119796 12.96 
" style="fill:none;stroke:#ffffff;stroke-linecap:round;"/>
     </g>
     <g id="text_40">
      <!-- 2020-03-10 -->
      <g style="fill:#262626;" transform="translate(928.963468 548.251562)rotate(-90)scale(0.11 -0.11)">
       <use xlink:href="#ArialMT-50"/>
       <use x="55.615234" xlink:href="#ArialMT-48"/>
       <use x="111.230469" xlink:href="#ArialMT-50"/>
       <use x="166.845703" xlink:href="#ArialMT-48"/>
       <use x="222.460938" xlink:href="#ArialMT-45"/>
       <use x="255.761719" xlink:href="#ArialMT-48"/>
       <use x="311.376953" xlink:href="#ArialMT-51"/>
       <use x="366.992188" xlink:href="#ArialMT-45"/>
       <use x="400.292969" xlink:href="#ArialMT-49"/>
       <use x="455.908203" xlink:href="#ArialMT-48"/>
      </g>
     </g>
    </g>
    <g id="xtick_41">
     <g id="line2d_41">
      <path clip-path="url(#p9d79d873a8)" d="M 948.532449 482.49 
L 948.532449 12.96 
" style="fill:none;stroke:#ffffff;stroke-linecap:round;"/>
     </g>
     <g id="text_41">
      <!-- 2020-03-11 -->
      <g style="fill:#262626;" transform="translate(951.376121 548.239531)rotate(-90)scale(0.11 -0.11)">
       <use xlink:href="#ArialMT-50"/>
       <use x="55.615234" xlink:href="#ArialMT-48"/>
       <use x="111.230469" xlink:href="#ArialMT-50"/>
       <use x="166.845703" xlink:href="#ArialMT-48"/>
       <use x="222.460938" xlink:href="#ArialMT-45"/>
       <use x="255.761719" xlink:href="#ArialMT-48"/>
       <use x="311.376953" xlink:href="#ArialMT-51"/>
       <use x="366.992188" xlink:href="#ArialMT-45"/>
       <use x="400.292969" xlink:href="#ArialMT-49"/>
       <use x="455.798828" xlink:href="#ArialMT-49"/>
      </g>
     </g>
    </g>
    <g id="xtick_42">
     <g id="line2d_42">
      <path clip-path="url(#p9d79d873a8)" d="M 970.945102 482.49 
L 970.945102 12.96 
" style="fill:none;stroke:#ffffff;stroke-linecap:round;"/>
     </g>
     <g id="text_42">
      <!-- 2020-03-12 -->
      <g style="fill:#262626;" transform="translate(973.788774 548.251562)rotate(-90)scale(0.11 -0.11)">
       <use xlink:href="#ArialMT-50"/>
       <use x="55.615234" xlink:href="#ArialMT-48"/>
       <use x="111.230469" xlink:href="#ArialMT-50"/>
       <use x="166.845703" xlink:href="#ArialMT-48"/>
       <use x="222.460938" xlink:href="#ArialMT-45"/>
       <use x="255.761719" xlink:href="#ArialMT-48"/>
       <use x="311.376953" xlink:href="#ArialMT-51"/>
       <use x="366.992188" xlink:href="#ArialMT-45"/>
       <use x="400.292969" xlink:href="#ArialMT-49"/>
       <use x="455.908203" xlink:href="#ArialMT-50"/>
      </g>
     </g>
    </g>
    <g id="xtick_43">
     <g id="line2d_43">
      <path clip-path="url(#p9d79d873a8)" d="M 993.357755 482.49 
L 993.357755 12.96 
" style="fill:none;stroke:#ffffff;stroke-linecap:round;"/>
     </g>
     <g id="text_43">
      <!-- 2020-03-13 -->
      <g style="fill:#262626;" transform="translate(996.201427 548.251562)rotate(-90)scale(0.11 -0.11)">
       <use xlink:href="#ArialMT-50"/>
       <use x="55.615234" xlink:href="#ArialMT-48"/>
       <use x="111.230469" xlink:href="#ArialMT-50"/>
       <use x="166.845703" xlink:href="#ArialMT-48"/>
       <use x="222.460938" xlink:href="#ArialMT-45"/>
       <use x="255.761719" xlink:href="#ArialMT-48"/>
       <use x="311.376953" xlink:href="#ArialMT-51"/>
       <use x="366.992188" xlink:href="#ArialMT-45"/>
       <use x="400.292969" xlink:href="#ArialMT-49"/>
       <use x="455.908203" xlink:href="#ArialMT-51"/>
      </g>
     </g>
    </g>
    <g id="xtick_44">
     <g id="line2d_44">
      <path clip-path="url(#p9d79d873a8)" d="M 1015.770408 482.49 
L 1015.770408 12.96 
" style="fill:none;stroke:#ffffff;stroke-linecap:round;"/>
     </g>
     <g id="text_44">
      <!-- 2020-03-14 -->
      <g style="fill:#262626;" transform="translate(1018.61408 548.251562)rotate(-90)scale(0.11 -0.11)">
       <use xlink:href="#ArialMT-50"/>
       <use x="55.615234" xlink:href="#ArialMT-48"/>
       <use x="111.230469" xlink:href="#ArialMT-50"/>
       <use x="166.845703" xlink:href="#ArialMT-48"/>
       <use x="222.460938" xlink:href="#ArialMT-45"/>
       <use x="255.761719" xlink:href="#ArialMT-48"/>
       <use x="311.376953" xlink:href="#ArialMT-51"/>
       <use x="366.992188" xlink:href="#ArialMT-45"/>
       <use x="400.292969" xlink:href="#ArialMT-49"/>
       <use x="455.908203" xlink:href="#ArialMT-52"/>
      </g>
     </g>
    </g>
    <g id="xtick_45">
     <g id="line2d_45">
      <path clip-path="url(#p9d79d873a8)" d="M 1038.183061 482.49 
L 1038.183061 12.96 
" style="fill:none;stroke:#ffffff;stroke-linecap:round;"/>
     </g>
     <g id="text_45">
      <!-- 2020-03-15 -->
      <g style="fill:#262626;" transform="translate(1041.026733 548.251562)rotate(-90)scale(0.11 -0.11)">
       <use xlink:href="#ArialMT-50"/>
       <use x="55.615234" xlink:href="#ArialMT-48"/>
       <use x="111.230469" xlink:href="#ArialMT-50"/>
       <use x="166.845703" xlink:href="#ArialMT-48"/>
       <use x="222.460938" xlink:href="#ArialMT-45"/>
       <use x="255.761719" xlink:href="#ArialMT-48"/>
       <use x="311.376953" xlink:href="#ArialMT-51"/>
       <use x="366.992188" xlink:href="#ArialMT-45"/>
       <use x="400.292969" xlink:href="#ArialMT-49"/>
       <use x="455.908203" xlink:href="#ArialMT-53"/>
      </g>
     </g>
    </g>
    <g id="xtick_46">
     <g id="line2d_46">
      <path clip-path="url(#p9d79d873a8)" d="M 1060.595714 482.49 
L 1060.595714 12.96 
" style="fill:none;stroke:#ffffff;stroke-linecap:round;"/>
     </g>
     <g id="text_46">
      <!-- 2020-03-16 -->
      <g style="fill:#262626;" transform="translate(1063.439386 548.251562)rotate(-90)scale(0.11 -0.11)">
       <use xlink:href="#ArialMT-50"/>
       <use x="55.615234" xlink:href="#ArialMT-48"/>
       <use x="111.230469" xlink:href="#ArialMT-50"/>
       <use x="166.845703" xlink:href="#ArialMT-48"/>
       <use x="222.460938" xlink:href="#ArialMT-45"/>
       <use x="255.761719" xlink:href="#ArialMT-48"/>
       <use x="311.376953" xlink:href="#ArialMT-51"/>
       <use x="366.992188" xlink:href="#ArialMT-45"/>
       <use x="400.292969" xlink:href="#ArialMT-49"/>
       <use x="455.908203" xlink:href="#ArialMT-54"/>
      </g>
     </g>
    </g>
    <g id="xtick_47">
     <g id="line2d_47">
      <path clip-path="url(#p9d79d873a8)" d="M 1083.008367 482.49 
L 1083.008367 12.96 
" style="fill:none;stroke:#ffffff;stroke-linecap:round;"/>
     </g>
     <g id="text_47">
      <!-- 2020-03-17 -->
      <g style="fill:#262626;" transform="translate(1085.852039 548.251562)rotate(-90)scale(0.11 -0.11)">
       <use xlink:href="#ArialMT-50"/>
       <use x="55.615234" xlink:href="#ArialMT-48"/>
       <use x="111.230469" xlink:href="#ArialMT-50"/>
       <use x="166.845703" xlink:href="#ArialMT-48"/>
       <use x="222.460938" xlink:href="#ArialMT-45"/>
       <use x="255.761719" xlink:href="#ArialMT-48"/>
       <use x="311.376953" xlink:href="#ArialMT-51"/>
       <use x="366.992188" xlink:href="#ArialMT-45"/>
       <use x="400.292969" xlink:href="#ArialMT-49"/>
       <use x="455.908203" xlink:href="#ArialMT-55"/>
      </g>
     </g>
    </g>
    <g id="xtick_48">
     <g id="line2d_48">
      <path clip-path="url(#p9d79d873a8)" d="M 1105.42102 482.49 
L 1105.42102 12.96 
" style="fill:none;stroke:#ffffff;stroke-linecap:round;"/>
     </g>
     <g id="text_48">
      <!-- 2020-03-18 -->
      <g style="fill:#262626;" transform="translate(1108.264692 548.251562)rotate(-90)scale(0.11 -0.11)">
       <use xlink:href="#ArialMT-50"/>
       <use x="55.615234" xlink:href="#ArialMT-48"/>
       <use x="111.230469" xlink:href="#ArialMT-50"/>
       <use x="166.845703" xlink:href="#ArialMT-48"/>
       <use x="222.460938" xlink:href="#ArialMT-45"/>
       <use x="255.761719" xlink:href="#ArialMT-48"/>
       <use x="311.376953" xlink:href="#ArialMT-51"/>
       <use x="366.992188" xlink:href="#ArialMT-45"/>
       <use x="400.292969" xlink:href="#ArialMT-49"/>
       <use x="455.908203" xlink:href="#ArialMT-56"/>
      </g>
     </g>
    </g>
    <g id="xtick_49">
     <g id="line2d_49">
      <path clip-path="url(#p9d79d873a8)" d="M 1127.833673 482.49 
L 1127.833673 12.96 
" style="fill:none;stroke:#ffffff;stroke-linecap:round;"/>
     </g>
     <g id="text_49">
      <!-- 2020-03-19 -->
      <g style="fill:#262626;" transform="translate(1130.677345 548.251562)rotate(-90)scale(0.11 -0.11)">
       <use xlink:href="#ArialMT-50"/>
       <use x="55.615234" xlink:href="#ArialMT-48"/>
       <use x="111.230469" xlink:href="#ArialMT-50"/>
       <use x="166.845703" xlink:href="#ArialMT-48"/>
       <use x="222.460938" xlink:href="#ArialMT-45"/>
       <use x="255.761719" xlink:href="#ArialMT-48"/>
       <use x="311.376953" xlink:href="#ArialMT-51"/>
       <use x="366.992188" xlink:href="#ArialMT-45"/>
       <use x="400.292969" xlink:href="#ArialMT-49"/>
       <use x="455.908203" xlink:href="#ArialMT-57"/>
      </g>
     </g>
    </g>
    <g id="text_50">
     <!-- Date -->
     <defs>
      <path d="M 7.71875 0 
L 7.71875 71.578125 
L 32.375 71.578125 
Q 40.71875 71.578125 45.125 70.5625 
Q 51.265625 69.140625 55.609375 65.4375 
Q 61.28125 60.640625 64.078125 53.1875 
Q 66.890625 45.75 66.890625 36.1875 
Q 66.890625 28.03125 64.984375 21.734375 
Q 63.09375 15.4375 60.109375 11.296875 
Q 57.125 7.171875 53.578125 4.796875 
Q 50.046875 2.4375 45.046875 1.21875 
Q 40.046875 0 33.546875 0 
z
M 17.1875 8.453125 
L 32.46875 8.453125 
Q 39.546875 8.453125 43.578125 9.765625 
Q 47.609375 11.078125 50 13.484375 
Q 53.375 16.84375 55.25 22.53125 
Q 57.125 28.21875 57.125 36.328125 
Q 57.125 47.5625 53.4375 53.59375 
Q 49.75 59.625 44.484375 61.671875 
Q 40.671875 63.140625 32.234375 63.140625 
L 17.1875 63.140625 
z
" id="ArialMT-68"/>
      <path d="M 40.4375 6.390625 
Q 35.546875 2.25 31.03125 0.53125 
Q 26.515625 -1.171875 21.34375 -1.171875 
Q 12.796875 -1.171875 8.203125 3 
Q 3.609375 7.171875 3.609375 13.671875 
Q 3.609375 17.484375 5.34375 20.625 
Q 7.078125 23.78125 9.890625 25.6875 
Q 12.703125 27.59375 16.21875 28.5625 
Q 18.796875 29.25 24.03125 29.890625 
Q 34.671875 31.15625 39.703125 32.90625 
Q 39.75 34.71875 39.75 35.203125 
Q 39.75 40.578125 37.25 42.78125 
Q 33.890625 45.75 27.25 45.75 
Q 21.046875 45.75 18.09375 43.578125 
Q 15.140625 41.40625 13.71875 35.890625 
L 5.125 37.0625 
Q 6.296875 42.578125 8.984375 45.96875 
Q 11.671875 49.359375 16.75 51.1875 
Q 21.828125 53.03125 28.515625 53.03125 
Q 35.15625 53.03125 39.296875 51.46875 
Q 43.453125 49.90625 45.40625 47.53125 
Q 47.359375 45.171875 48.140625 41.546875 
Q 48.578125 39.3125 48.578125 33.453125 
L 48.578125 21.734375 
Q 48.578125 9.46875 49.140625 6.21875 
Q 49.703125 2.984375 51.375 0 
L 42.1875 0 
Q 40.828125 2.734375 40.4375 6.390625 
z
M 39.703125 26.03125 
Q 34.90625 24.078125 25.34375 22.703125 
Q 19.921875 21.921875 17.671875 20.9375 
Q 15.4375 19.96875 14.203125 18.09375 
Q 12.984375 16.21875 12.984375 13.921875 
Q 12.984375 10.40625 15.640625 8.0625 
Q 18.3125 5.71875 23.4375 5.71875 
Q 28.515625 5.71875 32.46875 7.9375 
Q 36.421875 10.15625 38.28125 14.015625 
Q 39.703125 17 39.703125 22.796875 
z
" id="ArialMT-97"/>
      <path d="M 25.78125 7.859375 
L 27.046875 0.09375 
Q 23.34375 -0.6875 20.40625 -0.6875 
Q 15.625 -0.6875 12.984375 0.828125 
Q 10.359375 2.34375 9.28125 4.8125 
Q 8.203125 7.28125 8.203125 15.1875 
L 8.203125 45.015625 
L 1.765625 45.015625 
L 1.765625 51.859375 
L 8.203125 51.859375 
L 8.203125 64.703125 
L 16.9375 69.96875 
L 16.9375 51.859375 
L 25.78125 51.859375 
L 25.78125 45.015625 
L 16.9375 45.015625 
L 16.9375 14.703125 
Q 16.9375 10.9375 17.40625 9.859375 
Q 17.875 8.796875 18.921875 8.15625 
Q 19.96875 7.515625 21.921875 7.515625 
Q 23.390625 7.515625 25.78125 7.859375 
z
" id="ArialMT-116"/>
      <path d="M 42.09375 16.703125 
L 51.171875 15.578125 
Q 49.03125 7.625 43.21875 3.21875 
Q 37.40625 -1.171875 28.375 -1.171875 
Q 17 -1.171875 10.328125 5.828125 
Q 3.65625 12.84375 3.65625 25.484375 
Q 3.65625 38.578125 10.390625 45.796875 
Q 17.140625 53.03125 27.875 53.03125 
Q 38.28125 53.03125 44.875 45.953125 
Q 51.46875 38.875 51.46875 26.03125 
Q 51.46875 25.25 51.421875 23.6875 
L 12.75 23.6875 
Q 13.234375 15.140625 17.578125 10.59375 
Q 21.921875 6.0625 28.421875 6.0625 
Q 33.25 6.0625 36.671875 8.59375 
Q 40.09375 11.140625 42.09375 16.703125 
z
M 13.234375 30.90625 
L 42.1875 30.90625 
Q 41.609375 37.453125 38.875 40.71875 
Q 34.671875 45.796875 27.984375 45.796875 
Q 21.921875 45.796875 17.796875 41.75 
Q 13.671875 37.703125 13.234375 30.90625 
z
" id="ArialMT-101"/>
     </defs>
     <g style="fill:#262626;" transform="translate(577.256875 560.840937)scale(0.12 -0.12)">
      <use xlink:href="#ArialMT-68"/>
      <use x="72.216797" xlink:href="#ArialMT-97"/>
      <use x="127.832031" xlink:href="#ArialMT-116"/>
      <use x="155.615234" xlink:href="#ArialMT-101"/>
     </g>
    </g>
   </g>
   <g id="matplotlib.axis_2">
    <g id="ytick_1">
     <g id="line2d_50">
      <path clip-path="url(#p9d79d873a8)" d="M 40.82 482.49 
L 1139.04 482.49 
" style="fill:none;stroke:#ffffff;stroke-linecap:round;"/>
     </g>
     <g id="text_51">
      <!-- 0 -->
      <g style="fill:#262626;" transform="translate(25.202969 486.426797)scale(0.11 -0.11)">
       <use xlink:href="#ArialMT-48"/>
      </g>
     </g>
    </g>
    <g id="ytick_2">
     <g id="line2d_51">
      <path clip-path="url(#p9d79d873a8)" d="M 40.82 390.895157 
L 1139.04 390.895157 
" style="fill:none;stroke:#ffffff;stroke-linecap:round;"/>
     </g>
     <g id="text_52">
      <!-- 50 -->
      <g style="fill:#262626;" transform="translate(19.085938 394.831954)scale(0.11 -0.11)">
       <use xlink:href="#ArialMT-53"/>
       <use x="55.615234" xlink:href="#ArialMT-48"/>
      </g>
     </g>
    </g>
    <g id="ytick_3">
     <g id="line2d_52">
      <path clip-path="url(#p9d79d873a8)" d="M 40.82 299.300314 
L 1139.04 299.300314 
" style="fill:none;stroke:#ffffff;stroke-linecap:round;"/>
     </g>
     <g id="text_53">
      <!-- 100 -->
      <g style="fill:#262626;" transform="translate(12.968906 303.237111)scale(0.11 -0.11)">
       <use xlink:href="#ArialMT-49"/>
       <use x="55.615234" xlink:href="#ArialMT-48"/>
       <use x="111.230469" xlink:href="#ArialMT-48"/>
      </g>
     </g>
    </g>
    <g id="ytick_4">
     <g id="line2d_53">
      <path clip-path="url(#p9d79d873a8)" d="M 40.82 207.705471 
L 1139.04 207.705471 
" style="fill:none;stroke:#ffffff;stroke-linecap:round;"/>
     </g>
     <g id="text_54">
      <!-- 150 -->
      <g style="fill:#262626;" transform="translate(12.968906 211.642268)scale(0.11 -0.11)">
       <use xlink:href="#ArialMT-49"/>
       <use x="55.615234" xlink:href="#ArialMT-53"/>
       <use x="111.230469" xlink:href="#ArialMT-48"/>
      </g>
     </g>
    </g>
    <g id="ytick_5">
     <g id="line2d_54">
      <path clip-path="url(#p9d79d873a8)" d="M 40.82 116.110628 
L 1139.04 116.110628 
" style="fill:none;stroke:#ffffff;stroke-linecap:round;"/>
     </g>
     <g id="text_55">
      <!-- 200 -->
      <g style="fill:#262626;" transform="translate(12.968906 120.047425)scale(0.11 -0.11)">
       <use xlink:href="#ArialMT-50"/>
       <use x="55.615234" xlink:href="#ArialMT-48"/>
       <use x="111.230469" xlink:href="#ArialMT-48"/>
      </g>
     </g>
    </g>
    <g id="ytick_6">
     <g id="line2d_55">
      <path clip-path="url(#p9d79d873a8)" d="M 40.82 24.515785 
L 1139.04 24.515785 
" style="fill:none;stroke:#ffffff;stroke-linecap:round;"/>
     </g>
     <g id="text_56">
      <!-- 250 -->
      <g style="fill:#262626;" transform="translate(12.968906 28.452582)scale(0.11 -0.11)">
       <use xlink:href="#ArialMT-50"/>
       <use x="55.615234" xlink:href="#ArialMT-53"/>
       <use x="111.230469" xlink:href="#ArialMT-48"/>
      </g>
     </g>
    </g>
   </g>
   <g id="patch_3">
    <path clip-path="url(#p9d79d873a8)" d="M 46.423163 482.49 
L 52.026327 482.49 
L 52.026327 458.675341 
L 46.423163 458.675341 
z
" style="fill:#4c72b0;stroke:#ffffff;stroke-linejoin:miter;"/>
   </g>
   <g id="patch_4">
    <path clip-path="url(#p9d79d873a8)" d="M 68.835816 482.49 
L 74.43898 482.49 
L 74.43898 453.17965 
L 68.835816 453.17965 
z
" style="fill:#4c72b0;stroke:#ffffff;stroke-linejoin:miter;"/>
   </g>
   <g id="patch_5">
    <path clip-path="url(#p9d79d873a8)" d="M 91.248469 482.49 
L 96.851633 482.49 
L 96.851633 449.515857 
L 91.248469 449.515857 
z
" style="fill:#4c72b0;stroke:#ffffff;stroke-linejoin:miter;"/>
   </g>
   <g id="patch_6">
    <path clip-path="url(#p9d79d873a8)" d="M 113.661122 482.49 
L 119.264286 482.49 
L 119.264286 449.515857 
L 113.661122 449.515857 
z
" style="fill:#4c72b0;stroke:#ffffff;stroke-linejoin:miter;"/>
   </g>
   <g id="patch_7">
    <path clip-path="url(#p9d79d873a8)" d="M 136.073776 482.49 
L 141.676939 482.49 
L 141.676939 449.515857 
L 136.073776 449.515857 
z
" style="fill:#4c72b0;stroke:#ffffff;stroke-linejoin:miter;"/>
   </g>
   <g id="patch_8">
    <path clip-path="url(#p9d79d873a8)" d="M 158.486429 482.49 
L 164.089592 482.49 
L 164.089592 438.524475 
L 158.486429 438.524475 
z
" style="fill:#4c72b0;stroke:#ffffff;stroke-linejoin:miter;"/>
   </g>
   <g id="patch_9">
    <path clip-path="url(#p9d79d873a8)" d="M 180.899082 482.49 
L 186.502245 482.49 
L 186.502245 431.196888 
L 180.899082 431.196888 
z
" style="fill:#4c72b0;stroke:#ffffff;stroke-linejoin:miter;"/>
   </g>
   <g id="patch_10">
    <path clip-path="url(#p9d79d873a8)" d="M 203.311735 482.49 
L 208.914898 482.49 
L 208.914898 427.533094 
L 203.311735 427.533094 
z
" style="fill:#4c72b0;stroke:#ffffff;stroke-linejoin:miter;"/>
   </g>
   <g id="patch_11">
    <path clip-path="url(#p9d79d873a8)" d="M 225.724388 482.49 
L 231.327551 482.49 
L 231.327551 422.037404 
L 225.724388 422.037404 
z
" style="fill:#4c72b0;stroke:#ffffff;stroke-linejoin:miter;"/>
   </g>
   <g id="patch_12">
    <path clip-path="url(#p9d79d873a8)" d="M 248.137041 482.49 
L 253.740204 482.49 
L 253.740204 409.214126 
L 248.137041 409.214126 
z
" style="fill:#4c72b0;stroke:#ffffff;stroke-linejoin:miter;"/>
   </g>
   <g id="patch_13">
    <path clip-path="url(#p9d79d873a8)" d="M 270.549694 482.49 
L 276.152857 482.49 
L 276.152857 403.718435 
L 270.549694 403.718435 
z
" style="fill:#4c72b0;stroke:#ffffff;stroke-linejoin:miter;"/>
   </g>
   <g id="patch_14">
    <path clip-path="url(#p9d79d873a8)" d="M 292.962347 482.49 
L 298.56551 482.49 
L 298.56551 400.054641 
L 292.962347 400.054641 
z
" style="fill:#4c72b0;stroke:#ffffff;stroke-linejoin:miter;"/>
   </g>
   <g id="patch_15">
    <path clip-path="url(#p9d79d873a8)" d="M 315.375 482.49 
L 320.978163 482.49 
L 320.978163 396.390848 
L 315.375 396.390848 
z
" style="fill:#4c72b0;stroke:#ffffff;stroke-linejoin:miter;"/>
   </g>
   <g id="patch_16">
    <path clip-path="url(#p9d79d873a8)" d="M 337.787653 482.49 
L 343.390816 482.49 
L 343.390816 390.895157 
L 337.787653 390.895157 
z
" style="fill:#4c72b0;stroke:#ffffff;stroke-linejoin:miter;"/>
   </g>
   <g id="patch_17">
    <path clip-path="url(#p9d79d873a8)" d="M 360.200306 482.49 
L 365.803469 482.49 
L 365.803469 376.239982 
L 360.200306 376.239982 
z
" style="fill:#4c72b0;stroke:#ffffff;stroke-linejoin:miter;"/>
   </g>
   <g id="patch_18">
    <path clip-path="url(#p9d79d873a8)" d="M 382.612959 482.49 
L 388.216122 482.49 
L 388.216122 359.75291 
L 382.612959 359.75291 
z
" style="fill:#4c72b0;stroke:#ffffff;stroke-linejoin:miter;"/>
   </g>
   <g id="patch_19">
    <path clip-path="url(#p9d79d873a8)" d="M 405.025612 482.49 
L 410.628776 482.49 
L 410.628776 350.593426 
L 405.025612 350.593426 
z
" style="fill:#4c72b0;stroke:#ffffff;stroke-linejoin:miter;"/>
   </g>
   <g id="patch_20">
    <path clip-path="url(#p9d79d873a8)" d="M 427.438265 482.49 
L 433.041429 482.49 
L 433.041429 345.097736 
L 427.438265 345.097736 
z
" style="fill:#4c72b0;stroke:#ffffff;stroke-linejoin:miter;"/>
   </g>
   <g id="patch_21">
    <path clip-path="url(#p9d79d873a8)" d="M 449.850918 482.49 
L 455.454082 482.49 
L 455.454082 341.433942 
L 449.850918 341.433942 
z
" style="fill:#4c72b0;stroke:#ffffff;stroke-linejoin:miter;"/>
   </g>
   <g id="patch_22">
    <path clip-path="url(#p9d79d873a8)" d="M 472.263571 482.49 
L 477.866735 482.49 
L 477.866735 334.106354 
L 472.263571 334.106354 
z
" style="fill:#4c72b0;stroke:#ffffff;stroke-linejoin:miter;"/>
   </g>
   <g id="patch_23">
    <path clip-path="url(#p9d79d873a8)" d="M 494.676224 482.49 
L 500.279388 482.49 
L 500.279388 328.610664 
L 494.676224 328.610664 
z
" style="fill:#4c72b0;stroke:#ffffff;stroke-linejoin:miter;"/>
   </g>
   <g id="patch_24">
    <path clip-path="url(#p9d79d873a8)" d="M 517.088878 482.49 
L 522.692041 482.49 
L 522.692041 326.778767 
L 517.088878 326.778767 
z
" style="fill:#4c72b0;stroke:#ffffff;stroke-linejoin:miter;"/>
   </g>
   <g id="patch_25">
    <path clip-path="url(#p9d79d873a8)" d="M 539.501531 482.49 
L 545.104694 482.49 
L 545.104694 324.94687 
L 539.501531 324.94687 
z
" style="fill:#4c72b0;stroke:#ffffff;stroke-linejoin:miter;"/>
   </g>
   <g id="patch_26">
    <path clip-path="url(#p9d79d873a8)" d="M 561.914184 482.49 
L 567.517347 482.49 
L 567.517347 319.451179 
L 561.914184 319.451179 
z
" style="fill:#4c72b0;stroke:#ffffff;stroke-linejoin:miter;"/>
   </g>
   <g id="patch_27">
    <path clip-path="url(#p9d79d873a8)" d="M 584.326837 482.49 
L 589.93 482.49 
L 589.93 319.451179 
L 584.326837 319.451179 
z
" style="fill:#4c72b0;stroke:#ffffff;stroke-linejoin:miter;"/>
   </g>
   <g id="patch_28">
    <path clip-path="url(#p9d79d873a8)" d="M 606.73949 482.49 
L 612.342653 482.49 
L 612.342653 317.619283 
L 606.73949 317.619283 
z
" style="fill:#4c72b0;stroke:#ffffff;stroke-linejoin:miter;"/>
   </g>
   <g id="patch_29">
    <path clip-path="url(#p9d79d873a8)" d="M 629.152143 482.49 
L 634.755306 482.49 
L 634.755306 315.787386 
L 629.152143 315.787386 
z
" style="fill:#4c72b0;stroke:#ffffff;stroke-linejoin:miter;"/>
   </g>
   <g id="patch_30">
    <path clip-path="url(#p9d79d873a8)" d="M 651.564796 482.49 
L 657.167959 482.49 
L 657.167959 312.123592 
L 651.564796 312.123592 
z
" style="fill:#4c72b0;stroke:#ffffff;stroke-linejoin:miter;"/>
   </g>
   <g id="patch_31">
    <path clip-path="url(#p9d79d873a8)" d="M 673.977449 482.49 
L 679.580612 482.49 
L 679.580612 306.627901 
L 673.977449 306.627901 
z
" style="fill:#4c72b0;stroke:#ffffff;stroke-linejoin:miter;"/>
   </g>
   <g id="patch_32">
    <path clip-path="url(#p9d79d873a8)" d="M 696.390102 482.49 
L 701.993265 482.49 
L 701.993265 302.964108 
L 696.390102 302.964108 
z
" style="fill:#4c72b0;stroke:#ffffff;stroke-linejoin:miter;"/>
   </g>
   <g id="patch_33">
    <path clip-path="url(#p9d79d873a8)" d="M 718.802755 482.49 
L 724.405918 482.49 
L 724.405918 295.63652 
L 718.802755 295.63652 
z
" style="fill:#4c72b0;stroke:#ffffff;stroke-linejoin:miter;"/>
   </g>
   <g id="patch_34">
    <path clip-path="url(#p9d79d873a8)" d="M 741.215408 482.49 
L 746.818571 482.49 
L 746.818571 288.308933 
L 741.215408 288.308933 
z
" style="fill:#4c72b0;stroke:#ffffff;stroke-linejoin:miter;"/>
   </g>
   <g id="patch_35">
    <path clip-path="url(#p9d79d873a8)" d="M 763.628061 482.49 
L 769.231224 482.49 
L 769.231224 284.645139 
L 763.628061 284.645139 
z
" style="fill:#4c72b0;stroke:#ffffff;stroke-linejoin:miter;"/>
   </g>
   <g id="patch_36">
    <path clip-path="url(#p9d79d873a8)" d="M 786.040714 482.49 
L 791.643878 482.49 
L 791.643878 280.981345 
L 786.040714 280.981345 
z
" style="fill:#4c72b0;stroke:#ffffff;stroke-linejoin:miter;"/>
   </g>
   <g id="patch_37">
    <path clip-path="url(#p9d79d873a8)" d="M 808.453367 482.49 
L 814.056531 482.49 
L 814.056531 277.317552 
L 808.453367 277.317552 
z
" style="fill:#4c72b0;stroke:#ffffff;stroke-linejoin:miter;"/>
   </g>
   <g id="patch_38">
    <path clip-path="url(#p9d79d873a8)" d="M 830.86602 482.49 
L 836.469184 482.49 
L 836.469184 268.158067 
L 830.86602 268.158067 
z
" style="fill:#4c72b0;stroke:#ffffff;stroke-linejoin:miter;"/>
   </g>
   <g id="patch_39">
    <path clip-path="url(#p9d79d873a8)" d="M 853.278673 482.49 
L 858.881837 482.49 
L 858.881837 244.343408 
L 853.278673 244.343408 
z
" style="fill:#4c72b0;stroke:#ffffff;stroke-linejoin:miter;"/>
   </g>
   <g id="patch_40">
    <path clip-path="url(#p9d79d873a8)" d="M 875.691327 482.49 
L 881.29449 482.49 
L 881.29449 229.688233 
L 875.691327 229.688233 
z
" style="fill:#4c72b0;stroke:#ffffff;stroke-linejoin:miter;"/>
   </g>
   <g id="patch_41">
    <path clip-path="url(#p9d79d873a8)" d="M 898.10398 482.49 
L 903.707143 482.49 
L 903.707143 207.705471 
L 898.10398 207.705471 
z
" style="fill:#4c72b0;stroke:#ffffff;stroke-linejoin:miter;"/>
   </g>
   <g id="patch_42">
    <path clip-path="url(#p9d79d873a8)" d="M 920.516633 482.49 
L 926.119796 482.49 
L 926.119796 189.386502 
L 920.516633 189.386502 
z
" style="fill:#4c72b0;stroke:#ffffff;stroke-linejoin:miter;"/>
   </g>
   <g id="patch_43">
    <path clip-path="url(#p9d79d873a8)" d="M 942.929286 482.49 
L 948.532449 482.49 
L 948.532449 178.395121 
L 942.929286 178.395121 
z
" style="fill:#4c72b0;stroke:#ffffff;stroke-linejoin:miter;"/>
   </g>
   <g id="patch_44">
    <path clip-path="url(#p9d79d873a8)" d="M 965.341939 482.49 
L 970.945102 482.49 
L 970.945102 156.412359 
L 965.341939 156.412359 
z
" style="fill:#4c72b0;stroke:#ffffff;stroke-linejoin:miter;"/>
   </g>
   <g id="patch_45">
    <path clip-path="url(#p9d79d873a8)" d="M 987.754592 482.49 
L 993.357755 482.49 
L 993.357755 139.925287 
L 987.754592 139.925287 
z
" style="fill:#4c72b0;stroke:#ffffff;stroke-linejoin:miter;"/>
   </g>
   <g id="patch_46">
    <path clip-path="url(#p9d79d873a8)" d="M 1010.167245 482.49 
L 1015.770408 482.49 
L 1015.770408 116.110628 
L 1010.167245 116.110628 
z
" style="fill:#4c72b0;stroke:#ffffff;stroke-linejoin:miter;"/>
   </g>
   <g id="patch_47">
    <path clip-path="url(#p9d79d873a8)" d="M 1032.579898 482.49 
L 1038.183061 482.49 
L 1038.183061 90.464072 
L 1032.579898 90.464072 
z
" style="fill:#4c72b0;stroke:#ffffff;stroke-linejoin:miter;"/>
   </g>
   <g id="patch_48">
    <path clip-path="url(#p9d79d873a8)" d="M 1054.992551 482.49 
L 1060.595714 482.49 
L 1060.595714 68.48131 
L 1054.992551 68.48131 
z
" style="fill:#4c72b0;stroke:#ffffff;stroke-linejoin:miter;"/>
   </g>
   <g id="patch_49">
    <path clip-path="url(#p9d79d873a8)" d="M 1077.405204 482.49 
L 1083.008367 482.49 
L 1083.008367 482.49 
L 1077.405204 482.49 
z
" style="fill:#4c72b0;stroke:#ffffff;stroke-linejoin:miter;"/>
   </g>
   <g id="patch_50">
    <path clip-path="url(#p9d79d873a8)" d="M 1099.817857 482.49 
L 1105.42102 482.49 
L 1105.42102 482.49 
L 1099.817857 482.49 
z
" style="fill:#4c72b0;stroke:#ffffff;stroke-linejoin:miter;"/>
   </g>
   <g id="patch_51">
    <path clip-path="url(#p9d79d873a8)" d="M 1122.23051 482.49 
L 1127.833673 482.49 
L 1127.833673 482.49 
L 1122.23051 482.49 
z
" style="fill:#4c72b0;stroke:#ffffff;stroke-linejoin:miter;"/>
   </g>
   <g id="patch_52">
    <path clip-path="url(#p9d79d873a8)" d="M 52.026327 482.49 
L 57.62949 482.49 
L 57.62949 482.49 
L 52.026327 482.49 
z
" style="fill:#dd8452;stroke:#ffffff;stroke-linejoin:miter;"/>
   </g>
   <g id="patch_53">
    <path clip-path="url(#p9d79d873a8)" d="M 74.43898 482.49 
L 80.042143 482.49 
L 80.042143 482.49 
L 74.43898 482.49 
z
" style="fill:#dd8452;stroke:#ffffff;stroke-linejoin:miter;"/>
   </g>
   <g id="patch_54">
    <path clip-path="url(#p9d79d873a8)" d="M 96.851633 482.49 
L 102.454796 482.49 
L 102.454796 482.49 
L 96.851633 482.49 
z
" style="fill:#dd8452;stroke:#ffffff;stroke-linejoin:miter;"/>
   </g>
   <g id="patch_55">
    <path clip-path="url(#p9d79d873a8)" d="M 119.264286 482.49 
L 124.867449 482.49 
L 124.867449 482.49 
L 119.264286 482.49 
z
" style="fill:#dd8452;stroke:#ffffff;stroke-linejoin:miter;"/>
   </g>
   <g id="patch_56">
    <path clip-path="url(#p9d79d873a8)" d="M 141.676939 482.49 
L 147.280102 482.49 
L 147.280102 482.49 
L 141.676939 482.49 
z
" style="fill:#dd8452;stroke:#ffffff;stroke-linejoin:miter;"/>
   </g>
   <g id="patch_57">
    <path clip-path="url(#p9d79d873a8)" d="M 164.089592 482.49 
L 169.692755 482.49 
L 169.692755 482.49 
L 164.089592 482.49 
z
" style="fill:#dd8452;stroke:#ffffff;stroke-linejoin:miter;"/>
   </g>
   <g id="patch_58">
    <path clip-path="url(#p9d79d873a8)" d="M 186.502245 482.49 
L 192.105408 482.49 
L 192.105408 482.49 
L 186.502245 482.49 
z
" style="fill:#dd8452;stroke:#ffffff;stroke-linejoin:miter;"/>
   </g>
   <g id="patch_59">
    <path clip-path="url(#p9d79d873a8)" d="M 208.914898 482.49 
L 214.518061 482.49 
L 214.518061 482.49 
L 208.914898 482.49 
z
" style="fill:#dd8452;stroke:#ffffff;stroke-linejoin:miter;"/>
   </g>
   <g id="patch_60">
    <path clip-path="url(#p9d79d873a8)" d="M 231.327551 482.49 
L 236.930714 482.49 
L 236.930714 482.49 
L 231.327551 482.49 
z
" style="fill:#dd8452;stroke:#ffffff;stroke-linejoin:miter;"/>
   </g>
   <g id="patch_61">
    <path clip-path="url(#p9d79d873a8)" d="M 253.740204 482.49 
L 259.343367 482.49 
L 259.343367 482.49 
L 253.740204 482.49 
z
" style="fill:#dd8452;stroke:#ffffff;stroke-linejoin:miter;"/>
   </g>
   <g id="patch_62">
    <path clip-path="url(#p9d79d873a8)" d="M 276.152857 482.49 
L 281.75602 482.49 
L 281.75602 482.49 
L 276.152857 482.49 
z
" style="fill:#dd8452;stroke:#ffffff;stroke-linejoin:miter;"/>
   </g>
   <g id="patch_63">
    <path clip-path="url(#p9d79d873a8)" d="M 298.56551 482.49 
L 304.168673 482.49 
L 304.168673 482.49 
L 298.56551 482.49 
z
" style="fill:#dd8452;stroke:#ffffff;stroke-linejoin:miter;"/>
   </g>
   <g id="patch_64">
    <path clip-path="url(#p9d79d873a8)" d="M 320.978163 482.49 
L 326.581327 482.49 
L 326.581327 482.49 
L 320.978163 482.49 
z
" style="fill:#dd8452;stroke:#ffffff;stroke-linejoin:miter;"/>
   </g>
   <g id="patch_65">
    <path clip-path="url(#p9d79d873a8)" d="M 343.390816 482.49 
L 348.99398 482.49 
L 348.99398 482.49 
L 343.390816 482.49 
z
" style="fill:#dd8452;stroke:#ffffff;stroke-linejoin:miter;"/>
   </g>
   <g id="patch_66">
    <path clip-path="url(#p9d79d873a8)" d="M 365.803469 482.49 
L 371.406633 482.49 
L 371.406633 482.49 
L 365.803469 482.49 
z
" style="fill:#dd8452;stroke:#ffffff;stroke-linejoin:miter;"/>
   </g>
   <g id="patch_67">
    <path clip-path="url(#p9d79d873a8)" d="M 388.216122 482.49 
L 393.819286 482.49 
L 393.819286 482.49 
L 388.216122 482.49 
z
" style="fill:#dd8452;stroke:#ffffff;stroke-linejoin:miter;"/>
   </g>
   <g id="patch_68">
    <path clip-path="url(#p9d79d873a8)" d="M 410.628776 482.49 
L 416.231939 482.49 
L 416.231939 482.49 
L 410.628776 482.49 
z
" style="fill:#dd8452;stroke:#ffffff;stroke-linejoin:miter;"/>
   </g>
   <g id="patch_69">
    <path clip-path="url(#p9d79d873a8)" d="M 433.041429 482.49 
L 438.644592 482.49 
L 438.644592 482.49 
L 433.041429 482.49 
z
" style="fill:#dd8452;stroke:#ffffff;stroke-linejoin:miter;"/>
   </g>
   <g id="patch_70">
    <path clip-path="url(#p9d79d873a8)" d="M 455.454082 482.49 
L 461.057245 482.49 
L 461.057245 482.49 
L 455.454082 482.49 
z
" style="fill:#dd8452;stroke:#ffffff;stroke-linejoin:miter;"/>
   </g>
   <g id="patch_71">
    <path clip-path="url(#p9d79d873a8)" d="M 477.866735 482.49 
L 483.469898 482.49 
L 483.469898 482.49 
L 477.866735 482.49 
z
" style="fill:#dd8452;stroke:#ffffff;stroke-linejoin:miter;"/>
   </g>
   <g id="patch_72">
    <path clip-path="url(#p9d79d873a8)" d="M 500.279388 482.49 
L 505.882551 482.49 
L 505.882551 482.49 
L 500.279388 482.49 
z
" style="fill:#dd8452;stroke:#ffffff;stroke-linejoin:miter;"/>
   </g>
   <g id="patch_73">
    <path clip-path="url(#p9d79d873a8)" d="M 522.692041 482.49 
L 528.295204 482.49 
L 528.295204 482.49 
L 522.692041 482.49 
z
" style="fill:#dd8452;stroke:#ffffff;stroke-linejoin:miter;"/>
   </g>
   <g id="patch_74">
    <path clip-path="url(#p9d79d873a8)" d="M 545.104694 482.49 
L 550.707857 482.49 
L 550.707857 482.49 
L 545.104694 482.49 
z
" style="fill:#dd8452;stroke:#ffffff;stroke-linejoin:miter;"/>
   </g>
   <g id="patch_75">
    <path clip-path="url(#p9d79d873a8)" d="M 567.517347 482.49 
L 573.12051 482.49 
L 573.12051 482.49 
L 567.517347 482.49 
z
" style="fill:#dd8452;stroke:#ffffff;stroke-linejoin:miter;"/>
   </g>
   <g id="patch_76">
    <path clip-path="url(#p9d79d873a8)" d="M 589.93 482.49 
L 595.533163 482.49 
L 595.533163 482.49 
L 589.93 482.49 
z
" style="fill:#dd8452;stroke:#ffffff;stroke-linejoin:miter;"/>
   </g>
   <g id="patch_77">
    <path clip-path="url(#p9d79d873a8)" d="M 612.342653 482.49 
L 617.945816 482.49 
L 617.945816 482.49 
L 612.342653 482.49 
z
" style="fill:#dd8452;stroke:#ffffff;stroke-linejoin:miter;"/>
   </g>
   <g id="patch_78">
    <path clip-path="url(#p9d79d873a8)" d="M 634.755306 482.49 
L 640.358469 482.49 
L 640.358469 482.49 
L 634.755306 482.49 
z
" style="fill:#dd8452;stroke:#ffffff;stroke-linejoin:miter;"/>
   </g>
   <g id="patch_79">
    <path clip-path="url(#p9d79d873a8)" d="M 657.167959 482.49 
L 662.771122 482.49 
L 662.771122 482.49 
L 657.167959 482.49 
z
" style="fill:#dd8452;stroke:#ffffff;stroke-linejoin:miter;"/>
   </g>
   <g id="patch_80">
    <path clip-path="url(#p9d79d873a8)" d="M 679.580612 482.49 
L 685.183776 482.49 
L 685.183776 482.49 
L 679.580612 482.49 
z
" style="fill:#dd8452;stroke:#ffffff;stroke-linejoin:miter;"/>
   </g>
   <g id="patch_81">
    <path clip-path="url(#p9d79d873a8)" d="M 701.993265 482.49 
L 707.596429 482.49 
L 707.596429 482.49 
L 701.993265 482.49 
z
" style="fill:#dd8452;stroke:#ffffff;stroke-linejoin:miter;"/>
   </g>
   <g id="patch_82">
    <path clip-path="url(#p9d79d873a8)" d="M 724.405918 482.49 
L 730.009082 482.49 
L 730.009082 482.49 
L 724.405918 482.49 
z
" style="fill:#dd8452;stroke:#ffffff;stroke-linejoin:miter;"/>
   </g>
   <g id="patch_83">
    <path clip-path="url(#p9d79d873a8)" d="M 746.818571 482.49 
L 752.421735 482.49 
L 752.421735 482.49 
L 746.818571 482.49 
z
" style="fill:#dd8452;stroke:#ffffff;stroke-linejoin:miter;"/>
   </g>
   <g id="patch_84">
    <path clip-path="url(#p9d79d873a8)" d="M 769.231224 482.49 
L 774.834388 482.49 
L 774.834388 482.49 
L 769.231224 482.49 
z
" style="fill:#dd8452;stroke:#ffffff;stroke-linejoin:miter;"/>
   </g>
   <g id="patch_85">
    <path clip-path="url(#p9d79d873a8)" d="M 791.643878 482.49 
L 797.247041 482.49 
L 797.247041 482.49 
L 791.643878 482.49 
z
" style="fill:#dd8452;stroke:#ffffff;stroke-linejoin:miter;"/>
   </g>
   <g id="patch_86">
    <path clip-path="url(#p9d79d873a8)" d="M 814.056531 482.49 
L 819.659694 482.49 
L 819.659694 482.49 
L 814.056531 482.49 
z
" style="fill:#dd8452;stroke:#ffffff;stroke-linejoin:miter;"/>
   </g>
   <g id="patch_87">
    <path clip-path="url(#p9d79d873a8)" d="M 836.469184 482.49 
L 842.072347 482.49 
L 842.072347 482.49 
L 836.469184 482.49 
z
" style="fill:#dd8452;stroke:#ffffff;stroke-linejoin:miter;"/>
   </g>
   <g id="patch_88">
    <path clip-path="url(#p9d79d873a8)" d="M 858.881837 482.49 
L 864.485 482.49 
L 864.485 482.49 
L 858.881837 482.49 
z
" style="fill:#dd8452;stroke:#ffffff;stroke-linejoin:miter;"/>
   </g>
   <g id="patch_89">
    <path clip-path="url(#p9d79d873a8)" d="M 881.29449 482.49 
L 886.897653 482.49 
L 886.897653 482.49 
L 881.29449 482.49 
z
" style="fill:#dd8452;stroke:#ffffff;stroke-linejoin:miter;"/>
   </g>
   <g id="patch_90">
    <path clip-path="url(#p9d79d873a8)" d="M 903.707143 482.49 
L 909.310306 482.49 
L 909.310306 482.49 
L 903.707143 482.49 
z
" style="fill:#dd8452;stroke:#ffffff;stroke-linejoin:miter;"/>
   </g>
   <g id="patch_91">
    <path clip-path="url(#p9d79d873a8)" d="M 926.119796 482.49 
L 931.722959 482.49 
L 931.722959 482.49 
L 926.119796 482.49 
z
" style="fill:#dd8452;stroke:#ffffff;stroke-linejoin:miter;"/>
   </g>
   <g id="patch_92">
    <path clip-path="url(#p9d79d873a8)" d="M 948.532449 482.49 
L 954.135612 482.49 
L 954.135612 482.49 
L 948.532449 482.49 
z
" style="fill:#dd8452;stroke:#ffffff;stroke-linejoin:miter;"/>
   </g>
   <g id="patch_93">
    <path clip-path="url(#p9d79d873a8)" d="M 970.945102 482.49 
L 976.548265 482.49 
L 976.548265 482.49 
L 970.945102 482.49 
z
" style="fill:#dd8452;stroke:#ffffff;stroke-linejoin:miter;"/>
   </g>
   <g id="patch_94">
    <path clip-path="url(#p9d79d873a8)" d="M 993.357755 482.49 
L 998.960918 482.49 
L 998.960918 482.49 
L 993.357755 482.49 
z
" style="fill:#dd8452;stroke:#ffffff;stroke-linejoin:miter;"/>
   </g>
   <g id="patch_95">
    <path clip-path="url(#p9d79d873a8)" d="M 1015.770408 482.49 
L 1021.373571 482.49 
L 1021.373571 482.49 
L 1015.770408 482.49 
z
" style="fill:#dd8452;stroke:#ffffff;stroke-linejoin:miter;"/>
   </g>
   <g id="patch_96">
    <path clip-path="url(#p9d79d873a8)" d="M 1038.183061 482.49 
L 1043.786224 482.49 
L 1043.786224 482.49 
L 1038.183061 482.49 
z
" style="fill:#dd8452;stroke:#ffffff;stroke-linejoin:miter;"/>
   </g>
   <g id="patch_97">
    <path clip-path="url(#p9d79d873a8)" d="M 1060.595714 482.49 
L 1066.198878 482.49 
L 1066.198878 482.49 
L 1060.595714 482.49 
z
" style="fill:#dd8452;stroke:#ffffff;stroke-linejoin:miter;"/>
   </g>
   <g id="patch_98">
    <path clip-path="url(#p9d79d873a8)" d="M 1083.008367 482.49 
L 1088.611531 482.49 
L 1088.611531 74.273369 
L 1083.008367 74.273369 
z
" style="fill:#dd8452;stroke:#ffffff;stroke-linejoin:miter;"/>
   </g>
   <g id="patch_99">
    <path clip-path="url(#p9d79d873a8)" d="M 1105.42102 482.49 
L 1111.024184 482.49 
L 1111.024184 55.234239 
L 1105.42102 55.234239 
z
" style="fill:#dd8452;stroke:#ffffff;stroke-linejoin:miter;"/>
   </g>
   <g id="patch_100">
    <path clip-path="url(#p9d79d873a8)" d="M 1127.833673 482.49 
L 1133.436837 482.49 
L 1133.436837 35.318571 
L 1127.833673 35.318571 
z
" style="fill:#dd8452;stroke:#ffffff;stroke-linejoin:miter;"/>
   </g>
   <g id="line2d_56">
    <path clip-path="url(#p9d79d873a8)" d="M 52.026327 433.72641 
L 74.43898 431.391174 
L 96.851633 428.945511 
L 119.264286 426.384268 
L 141.676939 423.702053 
L 164.089592 420.893225 
L 186.502245 417.951885 
L 208.914898 414.871863 
L 231.327551 411.646703 
L 253.740204 408.269655 
L 276.152857 404.733659 
L 298.56551 401.03133 
L 320.978163 397.154944 
L 343.390816 393.096425 
L 365.803469 388.847326 
L 388.216122 384.398814 
L 410.628776 379.741651 
L 433.041429 374.866179 
L 455.454082 369.762297 
L 477.866735 364.419442 
L 500.279388 358.826571 
L 522.692041 352.972138 
L 545.104694 346.844067 
L 567.517347 340.429738 
L 589.93 333.71595 
L 612.342653 326.688907 
L 634.755306 319.334183 
L 657.167959 311.636696 
L 679.580612 303.580682 
L 701.993265 295.149659 
L 724.405918 286.326398 
L 746.818571 277.092891 
L 769.231224 267.430311 
L 791.643878 257.318982 
L 814.056531 246.738335 
L 836.469184 235.666872 
L 858.881837 224.082124 
L 881.29449 211.960607 
L 903.707143 199.277777 
L 926.119796 186.007981 
L 948.532449 172.124413 
L 970.945102 157.599055 
L 993.357755 142.402632 
L 1015.770408 126.504547 
L 1038.183061 109.872831 
L 1060.595714 92.474075 
L 1083.008367 74.273369 
L 1105.42102 55.234239 
L 1127.833673 35.318571 
" style="fill:none;stroke:#ff0000;stroke-linecap:round;stroke-width:1.5;"/>
   </g>
   <g id="patch_101">
    <path d="M 40.82 482.49 
L 40.82 12.96 
" style="fill:none;stroke:#ffffff;stroke-linecap:square;stroke-linejoin:miter;stroke-width:1.25;"/>
   </g>
   <g id="patch_102">
    <path d="M 1139.04 482.49 
L 1139.04 12.96 
" style="fill:none;stroke:#ffffff;stroke-linecap:square;stroke-linejoin:miter;stroke-width:1.25;"/>
   </g>
   <g id="patch_103">
    <path d="M 40.82 482.49 
L 1139.04 482.49 
" style="fill:none;stroke:#ffffff;stroke-linecap:square;stroke-linejoin:miter;stroke-width:1.25;"/>
   </g>
   <g id="patch_104">
    <path d="M 40.82 12.96 
L 1139.04 12.96 
" style="fill:none;stroke:#ffffff;stroke-linecap:square;stroke-linejoin:miter;stroke-width:1.25;"/>
   </g>
   <g id="legend_1">
    <g id="patch_105">
     <path d="M 48.52 68.568438 
L 134.4575 68.568438 
Q 136.6575 68.568438 136.6575 66.368438 
L 136.6575 20.66 
Q 136.6575 18.46 134.4575 18.46 
L 48.52 18.46 
Q 46.32 18.46 46.32 20.66 
L 46.32 66.368438 
Q 46.32 68.568438 48.52 68.568438 
z
" style="fill:#eaeaf2;opacity:0.8;stroke:#cccccc;stroke-linejoin:miter;"/>
    </g>
    <g id="line2d_57">
     <path d="M 50.72 26.883594 
L 72.72 26.883594 
" style="fill:none;stroke:#ff0000;stroke-linecap:round;stroke-width:1.5;"/>
    </g>
    <g id="line2d_58"/>
    <g id="text_57">
     <!-- Estimate -->
     <defs>
      <path d="M 7.90625 0 
L 7.90625 71.578125 
L 59.671875 71.578125 
L 59.671875 63.140625 
L 17.390625 63.140625 
L 17.390625 41.21875 
L 56.984375 41.21875 
L 56.984375 32.8125 
L 17.390625 32.8125 
L 17.390625 8.453125 
L 61.328125 8.453125 
L 61.328125 0 
z
" id="ArialMT-69"/>
      <path d="M 3.078125 15.484375 
L 11.765625 16.84375 
Q 12.5 11.625 15.84375 8.84375 
Q 19.1875 6.0625 25.203125 6.0625 
Q 31.25 6.0625 34.171875 8.515625 
Q 37.109375 10.984375 37.109375 14.3125 
Q 37.109375 17.28125 34.515625 19 
Q 32.71875 20.171875 25.53125 21.96875 
Q 15.875 24.421875 12.140625 26.203125 
Q 8.40625 27.984375 6.46875 31.125 
Q 4.546875 34.28125 4.546875 38.09375 
Q 4.546875 41.546875 6.125 44.5 
Q 7.71875 47.46875 10.453125 49.421875 
Q 12.5 50.921875 16.03125 51.96875 
Q 19.578125 53.03125 23.640625 53.03125 
Q 29.734375 53.03125 34.34375 51.265625 
Q 38.96875 49.515625 41.15625 46.5 
Q 43.359375 43.5 44.1875 38.484375 
L 35.59375 37.3125 
Q 35.015625 41.3125 32.203125 43.546875 
Q 29.390625 45.796875 24.265625 45.796875 
Q 18.21875 45.796875 15.625 43.796875 
Q 13.03125 41.796875 13.03125 39.109375 
Q 13.03125 37.40625 14.109375 36.03125 
Q 15.1875 34.625 17.484375 33.6875 
Q 18.796875 33.203125 25.25 31.453125 
Q 34.578125 28.953125 38.25 27.359375 
Q 41.9375 25.78125 44.03125 22.75 
Q 46.140625 19.734375 46.140625 15.234375 
Q 46.140625 10.84375 43.578125 6.953125 
Q 41.015625 3.078125 36.171875 0.953125 
Q 31.34375 -1.171875 25.25 -1.171875 
Q 15.140625 -1.171875 9.84375 3.03125 
Q 4.546875 7.234375 3.078125 15.484375 
z
" id="ArialMT-115"/>
      <path d="M 6.640625 61.46875 
L 6.640625 71.578125 
L 15.4375 71.578125 
L 15.4375 61.46875 
z
M 6.640625 0 
L 6.640625 51.859375 
L 15.4375 51.859375 
L 15.4375 0 
z
" id="ArialMT-105"/>
      <path d="M 6.59375 0 
L 6.59375 51.859375 
L 14.453125 51.859375 
L 14.453125 44.578125 
Q 16.890625 48.390625 20.9375 50.703125 
Q 25 53.03125 30.171875 53.03125 
Q 35.9375 53.03125 39.625 50.640625 
Q 43.3125 48.25 44.828125 43.953125 
Q 50.984375 53.03125 60.84375 53.03125 
Q 68.5625 53.03125 72.703125 48.75 
Q 76.859375 44.484375 76.859375 35.59375 
L 76.859375 0 
L 68.109375 0 
L 68.109375 32.671875 
Q 68.109375 37.9375 67.25 40.25 
Q 66.40625 42.578125 64.15625 43.984375 
Q 61.921875 45.40625 58.890625 45.40625 
Q 53.421875 45.40625 49.796875 41.765625 
Q 46.1875 38.140625 46.1875 30.125 
L 46.1875 0 
L 37.40625 0 
L 37.40625 33.6875 
Q 37.40625 39.546875 35.25 42.46875 
Q 33.109375 45.40625 28.21875 45.40625 
Q 24.515625 45.40625 21.359375 43.453125 
Q 18.21875 41.5 16.796875 37.734375 
Q 15.375 33.984375 15.375 26.90625 
L 15.375 0 
z
" id="ArialMT-109"/>
     </defs>
     <g style="fill:#262626;" transform="translate(81.52 30.733594)scale(0.11 -0.11)">
      <use xlink:href="#ArialMT-69"/>
      <use x="66.699219" xlink:href="#ArialMT-115"/>
      <use x="116.699219" xlink:href="#ArialMT-116"/>
      <use x="144.482422" xlink:href="#ArialMT-105"/>
      <use x="166.699219" xlink:href="#ArialMT-109"/>
      <use x="250" xlink:href="#ArialMT-97"/>
      <use x="305.615234" xlink:href="#ArialMT-116"/>
      <use x="333.398438" xlink:href="#ArialMT-101"/>
     </g>
    </g>
    <g id="patch_106">
     <path d="M 50.72 46.293438 
L 72.72 46.293438 
L 72.72 38.593438 
L 50.72 38.593438 
z
" style="fill:#4c72b0;stroke:#ffffff;stroke-linejoin:miter;"/>
    </g>
    <g id="text_58">
     <!-- Confirmed -->
     <defs>
      <path d="M 58.796875 25.09375 
L 68.265625 22.703125 
Q 65.28125 11.03125 57.546875 4.90625 
Q 49.8125 -1.21875 38.625 -1.21875 
Q 27.046875 -1.21875 19.796875 3.484375 
Q 12.546875 8.203125 8.765625 17.140625 
Q 4.984375 26.078125 4.984375 36.328125 
Q 4.984375 47.515625 9.25 55.828125 
Q 13.53125 64.15625 21.40625 68.46875 
Q 29.296875 72.796875 38.765625 72.796875 
Q 49.515625 72.796875 56.828125 67.328125 
Q 64.15625 61.859375 67.046875 51.953125 
L 57.71875 49.75 
Q 55.21875 57.5625 50.484375 61.125 
Q 45.75 64.703125 38.578125 64.703125 
Q 30.328125 64.703125 24.78125 60.734375 
Q 19.234375 56.78125 16.984375 50.109375 
Q 14.75 43.453125 14.75 36.375 
Q 14.75 27.25 17.40625 20.4375 
Q 20.0625 13.625 25.671875 10.25 
Q 31.296875 6.890625 37.84375 6.890625 
Q 45.796875 6.890625 51.3125 11.46875 
Q 56.84375 16.0625 58.796875 25.09375 
z
" id="ArialMT-67"/>
      <path d="M 3.328125 25.921875 
Q 3.328125 40.328125 11.328125 47.265625 
Q 18.015625 53.03125 27.640625 53.03125 
Q 38.328125 53.03125 45.109375 46.015625 
Q 51.90625 39.015625 51.90625 26.65625 
Q 51.90625 16.65625 48.90625 10.90625 
Q 45.90625 5.171875 40.15625 2 
Q 34.421875 -1.171875 27.640625 -1.171875 
Q 16.75 -1.171875 10.03125 5.8125 
Q 3.328125 12.796875 3.328125 25.921875 
z
M 12.359375 25.921875 
Q 12.359375 15.96875 16.703125 11.015625 
Q 21.046875 6.0625 27.640625 6.0625 
Q 34.1875 6.0625 38.53125 11.03125 
Q 42.875 16.015625 42.875 26.21875 
Q 42.875 35.84375 38.5 40.796875 
Q 34.125 45.75 27.640625 45.75 
Q 21.046875 45.75 16.703125 40.8125 
Q 12.359375 35.890625 12.359375 25.921875 
z
" id="ArialMT-111"/>
      <path d="M 6.59375 0 
L 6.59375 51.859375 
L 14.5 51.859375 
L 14.5 44.484375 
Q 20.21875 53.03125 31 53.03125 
Q 35.6875 53.03125 39.625 51.34375 
Q 43.5625 49.65625 45.515625 46.921875 
Q 47.46875 44.1875 48.25 40.4375 
Q 48.734375 37.984375 48.734375 31.890625 
L 48.734375 0 
L 39.9375 0 
L 39.9375 31.546875 
Q 39.9375 36.921875 38.90625 39.578125 
Q 37.890625 42.234375 35.28125 43.8125 
Q 32.671875 45.40625 29.15625 45.40625 
Q 23.53125 45.40625 19.453125 41.84375 
Q 15.375 38.28125 15.375 28.328125 
L 15.375 0 
z
" id="ArialMT-110"/>
      <path d="M 8.6875 0 
L 8.6875 45.015625 
L 0.921875 45.015625 
L 0.921875 51.859375 
L 8.6875 51.859375 
L 8.6875 57.375 
Q 8.6875 62.59375 9.625 65.140625 
Q 10.890625 68.5625 14.078125 70.671875 
Q 17.28125 72.796875 23.046875 72.796875 
Q 26.765625 72.796875 31.25 71.921875 
L 29.9375 64.265625 
Q 27.203125 64.75 24.75 64.75 
Q 20.75 64.75 19.09375 63.03125 
Q 17.4375 61.328125 17.4375 56.640625 
L 17.4375 51.859375 
L 27.546875 51.859375 
L 27.546875 45.015625 
L 17.4375 45.015625 
L 17.4375 0 
z
" id="ArialMT-102"/>
      <path d="M 6.5 0 
L 6.5 51.859375 
L 14.40625 51.859375 
L 14.40625 44 
Q 17.4375 49.515625 20 51.265625 
Q 22.5625 53.03125 25.640625 53.03125 
Q 30.078125 53.03125 34.671875 50.203125 
L 31.640625 42.046875 
Q 28.421875 43.953125 25.203125 43.953125 
Q 22.3125 43.953125 20.015625 42.21875 
Q 17.71875 40.484375 16.75 37.40625 
Q 15.28125 32.71875 15.28125 27.15625 
L 15.28125 0 
z
" id="ArialMT-114"/>
      <path d="M 40.234375 0 
L 40.234375 6.546875 
Q 35.296875 -1.171875 25.734375 -1.171875 
Q 19.53125 -1.171875 14.328125 2.25 
Q 9.125 5.671875 6.265625 11.796875 
Q 3.421875 17.921875 3.421875 25.875 
Q 3.421875 33.640625 6 39.96875 
Q 8.59375 46.296875 13.765625 49.65625 
Q 18.953125 53.03125 25.34375 53.03125 
Q 30.03125 53.03125 33.6875 51.046875 
Q 37.359375 49.078125 39.65625 45.90625 
L 39.65625 71.578125 
L 48.390625 71.578125 
L 48.390625 0 
z
M 12.453125 25.875 
Q 12.453125 15.921875 16.640625 10.984375 
Q 20.84375 6.0625 26.5625 6.0625 
Q 32.328125 6.0625 36.34375 10.765625 
Q 40.375 15.484375 40.375 25.140625 
Q 40.375 35.796875 36.265625 40.765625 
Q 32.171875 45.75 26.171875 45.75 
Q 20.3125 45.75 16.375 40.96875 
Q 12.453125 36.1875 12.453125 25.875 
z
" id="ArialMT-100"/>
     </defs>
     <g style="fill:#262626;" transform="translate(81.52 46.293438)scale(0.11 -0.11)">
      <use xlink:href="#ArialMT-67"/>
      <use x="72.216797" xlink:href="#ArialMT-111"/>
      <use x="127.832031" xlink:href="#ArialMT-110"/>
      <use x="183.447266" xlink:href="#ArialMT-102"/>
      <use x="211.230469" xlink:href="#ArialMT-105"/>
      <use x="233.447266" xlink:href="#ArialMT-114"/>
      <use x="266.748047" xlink:href="#ArialMT-109"/>
      <use x="350.048828" xlink:href="#ArialMT-101"/>
      <use x="405.664062" xlink:href="#ArialMT-100"/>
     </g>
    </g>
    <g id="patch_107">
     <path d="M 50.72 61.853281 
L 72.72 61.853281 
L 72.72 54.153281 
L 50.72 54.153281 
z
" style="fill:#dd8452;stroke:#ffffff;stroke-linejoin:miter;"/>
    </g>
    <g id="text_59">
     <!-- Projected -->
     <defs>
      <path d="M 7.71875 0 
L 7.71875 71.578125 
L 34.71875 71.578125 
Q 41.84375 71.578125 45.609375 70.90625 
Q 50.875 70.015625 54.4375 67.546875 
Q 58.015625 65.09375 60.1875 60.640625 
Q 62.359375 56.203125 62.359375 50.875 
Q 62.359375 41.75 56.546875 35.421875 
Q 50.734375 29.109375 35.546875 29.109375 
L 17.1875 29.109375 
L 17.1875 0 
z
M 17.1875 37.546875 
L 35.6875 37.546875 
Q 44.875 37.546875 48.734375 40.96875 
Q 52.59375 44.390625 52.59375 50.59375 
Q 52.59375 55.078125 50.3125 58.265625 
Q 48.046875 61.46875 44.34375 62.5 
Q 41.9375 63.140625 35.5 63.140625 
L 17.1875 63.140625 
z
" id="ArialMT-80"/>
      <path d="M 6.546875 61.375 
L 6.546875 71.578125 
L 15.328125 71.578125 
L 15.328125 61.375 
z
M -4.59375 -20.125 
L -2.9375 -12.640625 
Q -0.296875 -13.328125 1.21875 -13.328125 
Q 3.90625 -13.328125 5.21875 -11.546875 
Q 6.546875 -9.765625 6.546875 -2.640625 
L 6.546875 51.859375 
L 15.328125 51.859375 
L 15.328125 -2.828125 
Q 15.328125 -12.40625 12.84375 -16.15625 
Q 9.671875 -21.046875 2.296875 -21.046875 
Q -1.265625 -21.046875 -4.59375 -20.125 
z
" id="ArialMT-106"/>
      <path d="M 40.4375 19 
L 49.078125 17.875 
Q 47.65625 8.9375 41.8125 3.875 
Q 35.984375 -1.171875 27.484375 -1.171875 
Q 16.84375 -1.171875 10.375 5.78125 
Q 3.90625 12.75 3.90625 25.734375 
Q 3.90625 34.125 6.6875 40.421875 
Q 9.46875 46.734375 15.15625 49.875 
Q 20.84375 53.03125 27.546875 53.03125 
Q 35.984375 53.03125 41.359375 48.75 
Q 46.734375 44.484375 48.25 36.625 
L 39.703125 35.296875 
Q 38.484375 40.53125 35.375 43.15625 
Q 32.28125 45.796875 27.875 45.796875 
Q 21.234375 45.796875 17.078125 41.03125 
Q 12.9375 36.28125 12.9375 25.984375 
Q 12.9375 15.53125 16.9375 10.796875 
Q 20.953125 6.0625 27.390625 6.0625 
Q 32.5625 6.0625 36.03125 9.234375 
Q 39.5 12.40625 40.4375 19 
z
" id="ArialMT-99"/>
     </defs>
     <g style="fill:#262626;" transform="translate(81.52 61.853281)scale(0.11 -0.11)">
      <use xlink:href="#ArialMT-80"/>
      <use x="66.699219" xlink:href="#ArialMT-114"/>
      <use x="100" xlink:href="#ArialMT-111"/>
      <use x="155.615234" xlink:href="#ArialMT-106"/>
      <use x="177.832031" xlink:href="#ArialMT-101"/>
      <use x="233.447266" xlink:href="#ArialMT-99"/>
      <use x="283.447266" xlink:href="#ArialMT-116"/>
      <use x="311.230469" xlink:href="#ArialMT-101"/>
      <use x="366.845703" xlink:href="#ArialMT-100"/>
     </g>
    </g>
   </g>
  </g>
 </g>
 <defs>
  <clipPath id="p9d79d873a8">
   <rect height="469.53" width="1098.22" x="40.82" y="12.96"/>
  </clipPath>
 </defs>
</svg>
